# This file uses centimeters as units for non-parametric coordinates.

mtllib Pipe_LP.mtl
g default
v 16.354397 18.812980 2.924068
v 16.354397 18.710578 2.849670
v 16.354397 18.584002 2.849670
v 16.354397 18.481601 2.924068
v 16.354397 18.442487 3.044449
v 16.354397 18.481601 3.164829
v 16.354397 18.584002 3.239229
v 16.354397 18.710578 3.239229
v 16.354397 18.812980 3.164829
v 16.354397 18.852094 3.044449
v 4.716569 18.812980 2.881111
v 4.713365 18.710578 2.806781
v 4.713365 18.584002 2.806781
v 4.716569 18.481601 2.881111
v 4.721755 18.442487 3.001380
v 4.726940 18.481601 3.121649
v 4.730145 18.584002 3.195979
v 4.730145 18.710578 3.195979
v 4.726940 18.812980 3.121649
v 4.721755 18.852094 3.001380
v 16.354397 18.647290 3.044449
v 4.444312 18.812980 2.965986
v 4.406853 18.710578 2.901705
v 4.406853 18.584002 2.901705
v 4.444312 18.481601 2.965986
v 4.504923 18.442487 3.069994
v 4.565535 18.481601 3.174002
v 4.602994 18.584002 3.238283
v 4.602994 18.710578 3.238283
v 4.565535 18.812980 3.174002
v 4.504923 18.852094 3.069994
v -9.978799 18.817798 14.729016
v -10.029098 18.713527 14.666930
v -10.029098 18.581056 14.666930
v -9.978799 18.476783 14.729016
v -9.900258 18.442485 14.824755
v -9.825313 18.486411 14.914519
v -9.780747 18.586945 14.967095
v -9.780747 18.707635 14.967095
v -9.825313 18.808169 14.914519
v -9.900258 18.852097 14.824755
v -10.261439 18.676383 14.960103
v -10.254727 18.603036 14.851149
v -10.182174 18.509675 14.791798
v -10.074470 18.435784 14.807145
v -9.976792 18.411792 14.888116
v -9.926385 18.444030 14.998221
v -9.937497 18.515674 15.095555
v -10.003108 18.600104 15.149230
v -10.102025 18.670047 15.141907
v -10.201242 18.700622 15.071732
v -10.361434 18.427194 15.039056
v -10.331245 18.379685 14.912022
v -10.231853 18.324475 14.844012
v -10.114286 18.286134 14.853743
v -10.022468 18.273000 14.924792
v -9.979545 18.283893 15.029082
v -9.994775 18.316661 15.137456
v -10.069100 18.365668 15.217252
v -10.186261 18.414897 15.233125
v -10.302617 18.440843 15.166341
v -10.361672 11.510452 15.031960
v -10.321794 11.498474 14.899335
v -10.212354 11.487169 14.825385
v -10.088550 11.481839 14.830981
v -9.994927 11.481311 14.900636
v -9.954207 11.483468 15.006425
v -9.975562 11.489314 15.119050
v -10.059180 11.499554 15.204951
v -10.185660 11.510362 15.226369
v -10.306451 11.515273 15.161710
vt 0.724943 0.798214
vt 0.722744 0.801241
vt 0.719186 0.796344
vt 0.719186 0.802397
vt 0.724943 0.794473
vt 0.715628 0.801241
vt 0.722744 0.791446
vt 0.713429 0.798214
vt 0.719186 0.790290
vt 0.713429 0.794473
vt 0.715628 0.791446
vt 0.953691 0.008088
vt 0.951523 0.011308
vt 0.944921 0.009509
vt 0.946326 0.005754
vt 0.957871 0.014918
vt 0.954789 0.016753
vt 0.948764 0.013062
vt 0.943290 0.011519
vt 0.741538 0.009884
vt 0.741892 0.005964
vt 0.954407 0.004788
vt 0.946729 0.001992
vt 0.957728 0.362591
vt 0.954702 0.364491
vt 0.950873 0.016753
vt 0.741203 0.012070
vt 0.742034 0.002129
vt 0.950960 0.364491
vt 0.947934 0.362591
vt 0.947791 0.014918
vt 0.981414 0.714691
vt 0.982367 0.717945
vt 0.977634 0.718857
vt 0.977312 0.715775
vt 0.984484 0.720822
vt 0.978602 0.722060
vt 0.776637 0.718187
vt 0.776574 0.715061
vt 0.982123 0.712297
vt 0.977700 0.713675
vt 0.983619 0.715471
vt 0.986591 0.717025
vt 0.986980 0.722408
vt 0.980051 0.724419
vt 0.776810 0.721516
vt 0.776589 0.713002
vt 0.983477 0.368463
vt 0.986504 0.370363
vt 0.990158 0.717025
vt 0.777113 0.724055
vt 0.990245 0.370363
vt 0.993272 0.368463
vt 0.993129 0.715471
vt 0.378066 0.001992
vt 0.381624 0.001992
vt 0.380351 0.345811
vt 0.376796 0.345964
vt 0.385182 0.001992
vt 0.383906 0.345658
vt 0.382379 0.352220
vt 0.379305 0.354011
vt 0.375867 0.001992
vt 0.374599 0.346059
vt 0.387381 0.001992
vt 0.386103 0.345563
vt 0.385453 0.350428
vt 0.729808 0.777985
vt 0.726978 0.780307
vt 0.377405 0.355119
vt 0.387353 0.349321
vt 0.732461 0.775770
vt 0.731681 0.780248
vt 0.729287 0.783135
vt 0.734935 0.778758
vt 0.725143 0.781793
vt 0.728834 0.786318
vt 0.356198 0.001992
vt 0.359756 0.001992
vt 0.361030 0.345811
vt 0.357475 0.345658
vt 0.363315 0.001992
vt 0.364584 0.345964
vt 0.359001 0.352220
vt 0.355927 0.350428
vt 0.353999 0.001992
vt 0.355278 0.345563
vt 0.365513 0.001992
vt 0.366781 0.346059
vt 0.362076 0.354011
vt 0.011573 0.777985
vt 0.008920 0.775770
vt 0.354027 0.349321
vt 0.363976 0.355119
vt 0.014403 0.780307
vt 0.004273 0.786881
vt 0.002199 0.783949
vt 0.007572 0.788661
vt 0.007366 0.774453
vt 0.001983 0.781025
vt 0.766726 0.368463
vt 0.770468 0.368463
vt 0.770468 0.712530
vt 0.766726 0.712530
vt 0.770468 0.721590
vt 0.766726 0.721590
vt 0.756879 0.368463
vt 0.760620 0.368463
vt 0.760620 0.712034
vt 0.756879 0.712034
vt 0.760620 0.715793
vt 0.756879 0.715793
vt 0.732518 0.790290
vt 0.735701 0.792474
vt 0.734524 0.796897
vt 0.731049 0.795764
vt 0.735285 0.998008
vt 0.731625 0.997850
vt 0.750773 0.578330
vt 0.747849 0.580397
vt 0.745359 0.572856
vt 0.748822 0.571401
vt 0.744917 0.581301
vt 0.741920 0.573623
vt 0.745377 0.368783
vt 0.749116 0.368463
vt 0.741807 0.368928
vn 0.002168 0.809170 -0.587571
vn 0.003505 0.309051 -0.951039
vn -0.003722 0.305697 -0.952122
vn -0.002287 0.803698 -0.595033
vn 0.003505 -0.309053 -0.951038
vn -0.003722 -0.305698 -0.952121
vn 0.002168 -0.809175 -0.587564
vn -0.002287 -0.803703 -0.595027
vn -0.000004 -1.000000 0.000658
vn -0.000491 -0.999942 -0.010810
vn -0.002186 -0.808551 0.588422
vn 0.000361 -0.813975 0.580900
vn -0.003537 -0.308673 0.951162
vn 0.000253 -0.312035 0.950071
vn -0.003537 0.308673 0.951162
vn 0.000253 0.312035 0.950071
vn -0.002186 0.808548 0.588426
vn 0.000361 0.813972 0.580904
vn -0.000004 1.000000 0.000658
vn -0.000491 0.999942 -0.010810
vn 1.000000 0.000000 0.000000
vn 1.000000 0.000000 0.000000
vn 1.000000 0.000001 0.000000
vn 1.000000 0.000000 0.000000
vn 1.000000 0.000000 0.000000
vn 1.000000 0.000000 0.000000
vn 1.000000 0.000000 0.000000
vn 1.000000 0.000000 0.000000
vn 1.000000 0.000005 0.000000
vn 1.000000 0.000005 0.000000
vn 1.000000 0.000000 0.000000
vn -0.503643 0.596123 -0.625285
vn -0.503451 0.596129 -0.625434
vn -0.626939 0.000000 -0.779069
vn -0.626939 0.000000 -0.779069
vn -0.503454 -0.596128 -0.625433
vn -0.503646 -0.596121 -0.625284
vn -0.181705 -0.957156 -0.225470
vn -0.181797 -0.957158 -0.225385
vn 0.208666 -0.943368 0.257906
vn 0.208752 -0.943359 0.257870
vn 0.515293 -0.574626 0.635829
vn 0.515370 -0.574617 0.635774
vn 0.629929 0.000000 0.776653
vn 0.629929 0.000000 0.776653
vn 0.515375 0.574622 0.635766
vn 0.515297 0.574631 0.635821
vn 0.208755 0.943355 0.257882
vn 0.208670 0.943364 0.257918
vn -0.181801 0.957155 -0.225397
vn -0.181709 0.957152 -0.225482
vn -0.510908 0.596347 -0.619147
vn -0.509821 0.596243 -0.620143
vn -0.631770 0.000006 -0.775156
vn -0.631766 0.000004 -0.775160
vn -0.505534 -0.596206 -0.623678
vn -0.506048 -0.596145 -0.623319
vn -0.181239 -0.957246 -0.225462
vn -0.181398 -0.957240 -0.225358
vn 0.211223 -0.943216 0.256374
vn 0.211447 -0.943212 0.256204
vn 0.518371 -0.574394 0.633532
vn 0.518848 -0.574391 0.633144
vn 0.631967 0.000002 0.774995
vn 0.631976 0.000004 0.774988
vn 0.515059 0.574330 0.636285
vn 0.514110 0.574297 0.637082
vn 0.204936 0.943095 0.261865
vn 0.204210 0.943071 0.262519
vn -0.188761 0.957325 -0.218859
vn -0.188073 0.957311 -0.219509
vn -0.797864 0.463212 -0.385808
vn -0.803857 0.455882 -0.382081
vn -0.622819 -0.013742 -0.782246
vn -0.622510 -0.014190 -0.782483
vn -0.178984 -0.449910 -0.874955
vn -0.179713 -0.450729 -0.874384
vn 0.359875 -0.675974 -0.643078
vn 0.357840 -0.678586 -0.641461
vn 0.738780 -0.656886 -0.150681
vn 0.741501 -0.653247 -0.153119
vn 0.828845 -0.410748 0.379871
vn 0.830468 -0.408857 0.378363
vn 0.658942 -0.004766 0.752179
vn 0.658576 -0.004693 0.752500
vn 0.274112 0.426076 0.862161
vn 0.276195 0.429829 0.859630
vn -0.216769 0.725935 0.652709
vn -0.215657 0.727282 0.651577
vn -0.635299 0.752519 0.173522
vn -0.640712 0.746961 0.177585
vn -0.965235 0.007465 -0.261279
vn -0.965078 0.011606 -0.261705
vn -0.563245 -0.000029 -0.826290
vn -0.564238 -0.000629 -0.825612
vn 0.062045 -0.002591 -0.998070
vn 0.060831 -0.006282 -0.998128
vn 0.604110 -0.003223 -0.796894
vn 0.603978 -0.005090 -0.796985
vn 0.929321 -0.004784 -0.369242
vn 0.929280 -0.003564 -0.369360
vn 0.986143 -0.005700 0.165799
vn 0.986329 -0.002741 0.164768
vn 0.722135 -0.000465 0.691752
vn 0.722919 -0.000255 0.690933
vn 0.152577 0.011487 0.988225
vn 0.151890 0.005957 0.988379
vn -0.483088 0.018863 0.875369
vn -0.483562 0.013795 0.875202
vn -0.914296 0.016209 0.404722
vn -0.914303 0.017396 0.404657
vn -0.965482 -0.000271 -0.260472
vn -0.965481 -0.000271 -0.260472
vn -0.562035 0.000702 -0.827113
vn -0.562035 0.000702 -0.827113
vn 0.063960 0.003240 -0.997947
vn 0.063960 0.003240 -0.997947
vn 0.604678 0.005118 -0.796454
vn 0.604678 0.005118 -0.796454
vn 0.928955 0.004889 -0.370160
vn 0.928955 0.004889 -0.370161
vn 0.986646 0.002735 0.162857
vn 0.986646 0.002735 0.162857
vn 0.723843 -0.000007 0.689965
vn 0.723843 -0.000007 0.689965
vn 0.150989 -0.001253 0.988535
vn 0.150989 -0.001253 0.988535
vn -0.484840 -0.000607 0.874602
vn -0.484840 -0.000607 0.874602
vn -0.914072 -0.000075 0.405551
vn -0.914072 -0.000075 0.405551
s 1
g polySurface205 pCylinder10
usemtl initialShadingGroup
f 1/82/1 2/88/2 12/89/3 11/83/4
f 2/101/2 3/102/5 13/103/6 12/104/3
f 3/63/5 4/55/7 14/58/8 13/64/6
f 4/55/7 5/56/9 15/57/10 14/58/8
f 5/56/9 6/59/11 16/60/12 15/57/10
f 6/59/11 7/65/13 17/66/14 16/60/12
f 7/107/13 8/108/15 18/109/16 17/110/14
f 8/86/15 9/78/17 19/81/18 18/87/16
f 9/78/17 10/79/19 20/80/20 19/81/18
f 10/79/19 1/82/1 11/83/4 20/80/20
s 2
f 2/1/21 1/2/22 21/3/23
f 3/5/24 2/1/21 21/3/23
f 4/7/25 3/5/24 21/3/23
f 5/9/26 4/7/25 21/3/23
f 6/11/27 5/9/26 21/3/23
f 7/10/28 6/11/27 21/3/23
f 8/8/29 7/10/28 21/3/23
f 9/6/30 8/8/29 21/3/23
f 10/4/31 9/6/30 21/3/23
f 1/2/22 10/4/31 21/3/23
s 1
f 11/83/4 12/89/3 23/94/32 22/90/33
f 12/104/3 13/103/6 24/105/34 23/106/35
f 13/64/6 14/58/8 25/62/36 24/70/37
f 14/58/8 15/57/10 26/61/38 25/62/39
f 15/57/10 16/60/12 27/67/40 26/61/41
f 16/60/12 17/66/14 28/71/42 27/67/43
f 17/110/14 18/109/16 29/111/44 28/112/45
f 18/87/16 19/81/18 30/85/46 29/93/47
f 19/81/18 20/80/20 31/84/48 30/85/49
f 20/80/20 11/83/4 22/90/50 31/84/51
f 22/24/33 23/25/32 33/17/52 32/16/53
f 23/25/35 24/29/34 34/26/54 33/17/55
f 24/29/37 25/30/36 35/31/56 34/26/57
f 25/62/39 26/61/38 36/68/58 35/69/59
f 26/61/41 27/67/40 37/72/60 36/68/61
f 27/48/43 28/49/42 38/43/62 37/42/63
f 28/49/45 29/52/44 39/50/64 38/43/65
f 29/52/47 30/53/46 40/54/66 39/50/67
f 30/85/49 31/84/48 41/91/68 40/92/69
f 31/84/51 22/90/50 32/95/70 41/91/71
f 32/16/53 33/17/52 43/13/72 42/12/73
f 33/17/55 34/26/54 44/18/74 43/13/75
f 34/76/57 35/69/56 45/74/76 44/77/77
f 35/69/59 36/68/58 46/73/78 45/74/79
f 36/68/61 37/72/60 47/75/80 46/73/81
f 37/42/63 38/43/62 48/36/82 47/33/83
f 38/43/65 39/50/64 49/44/84 48/36/85
f 39/99/67 40/92/66 50/97/86 49/100/87
f 40/92/69 41/91/68 51/96/88 50/97/89
f 41/91/71 32/95/70 42/98/90 51/96/91
f 42/12/73 43/13/72 53/14/92 52/15/93
f 43/13/75 44/18/74 54/19/94 53/14/95
f 44/113/77 45/114/76 55/115/96 54/116/97
f 45/40/79 46/32/78 56/35/98 55/41/99
f 46/32/81 47/33/80 57/34/100 56/35/101
f 47/33/83 48/36/82 58/37/102 57/34/103
f 48/36/85 49/44/84 59/45/104 58/37/105
f 49/119/87 50/120/86 60/121/106 59/122/107
f 50/120/89 51/123/88 61/124/108 60/121/109
f 51/22/91 42/12/90 52/15/110 61/23/111
f 52/15/93 53/14/92 63/20/112 62/21/113
f 53/14/95 54/19/94 64/27/114 63/20/115
f 54/116/97 55/115/96 65/117/116 64/118/117
f 55/41/99 56/35/98 66/39/118 65/47/119
f 56/35/101 57/34/100 67/38/120 66/39/121
f 57/34/103 58/37/102 68/46/122 67/38/123
f 58/37/105 59/45/104 69/51/124 68/46/125
f 59/122/107 60/121/106 70/125/126 69/126/127
f 60/121/109 61/124/108 71/127/128 70/125/129
f 61/23/111 52/15/110 62/21/130 71/28/131
