# This file uses centimeters as units for non-parametric coordinates.

mtllib Pillar_Window.mtl
g Pillar_Window:default1
v -1.168989 -0.118511 -1.472434
v -1.119344 -0.118511 0.757132
v -0.856248 7.905889 -2.057394
v -0.811437 7.905889 -0.184359
v -0.847200 8.292199 -1.987820
v -0.826529 8.228047 -0.967848
v -0.777838 21.760098 -2.168990
v -0.642021 21.556473 2.366391
v 0.590179 21.760098 -2.195997
v 0.725998 21.556473 2.339386
v 0.726414 8.292198 -2.018887
v 0.747087 8.228046 -0.998911
v 0.706832 7.905889 -2.088251
v 0.751642 7.905889 -0.215216
v 1.048641 -0.118511 -1.516214
v 1.098284 -0.118511 0.713354
v 0.762074 2.411757 0.279275
v 0.717265 2.411757 -1.593761
v -0.845814 2.411757 -1.562906
v -0.801007 2.411757 0.310133
v 1.094597 2.207355 0.538616
v 1.044955 2.207355 -1.690952
v -1.172675 2.207355 -1.647171
v -1.123030 2.207355 0.582394
v -0.844491 2.520993 -1.475263
v -0.809285 2.520993 -0.003727
v -0.820838 7.676314 -0.467682
v -0.854880 7.806163 -1.950937
v -0.833553 7.939772 -1.108389
v -0.849582 7.990672 -1.917727
v 0.717741 7.990850 -1.948635
v 0.734031 7.939954 -1.139347
v 0.738365 7.676467 -0.498460
v 0.707717 7.806183 -1.981783
v 0.753794 2.520993 -0.034584
v 0.718590 2.520993 -1.506118
v -1.135020 2.520995 -1.468454
v -1.099814 2.520995 0.003080
v -1.111352 7.678440 -0.460937
v -1.145394 7.808290 -1.944193
v -1.124054 7.944018 -1.101709
v -1.140082 7.994918 -1.911047
v 1.007968 7.977703 -1.955612
v 1.024258 7.926805 -1.146324
v 1.028745 7.669969 -0.505180
v 0.998098 7.799685 -1.988505
v 1.044330 2.521143 -0.041053
v 1.009127 2.521143 -1.512589
v -0.819503 -0.071426 0.747675
v 0.798242 -0.071426 0.715740
v 0.795130 1.908199 0.567012
v -0.822615 1.908199 0.598948
v -0.825408 -0.093907 0.448578
v 0.792337 -0.093907 0.416642
v 0.789226 1.885718 0.267914
v -0.828519 1.885718 0.299849
v -0.864059 14.883245 -2.088653
v -0.781873 14.748948 0.820421
v 0.791742 14.748948 0.789357
v 0.709557 14.883245 -2.119719
v -0.762847 15.017959 -2.079321
v -0.681732 14.886087 0.776127
v 0.686287 14.886087 0.749121
v 0.605171 15.017958 -2.106329
v -0.770176 18.314112 -2.123159
v -0.662318 18.147161 1.553589
v 0.705701 18.147161 1.526583
v 0.597842 18.314112 -2.150167
v -0.380053 15.177904 0.839777
v 0.388082 15.177904 0.824614
v 0.404022 17.855345 1.462933
v -0.364113 17.855345 1.478097
v -0.184068 15.434478 0.622154
v 0.184144 15.434478 0.614886
v 0.197768 17.722832 1.160444
v -0.170444 17.722832 1.167712
vt 0.588775 0.870753
vt 0.578840 0.787584
vt 0.873383 0.778999
vt 0.890726 0.861872
vt 0.892280 0.813506
vt 0.901212 0.858407
vt 0.210479 0.578658
vt 0.268831 0.576957
vt 0.699547 0.475269
vt 0.492671 0.445851
vt 0.966743 0.429247
vt 0.762504 0.473445
vt 0.362671 0.577681
vt 0.141495 0.520269
vt 0.905977 0.550463
vt 0.899099 0.595867
vt 0.882109 0.631328
vt 0.895825 0.547522
vt 0.587073 0.635761
vt 0.593361 0.551983
vt 0.281533 0.239535
vt 0.372973 0.239206
vt 0.356209 0.539710
vt 0.279751 0.532774
vt 0.465595 0.286308
vt 0.383598 0.221167
vt 0.480777 0.270555
vt 0.171185 0.262854
vt 0.272467 0.219491
vt 0.028329 0.144142
vt 0.402441 0.095723
vt 0.526076 0.139210
vt 0.134606 0.129783
vt 0.259770 0.092496
vt 0.578356 0.771054
vt 0.572354 0.872707
vt 0.888369 0.771706
vt 0.013281 0.379279
vt 0.891094 0.878405
vt 0.907697 0.808037
vt 0.906389 0.874157
vt 0.914645 0.600653
vt 0.922672 0.553455
vt 0.882743 0.647898
vt 0.168231 0.536335
vt 0.900146 0.531479
vt 0.570534 0.634492
vt 0.593109 0.535398
vt 0.142971 0.499791
vt 0.124701 0.263008
vt 0.387592 0.252412
vt 0.371982 0.533585
vt 0.419655 0.566671
vt 0.377079 0.564186
vt 0.036928 0.344089
vt 0.048576 0.336283
vt 0.255234 0.562361
vt 0.264262 0.526095
vt 0.192137 0.283090
vt 0.266237 0.251600
vt 0.576823 0.550714
vt 0.895950 0.530940
vt 0.910439 0.534524
vt 0.917398 0.854694
vt 0.896219 0.877426
vt 0.589264 0.887283
vt 0.149235 0.290191
vt 0.458221 0.289206
vt 0.420959 0.582021
vt 0.130097 0.492175
vt 0.037534 0.362847
vt 0.212435 0.563327
vt 0.185011 0.279624
vt 0.039258 0.125115
vt 0.278283 0.095119
vt 0.384004 0.097307
vt 0.371272 0.205436
vt 0.285256 0.204207
vt 0.290150 0.103978
vt 0.372884 0.106800
vt 0.362157 0.196542
vt 0.293484 0.193902
vt 0.554679 0.134245
vt 0.684988 0.151463
vt 0.754136 0.148759
vt 0.500499 0.928348
vt 0.553952 0.141902
vt 0.685022 0.158392
vt 0.754672 0.155897
vt 0.884278 0.130275
vt 0.524463 0.290361
vt 0.692171 0.314119
vt 0.758510 0.311666
vt 0.924148 0.276290
vt 0.699188 0.171695
vt 0.741451 0.169959
vt 0.745067 0.298216
vt 0.704658 0.299901
vt 0.713099 0.181844
vt 0.728480 0.181562
vt 0.731761 0.287930
vt 0.717001 0.288123
vt 0.872779 0.762473
vt 0.562419 0.789537
vt 0.587330 0.652346
vt 0.897434 0.637946
vt 0.882914 0.122606
vt 0.349446 0.950843
vt 0.267530 0.947919
vt 0.117363 0.919803
vn -0.999726 0.000010 0.023430
vn -0.999726 0.000010 0.023430
vn -0.999726 0.000010 0.023430
vn -0.999726 0.000010 0.023430
vn -0.999630 0.014543 0.022980
vn -0.999630 0.014543 0.022980
vn -0.999630 0.014543 0.022980
vn -0.999630 0.014543 0.022980
vn -0.999570 -0.001434 0.029287
vn -0.999569 -0.001438 0.029317
vn -0.999600 -0.001514 0.028231
vn -0.999600 -0.001514 0.028231
vn 0.999600 0.001514 -0.028231
vn 0.999600 0.001514 -0.028231
vn 0.999569 0.001438 -0.029317
vn 0.999570 0.001434 -0.029288
vn 0.998650 -0.046029 -0.024073
vn 0.998650 -0.046029 -0.024073
vn 0.998650 -0.046029 -0.024073
vn 0.998650 -0.046029 -0.024073
vn 0.999752 0.000545 -0.022257
vn 0.999752 0.000545 -0.022257
vn 0.999752 0.000545 -0.022257
vn 0.999752 0.000545 -0.022257
vn 0.019657 0.089661 0.995778
vn 0.019658 0.089661 0.995778
vn 0.019657 0.089661 0.995778
vn 0.019657 0.089661 0.995778
vn 0.007505 0.924892 0.380156
vn 0.007505 0.924892 0.380156
vn 0.007505 0.924892 0.380156
vn 0.007505 0.924892 0.380156
vn 0.019199 -0.231973 0.972533
vn 0.019199 -0.231973 0.972533
vn 0.019034 -0.264545 0.964185
vn 0.019034 -0.264545 0.964185
vn 0.528569 0.848803 -0.012169
vn 0.528569 0.848803 -0.012169
vn 0.528569 0.848803 -0.012169
vn 0.528569 0.848803 -0.012169
vn -0.530469 0.847616 0.012213
vn -0.530469 0.847616 0.012213
vn -0.530469 0.847616 0.012213
vn -0.530469 0.847616 0.012213
vn 0.012031 0.792769 0.609403
vn 0.012031 0.792769 0.609403
vn 0.012030 0.792769 0.609404
vn 0.012031 0.792769 0.609403
vn 0.999752 -0.000088 -0.022260
vn 0.999752 -0.000088 -0.022260
vn 0.999752 -0.000088 -0.022260
vn 0.999752 -0.000088 -0.022260
vn -0.999752 0.000088 0.022261
vn -0.999752 0.000088 0.022261
vn -0.999752 0.000088 0.022261
vn -0.999752 0.000088 0.022261
vn 0.019681 0.074934 0.996994
vn 0.019681 0.074934 0.996994
vn 0.019681 0.074934 0.996994
vn 0.019681 0.074934 0.996994
vn -0.999856 -0.002522 0.016799
vn -0.999571 0.000345 0.029297
vn -0.999588 -0.000458 0.028713
vn -0.999863 -0.002259 0.016386
vn -0.999571 0.000345 0.029297
vn -0.999584 0.002184 0.028745
vn -0.999583 0.002012 0.028823
vn -0.999588 -0.000458 0.028713
vn -0.999841 0.002514 0.017651
vn -0.999856 -0.002522 0.016799
vn -0.999863 -0.002259 0.016386
vn -0.999895 -0.000157 0.014521
vn -0.999584 0.002184 0.028745
vn -0.999602 -0.001372 0.028176
vn -0.999669 0.012758 0.022321
vn -0.999583 0.002012 0.028823
vn -0.999602 -0.001372 0.028176
vn -0.999601 -0.001431 0.028195
vn -0.999624 0.014269 0.023404
vn -0.999669 0.012758 0.022321
vn -0.999601 -0.001431 0.028195
vn -0.999841 0.002514 0.017651
vn -0.999895 -0.000157 0.014521
vn -0.999624 0.014269 0.023404
vn 0.999601 0.001316 -0.028205
vn 0.999603 0.001152 -0.028160
vn 0.999184 -0.034194 -0.021502
vn 0.999001 -0.035499 -0.027152
vn 0.999603 0.001152 -0.028160
vn 0.999417 -0.005571 -0.033696
vn 0.999411 -0.005059 -0.033935
vn 0.999184 -0.034194 -0.021502
vn 0.999815 -0.006255 -0.018207
vn 0.999601 0.001316 -0.028205
vn 0.999001 -0.035499 -0.027152
vn 0.999921 -0.000231 -0.012537
vn 0.999417 -0.005571 -0.033696
vn 0.999368 -0.000555 -0.035536
vn 0.999412 0.000272 -0.034276
vn 0.999411 -0.005059 -0.033935
vn 0.999368 -0.000555 -0.035536
vn 0.999883 0.002713 -0.015035
vn 0.999892 0.002461 -0.014519
vn 0.999412 0.000272 -0.034276
vn 0.999883 0.002713 -0.015035
vn 0.999815 -0.006255 -0.018207
vn 0.999921 -0.000231 -0.012537
vn 0.999892 0.002461 -0.014519
vn -0.000005 -1.000000 0.000001
vn -0.000005 -1.000000 0.000001
vn -0.000005 -1.000000 0.000001
vn -0.000005 -1.000000 0.000001
vn 0.023553 0.089648 0.995695
vn 0.023553 0.089648 0.995695
vn 0.023553 0.089648 0.995695
vn 0.023553 0.089648 0.995695
vn -0.023486 -0.080557 -0.996473
vn -0.023552 -0.089649 -0.995695
vn -0.023552 -0.089649 -0.995695
vn -0.023486 -0.080665 -0.996465
vn 0.018941 0.924297 0.381204
vn 0.017605 0.977067 0.212203
vn 0.017605 0.977076 0.212162
vn 0.018941 0.924297 0.381204
vn 0.017605 0.977067 0.212203
vn 0.016026 0.997920 0.062443
vn 0.016026 0.997920 0.062443
vn 0.017605 0.977076 0.212162
vn -0.020804 0.176532 -0.984075
vn -0.023486 -0.080557 -0.996473
vn -0.023486 -0.080665 -0.996465
vn -0.020804 0.176532 -0.984075
vn 0.046653 0.997000 0.061762
vn 0.044253 0.976941 0.208875
vn 0.044253 0.976939 0.208884
vn 0.046653 0.997000 0.061762
vn 0.044253 0.976941 0.208875
vn 0.040193 0.925940 0.375525
vn 0.040193 0.925940 0.375525
vn 0.044253 0.976939 0.208884
vn -0.023401 -0.080791 -0.996456
vn -0.017115 0.180030 -0.983512
vn -0.017115 0.180030 -0.983512
vn -0.023399 -0.080730 -0.996461
vn 0.023590 0.089742 0.995686
vn 0.023590 0.089742 0.995686
vn 0.023590 0.089742 0.995686
vn 0.023590 0.089742 0.995686
vn 0.000515 -1.000000 -0.000012
vn 0.000515 -1.000000 -0.000012
vn 0.000515 -1.000000 -0.000012
vn 0.000515 -1.000000 -0.000012
vn -0.023590 -0.089741 -0.995686
vn -0.023401 -0.080791 -0.996456
vn -0.023399 -0.080730 -0.996461
vn -0.023590 -0.089741 -0.995686
vn 0.019680 0.074933 0.996994
vn 0.019683 0.074934 0.996994
vn 0.019681 0.074934 0.996994
vn 0.019681 0.074934 0.996994
vn 0.019683 0.074934 0.996994
vn 0.019683 0.074933 0.996994
vn 0.019681 0.074934 0.996994
vn 0.019681 0.074934 0.996994
vn 0.019683 0.074933 0.996994
vn 0.019681 0.074933 0.996994
vn 0.019681 0.074934 0.996994
vn 0.019681 0.074934 0.996994
vn 0.019681 0.074933 0.996994
vn 0.019680 0.074933 0.996994
vn 0.019681 0.074934 0.996994
vn 0.019681 0.074934 0.996994
vn 0.019681 0.074934 0.996994
vn 0.019681 0.074934 0.996994
vn 0.019681 0.074934 0.996994
vn 0.019681 0.074934 0.996994
vn 0.019681 0.074934 0.996994
vn 0.019681 0.074934 0.996994
vn 0.019681 0.074934 0.996994
vn 0.019681 0.074934 0.996994
vn 0.019681 0.074934 0.996994
vn 0.019681 0.074934 0.996994
vn 0.019681 0.074934 0.996994
vn 0.019681 0.074934 0.996994
vn 0.019681 0.074934 0.996994
vn 0.019681 0.074934 0.996994
vn 0.019681 0.074934 0.996994
vn 0.019681 0.074934 0.996994
vn -0.999601 -0.001431 0.028195
vn -0.999602 -0.001372 0.028176
vn -0.999436 0.019775 0.027132
vn -0.999410 0.020989 0.027191
vn 0.019034 -0.264545 0.964185
vn 0.019034 -0.264545 0.964185
vn 0.019066 -0.258442 0.965839
vn 0.019066 -0.258344 0.965865
vn 0.999390 0.024288 -0.025100
vn 0.999424 0.022772 -0.025167
vn 0.999603 0.001152 -0.028160
vn 0.999601 0.001316 -0.028205
vn -0.999410 0.020989 0.027191
vn -0.999436 0.019775 0.027132
vn -0.999208 0.026042 0.030088
vn -0.999251 0.024417 0.030015
vn 0.019066 -0.258344 0.965865
vn 0.019066 -0.258442 0.965839
vn 0.018860 0.294806 0.955371
vn 0.018860 0.294806 0.955371
vn 0.999233 0.027775 -0.027605
vn 0.999180 0.029724 -0.027512
vn 0.999424 0.022772 -0.025167
vn 0.999390 0.024288 -0.025100
vn -0.999251 0.024417 0.030015
vn -0.999208 0.026042 0.030088
vn -0.999569 -0.001438 0.029317
vn -0.999570 -0.001434 0.029287
vn 0.019197 -0.231972 0.972533
vn 0.019197 -0.231972 0.972533
vn 0.019197 -0.231972 0.972533
vn 0.019197 -0.231972 0.972533
vn 0.999570 0.001434 -0.029288
vn 0.999569 0.001438 -0.029317
vn 0.999180 0.029724 -0.027512
vn 0.999233 0.027775 -0.027605
vn 0.019198 -0.231973 0.972533
vn 0.019200 -0.231973 0.972533
vn 0.019200 -0.231973 0.972533
vn 0.019198 -0.231973 0.972533
vn 0.019200 -0.231973 0.972533
vn 0.019199 -0.231973 0.972533
vn 0.019200 -0.231972 0.972533
vn 0.019200 -0.231973 0.972533
vn 0.019199 -0.231973 0.972533
vn 0.019199 -0.231973 0.972533
vn 0.019198 -0.231972 0.972533
vn 0.019200 -0.231972 0.972533
vn 0.019199 -0.231973 0.972533
vn 0.019198 -0.231973 0.972533
vn 0.019198 -0.231973 0.972533
vn 0.019198 -0.231972 0.972533
vn 0.015165 0.640010 0.768217
vn 0.015165 0.640010 0.768217
vn 0.015165 0.640010 0.768217
vn 0.015165 0.640010 0.768217
vn -0.789129 -0.137994 0.598525
vn -0.789129 -0.137994 0.598525
vn -0.789129 -0.137994 0.598525
vn -0.789129 -0.137994 0.598525
vn 0.007832 -0.917888 0.396763
vn 0.007832 -0.917888 0.396763
vn 0.007832 -0.917888 0.396763
vn 0.007832 -0.917888 0.396763
vn 0.812130 -0.139883 0.566461
vn 0.812130 -0.139883 0.566461
vn 0.812130 -0.139883 0.566461
vn 0.812130 -0.139883 0.566461
s off
g Pillar_Window:pCube4 Pillar_Window:polySurface2 Pillar_Window:textureEditorIsolateSelectSet Pillar_Window:polySurface1
usemtl Pillar_Window:initialShadingGroup
f 37/1/1 38/2/2 39/3/3 40/4/4
f 40/4/5 39/3/6 41/5/7 42/6/8
f 65/91/9 66/92/10 8/9/11 7/10/12
f 9/11/13 10/12/14 67/93/15 68/94/16
f 43/15/17 44/16/18 45/17/19 46/18/20
f 46/18/21 45/17/22 47/19/23 48/20/24
f 20/21/25 17/22/26 14/23/27 4/24/28
f 4/24/29 14/23/30 12/13/31 6/8/32
f 66/92/33 67/93/34 10/12/35 8/9/36
f 18/25/37 17/22/38 21/26/39 22/27/40
f 23/28/41 24/29/42 20/21/43 19/73/44
f 24/29/45 21/26/46 17/22/47 20/21/48
f 22/27/49 21/26/50 16/31/51 15/32/52
f 1/33/53 2/34/54 24/29/55 23/28/56
f 53/79/57 54/80/58 55/81/59 56/82/60
f 19/73/61 20/21/62 26/60/63 25/59/64
f 20/21/65 4/24/66 27/58/67 26/60/68
f 3/38/69 19/30/70 25/74/71 28/55/72
f 4/24/73 6/8/74 29/57/75 27/58/76
f 6/8/77 5/7/78 30/72/79 29/57/80
f 5/71/81 3/38/82 28/55/83 30/56/84
f 11/69/85 12/13/86 32/54/87 31/53/88
f 12/13/89 14/23/90 33/52/91 32/54/92
f 13/45/93 11/14/94 31/70/95 34/49/96
f 14/23/97 17/22/98 35/51/99 33/52/100
f 17/22/101 18/25/102 36/68/103 35/51/104
f 18/67/105 13/45/106 34/49/107 36/50/108
f 25/36/109 26/104/110 38/2/111 37/1/112
f 26/35/113 27/103/114 39/3/115 38/2/116
f 28/39/117 25/66/118 37/1/119 40/4/120
f 27/37/121 29/40/122 41/5/123 39/3/124
f 29/40/125 30/64/126 42/6/127 41/5/128
f 30/41/129 28/65/130 40/4/131 42/6/132
f 31/43/133 32/42/134 44/16/135 43/15/136
f 32/42/137 33/106/138 45/17/139 44/16/140
f 34/46/141 31/63/142 43/15/143 46/18/144
f 33/44/145 35/105/146 47/19/147 45/17/148
f 35/47/149 36/61/150 48/20/151 47/19/152
f 36/48/153 34/62/154 46/18/155 48/20/156
f 2/34/157 16/31/158 50/76/159 49/75/160
f 16/31/161 21/26/162 51/77/163 50/76/164
f 21/26/165 24/29/166 52/78/167 51/77/168
f 24/29/169 2/34/170 49/75/171 52/78/172
f 49/75/173 50/76/174 54/80/175 53/79/176
f 50/76/177 51/77/178 55/81/179 54/80/180
f 51/77/181 52/78/182 56/82/183 55/81/184
f 52/78/185 49/75/186 53/79/187 56/82/188
f 5/7/189 6/8/190 58/109/191 57/110/192
f 6/8/193 12/13/194 59/108/195 58/109/196
f 60/86/197 59/108/198 12/13/199 11/69/200
f 57/83/201 58/84/202 62/88/203 61/87/204
f 58/84/205 59/85/206 63/89/207 62/88/208
f 64/90/209 63/89/210 59/85/211 60/107/212
f 61/87/213 62/88/214 66/92/215 65/91/216
f 73/99/217 74/100/218 75/101/219 76/102/220
f 68/94/221 67/93/222 63/89/223 64/90/224
f 62/88/225 63/89/226 70/96/227 69/95/228
f 63/89/229 67/93/230 71/97/231 70/96/232
f 67/93/233 66/92/234 72/98/235 71/97/236
f 66/92/237 62/88/238 69/95/239 72/98/240
f 69/95/241 70/96/242 74/100/243 73/99/244
f 70/96/245 71/97/246 75/101/247 74/100/248
f 71/97/249 72/98/250 76/102/251 75/101/252
f 72/98/253 69/95/254 73/99/255 76/102/256
