# This file uses centimeters as units for non-parametric coordinates.

mtllib phone_low_poly.mtl
g phone_low_poly:default1
v -2.574398 10.811370 2.497188
v -1.997749 10.811370 2.497188
v -2.581284 11.085422 2.421386
v -2.004635 11.085422 2.421386
v -2.574398 11.800982 0.422356
v -1.997749 11.800982 0.422356
v -2.574398 11.668293 0.181815
v -1.997749 11.668293 0.181815
v -2.574398 11.267956 2.145064
v -1.997749 11.267956 2.145064
v -1.997749 11.027999 2.056256
v -2.574398 11.027999 2.056256
v -2.574398 11.548392 0.620966
v -1.997749 11.548392 0.620966
v -1.997749 11.788349 0.709775
v -2.574398 11.788349 0.709775
v -2.574398 11.593947 1.479532
v -1.997749 11.593947 1.479532
v -1.997749 11.353991 1.390724
v -2.574398 11.353991 1.390724
v -1.997749 10.832487 1.930304
v -2.574398 10.832487 1.930304
v -1.997749 10.615858 2.371236
v -2.574398 10.615858 2.371236
v -2.574398 11.446950 0.124162
v -1.997749 11.446950 0.124162
v -1.997749 11.327048 0.563313
v -2.574398 11.327048 0.563313
v -2.069830 10.805409 1.985420
v -2.502317 10.805409 1.985420
v -2.069830 10.642938 2.316120
v -2.502317 10.642938 2.316120
v -2.502317 11.431963 0.179056
v -2.069830 11.431963 0.179056
v -2.069830 11.342037 0.508419
v -2.502317 11.342037 0.508419
v -2.069745 10.805409 2.010009
v -2.502231 10.805409 2.010009
v -2.069745 10.642938 2.340708
v -2.502231 10.642938 2.340708
v -2.502231 11.436609 0.203202
v -2.069745 11.436609 0.203202
v -2.069745 11.346684 0.532565
v -2.502231 11.346684 0.532565
vt 0.563140 0.070951
vt 0.760305 0.072419
vt 0.757256 0.166102
vt 0.560091 0.164638
vt 0.566629 0.488965
vt 0.750613 0.490332
vt 0.761363 0.753003
vt 0.551975 0.751447
vt 0.557372 0.848154
vt 0.754533 0.849618
vt 0.753925 0.931860
vt 0.556759 0.930396
vt 0.276847 0.691055
vt 0.102302 0.691055
vt 0.102302 0.459929
vt 0.276847 0.459929
vt 0.828816 0.494025
vt 0.852271 0.756176
vt 0.461030 0.753271
vt 0.488379 0.491495
vt 0.766022 0.254578
vt 0.554719 0.253012
vt 0.877448 0.088385
vt 0.857944 0.250078
vt 0.799996 0.142114
vt 0.239627 0.190332
vt 0.140922 0.190332
vt 0.140922 0.111978
vt 0.239627 0.111978
vt 0.462874 0.247142
vt 0.445776 0.085180
vt 0.522422 0.140050
vt 0.230729 0.868201
vt 0.139864 0.868201
vt 0.139864 0.792769
vt 0.230729 0.792769
vt 0.862841 0.906720
vt 0.794982 0.845980
vt 0.448226 0.903641
vt 0.516981 0.843918
vt 0.102302 0.260098
vt 0.276847 0.260098
vt 0.102302 0.221922
vt 0.276847 0.221922
vt 0.952418 0.106388
vt 0.932913 0.268081
vt 0.102302 0.050635
vt 0.276847 0.050635
vt 0.276847 0.074459
vt 0.102302 0.074459
vt 0.387645 0.264029
vt 0.370547 0.102064
vt 0.276847 0.965276
vt 0.102302 0.965276
vt 0.102302 0.898278
vt 0.276847 0.898278
vt 0.927847 0.749977
vt 0.938413 0.900521
vt 0.276847 0.758053
vt 0.102302 0.758053
vt 0.372755 0.896324
vt 0.385558 0.745954
vt 0.124374 0.205378
vt 0.253991 0.205378
vt 0.124374 0.093754
vt 0.253991 0.093754
vt 0.120946 0.883380
vt 0.251867 0.883380
vt 0.120946 0.778312
vt 0.251867 0.778312
vn 0.000000 -0.102835 0.994698
vn 0.000000 -0.109617 0.993974
vn 0.000000 0.266587 0.963811
vn 0.000000 0.266587 0.963811
vn 0.000000 0.940115 0.340858
vn 0.000000 0.940115 0.340858
vn 0.000000 0.981358 0.192187
vn 0.000000 0.981358 0.192187
vn 0.000000 0.875613 -0.483014
vn 0.000000 0.875613 -0.483014
vn 0.000000 0.644213 -0.764846
vn 0.000000 0.644213 -0.764846
vn 0.000000 -0.969558 -0.244861
vn 0.000000 -0.969558 -0.244861
vn 0.000000 -0.940115 -0.340858
vn 0.000000 -0.940115 -0.340858
vn 1.000000 0.000000 0.000000
vn 1.000000 0.000000 0.000000
vn 1.000000 0.000000 0.000000
vn 1.000000 0.000000 0.000000
vn -1.000000 0.000000 0.000000
vn -1.000000 0.000000 0.000000
vn -1.000000 0.000000 0.000000
vn -1.000000 0.000000 0.000000
vn 0.000000 0.834387 0.551180
vn 0.000000 0.834387 0.551180
vn 0.000000 0.880108 0.474773
vn 0.000000 0.879763 0.475412
vn 0.999976 0.004195 0.005439
vn 0.999986 0.003245 0.004208
vn 0.999982 0.003690 0.004784
vn 0.999775 0.012968 0.016815
vn 0.000000 -0.909445 -0.415824
vn 0.000000 -0.909397 -0.415929
vn 0.000000 -0.897529 -0.440955
vn 0.000000 -0.897529 -0.440955
vn -0.999982 -0.003690 -0.004785
vn -0.999986 -0.003245 -0.004208
vn -0.999976 -0.004195 -0.005439
vn -0.999775 -0.012969 -0.016815
vn 0.000000 -0.972128 -0.234450
vn 0.000000 -0.972099 -0.234571
vn 0.000000 -0.964690 -0.263389
vn 0.000000 -0.964690 -0.263389
vn 1.000000 0.000000 0.000000
vn 1.000000 0.000000 0.000000
vn 1.000000 0.000000 0.000000
vn 1.000000 0.000000 0.000000
vn 0.000000 0.981358 0.192187
vn 0.000000 0.981358 0.192187
vn 0.000000 0.999035 0.043913
vn 0.000000 0.999035 0.043913
vn -1.000000 0.000000 0.000000
vn -1.000000 0.000000 0.000000
vn -1.000000 0.000000 0.000000
vn -1.000000 0.000000 0.000000
vn 0.000000 0.879763 0.475412
vn 0.000000 0.880108 0.474773
vn 0.000000 0.940115 0.340858
vn 0.000000 0.940115 0.340858
vn 0.999982 0.003690 0.004784
vn 0.999986 0.003245 0.004208
vn 1.000000 0.000000 0.000000
vn 1.000000 0.000000 0.000000
vn 0.000000 -0.940115 -0.340858
vn 0.000000 -0.940115 -0.340858
vn 0.000000 -0.898054 -0.439886
vn 0.000000 -0.898054 -0.439886
vn -1.000000 0.000000 0.000000
vn -1.000000 0.000000 0.000000
vn -0.999986 -0.003245 -0.004208
vn -0.999982 -0.003690 -0.004785
vn 0.000000 0.541566 -0.840658
vn 0.000000 0.541566 -0.840658
vn 0.000000 0.541566 -0.840658
vn 0.000000 0.541566 -0.840658
vn 0.999986 0.003245 0.004208
vn 0.999976 0.004195 0.005439
vn 1.000000 0.000000 0.000000
vn 1.000000 0.000000 0.000000
vn 0.000000 -0.109617 0.993974
vn 0.000000 -0.102835 0.994698
vn 0.000000 -0.541565 0.840659
vn 0.000000 -0.541565 0.840659
vn -0.999976 -0.004195 -0.005439
vn -0.999986 -0.003245 -0.004208
vn -1.000000 0.000001 0.000000
vn -1.000000 0.000001 0.000000
vn 0.000000 0.644213 -0.764846
vn 0.000000 0.644213 -0.764846
vn 0.000000 0.252059 -0.967712
vn 0.000000 0.252059 -0.967712
vn 1.000000 0.000000 0.000000
vn 1.000000 0.000000 0.000000
vn 1.000000 0.000000 0.000000
vn 1.000000 0.000000 0.000000
vn 0.000000 -0.252057 0.967712
vn 0.000000 -0.252057 0.967712
vn 0.000000 -0.252057 0.967712
vn 0.000000 -0.252057 0.967712
vn -1.000000 0.000000 0.000000
vn -1.000000 0.000000 0.000000
vn -1.000000 0.000001 0.000000
vn -1.000000 0.000001 0.000000
vn 0.000006 -0.897535 -0.440944
vn -0.000007 -0.897535 -0.440944
vn -0.000005 -0.916785 -0.399380
vn 0.000005 -0.916712 -0.399550
vn -0.000007 -0.897535 -0.440944
vn -0.000007 -0.897527 -0.440960
vn -0.000006 -0.897527 -0.440960
vn -0.000005 -0.916785 -0.399380
vn -0.000007 -0.897527 -0.440960
vn 0.000006 -0.897527 -0.440960
vn 0.000005 -0.897526 -0.440961
vn -0.000006 -0.897527 -0.440960
vn 0.000006 -0.897527 -0.440960
vn 0.000006 -0.897535 -0.440944
vn 0.000005 -0.916712 -0.399550
vn 0.000005 -0.897526 -0.440961
vn 0.000007 -0.964693 -0.263377
vn -0.000007 -0.964693 -0.263378
vn -0.000005 -0.976450 -0.215744
vn 0.000005 -0.976408 -0.215935
vn -0.000007 -0.964693 -0.263378
vn -0.000007 -0.964688 -0.263396
vn -0.000006 -0.964687 -0.263398
vn -0.000005 -0.976450 -0.215744
vn -0.000007 -0.964688 -0.263396
vn 0.000007 -0.964688 -0.263396
vn 0.000006 -0.964687 -0.263397
vn -0.000006 -0.964687 -0.263398
vn 0.000007 -0.964688 -0.263396
vn 0.000007 -0.964693 -0.263377
vn 0.000005 -0.976408 -0.215935
vn 0.000006 -0.964687 -0.263397
vn 0.000005 -0.916712 -0.399550
vn -0.000005 -0.916785 -0.399380
vn 0.000000 -0.909397 -0.415929
vn 0.000000 -0.909445 -0.415824
vn -0.999969 0.007102 0.003491
vn -0.999969 0.007102 0.003491
vn -0.999969 0.007102 0.003491
vn -0.999969 0.007102 0.003491
vn 0.000000 1.000000 -0.000012
vn 0.000000 1.000000 -0.000012
vn 0.000000 1.000000 -0.000012
vn 0.000000 1.000000 -0.000012
vn 0.999969 -0.007105 -0.003491
vn 0.999969 -0.007105 -0.003491
vn 0.999969 -0.007105 -0.003491
vn 0.999969 -0.007105 -0.003491
vn 0.000005 -0.976408 -0.215935
vn -0.000005 -0.976450 -0.215744
vn 0.000000 -0.972099 -0.234571
vn 0.000000 -0.972128 -0.234450
vn -0.999969 0.007636 0.002085
vn -0.999969 0.007636 0.002085
vn -0.999969 0.007636 0.002085
vn -0.999969 0.007636 0.002085
vn 0.000000 0.981986 -0.188956
vn 0.000000 0.981986 -0.188956
vn 0.000000 0.981986 -0.188956
vn 0.000000 0.981986 -0.188956
vn 0.999969 -0.007637 -0.002085
vn 0.999969 -0.007637 -0.002085
vn 0.999969 -0.007637 -0.002085
vn 0.999969 -0.007637 -0.002085
s off
g phone_low_poly:pCube3 phone_low_poly:polySurface3 phone_low_poly:polySurface4 phone_low_poly:polySurface1
usemtl phone_low_poly:initialShadingGroup
f 1/1/1 2/2/2 4/3/3 3/4/4
f 17/5/5 18/6/6 15/7/7 16/8/8
f 5/9/9 6/10/10 8/11/11 7/12/12
f 13/13/13 14/14/14 19/15/15 20/16/16
f 18/6/17 19/17/18 14/18/19 15/7/20
f 16/8/21 13/19/22 20/20/23 17/5/24
f 3/4/25 4/3/26 10/21/27 9/22/28
f 2/23/29 11/24/30 10/21/31 4/25/32
f 38/26/33 37/27/34 39/28/35 40/29/36
f 9/22/37 12/30/38 1/31/39 3/32/40
f 41/33/41 42/34/42 43/35/43 44/36/44
f 15/7/45 14/18/46 8/37/47 6/38/48
f 16/8/49 15/7/50 6/10/51 5/9/52
f 7/39/53 13/19/54 16/8/55 5/40/56
f 9/22/57 10/21/58 18/6/59 17/5/60
f 10/21/61 11/24/62 19/17/63 18/6/64
f 20/16/65 19/15/66 11/41/67 12/42/68
f 17/5/69 20/20/70 12/30/71 9/22/72
f 12/42/73 11/41/74 21/43/75 22/44/76
f 11/24/77 2/23/78 23/45/79 21/46/80
f 2/47/81 1/48/82 24/49/83 23/50/84
f 1/31/85 12/30/86 22/51/87 24/52/88
f 7/53/89 8/54/90 26/55/91 25/56/92
f 8/37/93 14/18/94 27/57/95 26/58/96
f 14/14/97 13/13/98 28/59/99 27/60/100
f 13/19/101 7/39/102 25/61/103 28/62/104
f 22/44/105 21/43/106 29/63/107 30/64/108
f 21/43/109 23/50/110 31/65/111 29/63/112
f 23/50/113 24/49/114 32/66/115 31/65/116
f 24/49/117 22/44/118 30/64/119 32/66/120
f 25/56/121 26/55/122 34/67/123 33/68/124
f 26/55/125 27/60/126 35/69/127 34/67/128
f 27/60/129 28/59/130 36/70/131 35/69/132
f 28/59/133 25/56/134 33/68/135 36/70/136
f 30/64/137 29/63/138 37/27/139 38/26/140
f 29/63/141 31/65/142 39/28/143 37/27/144
f 31/65/145 32/66/146 40/29/147 39/28/148
f 32/66/149 30/64/150 38/26/151 40/29/152
f 33/68/153 34/67/154 42/34/155 41/33/156
f 34/67/157 35/69/158 43/35/159 42/34/160
f 35/69/161 36/70/162 44/36/163 43/35/164
f 36/70/165 33/68/166 41/33/167 44/36/168
