# This file uses centimeters as units for non-parametric coordinates.

mtllib WindowLP.mtl
g default
v 2.828485 9.977554 -9.477536
v 2.705723 10.330459 -9.097035
v 2.341924 8.896019 -7.884430
v 2.461230 8.561365 -8.253271
v 2.705723 3.289434 -9.097035
v 2.828485 4.003741 -9.477536
v 2.461230 5.018208 -8.253271
v 2.341925 4.683553 -7.884429
v 3.047429 10.336600 -8.988622
v 2.984069 8.902026 -7.553587
v 3.104499 8.563438 -7.925888
v 3.171341 9.979673 -9.372660
v 3.171341 4.001622 -9.372659
v 3.104499 5.016135 -7.925888
v 2.984070 4.677547 -7.553588
v 3.047429 3.283292 -8.988622
v 3.109094 9.290121 -7.969868
v 3.229824 8.947317 -8.343481
v 3.229824 4.632258 -8.343481
v 3.109094 4.289453 -7.969868
v 2.956895 9.313127 -8.029235
v 3.074065 8.979578 -8.391930
v 3.074066 4.599998 -8.391930
v 2.956895 4.266448 -8.029234
v 2.886309 9.646839 -8.489218
v 3.005038 9.306210 -8.857038
v 3.005039 4.300665 -8.877108
v 2.886309 3.960034 -8.509288
v 3.204747 9.286406 -8.817163
v 3.085284 9.628825 -8.447104
v 3.085284 3.978047 -8.467174
v 3.204748 4.320469 -8.837232
v -2.624655 9.919298 7.413875
v -2.501892 10.272202 7.033374
v -2.088807 8.896019 5.848507
v -2.207562 8.561365 6.217527
v -2.501892 3.325341 7.102092
v -2.624655 3.678246 7.482592
v -2.207562 5.018208 6.217527
v -2.088807 4.683553 5.848507
v -2.161257 10.278344 7.145108
v -1.374389 8.902026 5.955338
v -1.494253 8.563438 6.327823
v -2.285156 9.921417 7.529151
v -2.285156 3.676127 7.597870
v -1.494253 5.016135 6.327823
v -1.374388 4.677547 5.955339
v -2.161258 3.319199 7.213826
v -1.516228 9.290121 6.366196
v -1.636617 8.947317 6.739922
v -1.636617 4.632258 6.739922
v -1.516228 4.289453 6.366197
v -1.674425 9.313127 6.325418
v -1.791320 8.979578 6.688204
v -1.791319 4.599998 6.688204
v -1.674424 4.266448 6.325418
v -2.000532 9.646839 6.657416
v -2.119158 9.306210 7.025271
v -2.119157 4.273368 7.025272
v -2.000531 3.932737 6.657417
v -1.933801 9.286406 7.109632
v -1.814463 9.628825 6.739531
v -1.814463 3.950751 6.739531
v -1.933800 4.293172 7.109632
vt 0.170060 0.740161
vt 0.148872 0.726562
vt 0.132321 0.741052
vt 0.148852 0.759981
vt 0.144013 0.933970
vt 0.126705 0.952091
vt 0.144052 0.968449
vt 0.166731 0.955876
vt 0.136265 0.063605
vt 0.131326 0.050146
vt 0.180875 0.763165
vt 0.169556 0.774483
vt 0.109387 0.069033
vt 0.122101 0.076412
vt 0.165833 0.919282
vt 0.119906 0.328375
vt 0.106848 0.334180
vt 0.178382 0.931546
vt 0.130935 0.366608
vt 0.137202 0.353376
vt 0.146155 0.719928
vt 0.126804 0.736187
vt 0.120929 0.956634
vt 0.141209 0.975054
vt 0.128200 0.407728
vt 0.129777 0.416327
vt 0.114427 0.429731
vt 0.107314 0.424521
vt 0.119627 0.654071
vt 0.112774 0.659608
vt 0.135599 0.666669
vt 0.134404 0.675340
vt 0.157106 0.091450
vt 0.141103 0.104606
vt 0.139824 0.313816
vt 0.155905 0.326481
vt 0.148519 0.429846
vt 0.132295 0.444103
vt 0.154492 0.653291
vt 0.137541 0.639870
vt 0.829161 0.710875
vt 0.806564 0.723420
vt 0.846304 0.727242
vt 0.828962 0.745312
vt 0.841480 0.938450
vt 0.825003 0.919473
vt 0.824718 0.952910
vt 0.803461 0.939262
vt 0.841956 0.053874
vt 0.836837 0.067303
vt 0.795272 0.747766
vt 0.807840 0.759955
vt 0.863198 0.072586
vt 0.851131 0.079974
vt 0.803693 0.904841
vt 0.866378 0.348202
vt 0.854043 0.341857
vt 0.792437 0.916196
vt 0.844699 0.367718
vt 0.839279 0.353962
vt 0.832036 0.704284
vt 0.852093 0.722713
vt 0.846980 0.943330
vt 0.827405 0.959556
vt 0.833070 0.388615
vt 0.854841 0.404255
vt 0.848020 0.409842
vt 0.831963 0.397286
vt 0.861292 0.640537
vt 0.854176 0.635330
vt 0.840407 0.657342
vt 0.838828 0.648744
vt 0.832409 0.105922
vt 0.816466 0.092859
vt 0.832675 0.316061
vt 0.816909 0.329223
vt 0.830956 0.425161
vt 0.813983 0.411802
vt 0.820081 0.635228
vt 0.836301 0.620966
vn 0.983566 0.136183 -0.118538
vn 0.957795 -0.000010 0.287453
vn 0.956217 -0.006027 0.292597
vn 0.983567 -0.136184 -0.118537
vn 0.845718 0.500870 0.184093
vn 0.952185 0.019783 0.304882
vn 0.956217 0.006028 0.292597
vn 0.983566 0.136183 -0.118538
vn 0.983567 -0.136184 -0.118537
vn 0.956217 -0.006027 0.292597
vn 0.952184 -0.019784 0.304883
vn 0.845718 -0.500871 0.184092
vn -0.452441 -0.002725 0.891790
vn -0.451526 0.000516 0.892258
vn -0.452439 0.002725 0.891791
vn -0.452439 0.002725 0.891791
vn 0.287449 0.000000 -0.957796
vn 0.289978 0.000585 -0.957033
vn 0.288555 -0.000340 -0.957463
vn 0.289981 -0.000779 -0.957032
vn 0.188738 0.749290 -0.634777
vn 0.188738 0.749290 -0.634777
vn 0.188738 0.749290 -0.634777
vn 0.188738 0.749290 -0.634777
vn -0.296315 -0.752709 0.587901
vn -0.296315 -0.752709 0.587901
vn -0.296315 -0.752709 0.587901
vn -0.296315 -0.752709 0.587901
vn 0.254083 -0.489049 -0.834430
vn 0.254083 -0.489049 -0.834430
vn 0.254083 -0.489049 -0.834430
vn 0.254083 -0.489049 -0.834430
vn -0.296317 0.752708 0.587900
vn -0.296317 0.752708 0.587900
vn -0.296317 0.752708 0.587901
vn -0.296317 0.752708 0.587901
vn 0.930379 0.262627 0.255777
vn 0.845718 0.500870 0.184093
vn 0.983566 0.136183 -0.118538
vn 0.990082 0.081233 0.114626
vn 0.990082 0.081233 0.114626
vn 0.995694 -0.000385 -0.092703
vn 0.983567 -0.136184 -0.118537
vn 0.990433 -0.087289 0.106878
vn 0.990433 -0.087289 0.106878
vn 0.983567 -0.136184 -0.118537
vn 0.845718 -0.500871 0.184092
vn 0.927872 -0.275272 0.251552
vn 0.882085 0.375935 0.283900
vn 0.845718 0.500870 0.184093
vn 0.845753 0.458640 0.272673
vn 0.904432 0.262628 0.336199
vn 0.941851 0.183667 0.281396
vn 0.748236 0.649165 0.136851
vn 0.956708 0.138112 -0.256194
vn 0.988696 0.054918 0.139514
vn 0.988696 0.054918 0.139514
vn 0.984456 0.002057 -0.175618
vn 0.957267 -0.136018 -0.255222
vn 0.990523 -0.060314 0.123399
vn 0.990523 -0.060314 0.123399
vn 0.957267 -0.136018 -0.255222
vn 0.733890 -0.668629 0.119754
vn 0.941653 -0.189529 0.278152
vn 0.748236 0.649165 0.136851
vn 0.918768 0.260505 0.296653
vn 0.926749 0.191491 0.323214
vn 0.687130 0.649165 0.326249
vn 0.951684 -0.000027 0.307079
vn 0.941851 0.183667 0.281396
vn 0.988696 0.054918 0.139514
vn 0.951702 0.000032 0.307024
vn 0.951702 0.000032 0.307024
vn 0.999317 0.001436 -0.036926
vn 0.990523 -0.060314 0.123399
vn 0.949561 0.001520 0.313579
vn 0.949561 0.001520 0.313579
vn 0.990523 -0.060314 0.123399
vn 0.941653 -0.189529 0.278152
vn 0.951382 0.005310 0.307968
vn 0.941851 0.183667 0.281396
vn 0.951712 -0.000951 0.306990
vn 0.951303 0.002270 0.308248
vn 0.926749 0.191491 0.323214
vn 0.748236 0.649165 0.136851
vn 0.930379 0.262627 0.255777
vn 0.990082 0.081233 0.114626
vn 0.956708 0.138112 -0.256194
vn 0.810044 -0.525093 0.260972
vn 0.733890 -0.668629 0.119754
vn 0.852590 -0.444568 0.274682
vn 0.904432 -0.262629 0.336198
vn 0.957267 -0.136018 -0.255222
vn 0.990433 -0.087289 0.106878
vn 0.927872 -0.275272 0.251552
vn 0.733890 -0.668629 0.119754
vn 0.999263 -0.001313 -0.038357
vn 0.990433 -0.087289 0.106878
vn 0.957267 -0.136018 -0.255222
vn 0.956708 0.138112 -0.256194
vn 0.793842 0.500867 0.344886
vn 0.951698 0.019645 0.306406
vn 0.952185 0.019783 0.304882
vn 0.882014 0.376132 0.283860
vn 0.946918 0.006027 0.321420
vn 0.753769 -0.000385 0.657140
vn 0.728830 -0.136182 0.671015
vn 0.946917 -0.006026 0.321421
vn 0.950825 -0.019782 0.309096
vn 0.882084 -0.375936 0.283900
vn 0.845718 -0.500871 0.184092
vn 0.951729 -0.018290 0.306396
vn 0.793842 0.500867 0.344886
vn 0.728830 0.136184 0.671015
vn 0.946918 0.006027 0.321420
vn 0.950825 0.019783 0.309095
vn 0.728830 -0.136182 0.671015
vn 0.793841 -0.500870 0.344887
vn 0.950825 -0.019782 0.309096
vn 0.946917 -0.006026 0.321421
vn -0.024141 0.999662 0.009669
vn -0.029520 0.999164 0.028288
vn -0.018441 0.999811 -0.006089
vn -0.014392 0.999726 -0.018460
vn 0.009170 -0.999956 0.002151
vn 0.009189 -0.999954 0.002841
vn 0.008697 -0.999956 0.003614
vn 0.008552 -0.999959 0.002890
vn 0.155316 0.000000 -0.987865
vn 0.154065 -0.002725 -0.988057
vn 0.155079 0.000517 -0.987902
vn 0.154066 0.002725 -0.988057
vn -0.324032 0.006937 0.946021
vn -0.325192 0.017337 0.945489
vn -0.323725 0.035095 0.945500
vn -0.323725 0.035095 0.945500
vn 0.009467 0.999951 0.002900
vn 0.009169 0.999956 0.002150
vn 0.009006 0.999955 0.003031
vn 0.008696 0.999956 0.003614
vn -0.022779 -0.999712 0.007523
vn -0.018524 -0.999811 -0.005837
vn -0.018310 -0.999813 -0.006232
vn -0.017394 -0.999832 -0.005761
vn -0.217839 0.749290 0.625388
vn -0.217838 0.749290 0.625388
vn -0.217838 0.749290 0.625388
vn -0.217838 0.749290 0.625388
vn 0.103145 -0.752709 -0.650223
vn 0.103145 -0.752709 -0.650223
vn 0.103145 -0.752709 -0.650223
vn 0.103145 -0.752709 -0.650223
vn -0.217839 -0.749289 0.625390
vn -0.217839 -0.749289 0.625390
vn -0.217839 -0.749289 0.625390
vn -0.217839 -0.749289 0.625390
vn 0.103145 0.752708 -0.650224
vn 0.103145 0.752708 -0.650224
vn 0.103145 0.752708 -0.650224
vn 0.103145 0.752708 -0.650224
vn 0.904432 0.262628 0.336199
vn 0.870385 0.081232 0.485625
vn 0.728830 0.136184 0.671015
vn 0.793842 0.500867 0.344886
vn 0.728830 0.136184 0.671015
vn 0.789307 -0.000232 0.613998
vn 0.870384 -0.081232 0.485626
vn 0.728830 -0.136182 0.671015
vn 0.870384 -0.081232 0.485626
vn 0.904432 -0.262629 0.336198
vn 0.793841 -0.500870 0.344887
vn 0.728830 -0.136182 0.671015
vn 0.793841 -0.500870 0.344887
vn 0.851227 -0.447434 0.274255
vn 0.927872 -0.275272 0.251552
vn 0.882014 -0.376131 0.283860
vn 0.926749 0.191491 0.323214
vn 0.878966 0.059017 0.473218
vn 0.626583 0.138111 0.767019
vn 0.687130 0.649165 0.326249
vn 0.626583 0.138111 0.767019
vn 0.805290 0.002557 0.592875
vn 0.888575 -0.046448 0.456374
vn 0.626585 -0.138111 0.767018
vn 0.888575 -0.046448 0.456374
vn 0.930205 -0.182575 0.318410
vn 0.687129 -0.649166 0.326248
vn 0.626585 -0.138111 0.767018
vn 0.811247 -0.523046 0.261347
vn 0.687129 -0.649166 0.326248
vn 0.911724 -0.286908 0.294011
vn 0.941653 -0.189529 0.278152
vn 0.951303 0.002270 0.308248
vn 0.950931 0.002265 0.309394
vn 0.878966 0.059017 0.473218
vn 0.926749 0.191491 0.323214
vn 0.878966 0.059017 0.473218
vn 0.953507 0.003493 0.301349
vn 0.955532 0.011778 0.294651
vn 0.888575 -0.046448 0.456374
vn 0.955532 0.011778 0.294651
vn 0.953887 0.013361 0.299867
vn 0.930205 -0.182575 0.318410
vn 0.888575 -0.046448 0.456374
vn 0.930205 -0.182575 0.318410
vn 0.951712 0.000738 0.306992
vn 0.951382 0.005310 0.307968
vn 0.911598 -0.287358 0.293964
vn 0.687130 0.649165 0.326249
vn 0.626583 0.138111 0.767019
vn 0.870385 0.081232 0.485625
vn 0.904432 0.262628 0.336199
vn 0.803762 0.535482 0.259278
vn 0.687130 0.649165 0.326249
vn 0.904432 0.262628 0.336199
vn 0.930379 0.262627 0.255777
vn 0.626585 -0.138111 0.767018
vn 0.687129 -0.649166 0.326248
vn 0.904432 -0.262629 0.336198
vn 0.870384 -0.081232 0.485626
vn 0.692082 -0.000346 0.721819
vn 0.626585 -0.138111 0.767018
vn 0.870384 -0.081232 0.485626
vn 0.870385 0.081232 0.485625
s off
g pPlane3
usemtl initialShadingGroup
f 18/3/1 11/4/2 14/5/3 19/6/4
f 17/2/5 10/1/6 11/4/7 18/3/8
f 19/6/9 14/5/10 15/8/11 20/7/12
f 11/4/13 4/12/14 7/15/15 14/5/16
f 6/17/17 1/13/18 12/14/19 13/16/20
f 2/10/21 9/9/22 12/14/23 1/13/24
f 4/12/25 11/4/26 10/1/27 3/11/28
f 6/17/29 13/16/30 16/20/31 5/19/32
f 8/18/33 15/8/34 14/5/35 7/15/36
f 21/21/37 17/2/38 18/3/39 22/22/40
f 22/22/41 18/3/42 19/6/43 23/23/44
f 23/23/45 19/6/46 20/7/47 24/24/48
f 49/41/49 17/2/50 21/21/51 53/61/52
f 25/25/53 30/26/54 29/27/55 26/28/56
f 26/28/57 29/27/58 32/29/59 27/30/60
f 27/30/61 32/29/62 31/31/63 28/32/64
f 30/26/65 25/25/66 57/65/67 62/68/68
f 9/9/69 25/33/70 26/34/71 12/14/72
f 12/14/73 26/34/74 27/35/75 13/16/76
f 13/16/77 27/35/78 28/36/79 16/20/80
f 25/33/81 9/9/82 41/50/83 57/74/84
f 30/26/85 21/37/86 22/38/87 29/27/88
f 63/72/89 31/31/90 24/39/91 56/79/92
f 32/29/93 23/40/94 24/39/95 31/31/96
f 22/38/97 23/40/98 32/29/99 29/27/100
f 49/41/101 42/42/102 10/1/103 17/2/104
f 43/44/105 50/43/106 51/45/107 46/46/108
f 47/48/109 52/47/110 20/7/111 15/8/112
f 49/41/113 50/43/114 43/44/115 42/42/116
f 51/45/117 52/47/118 47/48/119 46/46/120
f 2/10/121 34/49/122 41/50/123 9/9/124
f 42/42/125 35/51/126 3/11/127 10/1/128
f 39/55/129 36/52/130 43/44/131 46/46/132
f 44/54/133 33/53/134 38/56/135 45/57/136
f 8/18/137 40/58/138 47/48/139 15/8/140
f 48/60/141 37/59/142 5/19/143 16/20/144
f 34/49/145 33/53/146 44/54/147 41/50/148
f 36/52/149 35/51/150 42/42/151 43/44/152
f 38/56/153 37/59/154 48/60/155 45/57/156
f 40/58/157 39/55/158 46/46/159 47/48/160
f 53/61/161 54/62/162 50/43/163 49/41/164
f 50/43/165 54/62/166 55/63/167 51/45/168
f 55/63/169 56/64/170 52/47/171 51/45/172
f 52/47/173 56/64/174 24/24/175 20/7/176
f 57/65/177 58/66/178 61/67/179 62/68/180
f 61/67/181 58/66/182 59/69/183 64/70/184
f 59/69/185 60/71/186 63/72/187 64/70/188
f 31/31/189 63/72/190 60/71/191 28/32/192
f 41/50/193 44/54/194 58/73/195 57/74/196
f 58/73/197 44/54/198 45/57/199 59/75/200
f 45/57/201 48/60/202 60/76/203 59/75/204
f 60/76/205 48/60/206 16/20/207 28/36/208
f 62/68/209 61/67/210 54/77/211 53/78/212
f 30/26/213 62/68/214 53/78/215 21/37/216
f 64/70/217 63/72/218 56/79/219 55/80/220
f 61/67/221 64/70/222 55/80/223 54/77/224
