# This file uses centimeters as units for non-parametric coordinates.

mtllib Office_Phone_LP.mtl
g default
v -1.694800 0.015029 2.038398
v 1.727829 0.015029 2.038398
v -1.694800 0.668417 2.038398
v 1.727829 0.530798 2.038398
v -1.694801 1.158847 -2.371286
v 1.727829 1.021229 -2.371286
v -1.694800 0.015029 -2.652960
v 1.727829 0.015029 -2.652960
v -0.250379 0.668417 2.038398
v -0.250379 1.158847 -2.371286
v -0.250379 0.015029 -2.652960
v -0.250379 0.015029 2.038398
v 1.257916 0.530798 2.038398
v 1.257916 1.021229 -2.371286
v 1.257916 0.015029 -2.652960
v 1.257916 0.015029 2.038398
v 1.257916 0.860238 -0.923890
v -0.250379 0.997857 -0.923890
v -1.694801 0.997857 -0.923890
v -1.694800 0.015029 -0.934890
v -0.250379 0.015029 -0.934890
v 1.257916 0.015029 -0.934890
v 1.727829 0.015029 -0.934890
v 1.727829 0.860238 -0.923890
v 1.257916 0.656557 0.899861
v -0.250379 0.794176 0.899861
v -1.694800 0.794176 0.899861
v -1.694800 0.015029 0.890940
v -0.250379 0.015029 0.890940
v 1.257916 0.015029 0.890940
v 1.727829 0.015029 0.890940
v 1.727829 0.656557 0.899861
v -1.594800 0.679395 1.939003
v -0.350379 0.679395 1.939003
v -0.350379 0.774089 1.050869
v -1.594800 0.774089 1.050869
v -0.350379 1.015406 -1.086056
v -1.594801 1.015406 -1.086056
v -0.350379 1.145628 -2.250251
v -1.594801 1.145628 -2.250251
v -1.594800 0.238527 1.843035
v -0.350379 0.238527 1.843035
v -0.350379 0.430372 0.997406
v -1.594800 0.430372 0.997406
v -0.350379 0.695480 -1.119001
v -1.594801 0.695480 -1.119001
v -0.350379 0.825702 -2.285361
v -1.594801 0.825702 -2.285361
vt 0.122217 0.365921
vt 0.387993 0.280296
vt 0.378865 0.436940
vt 0.267242 0.433776
vt 0.765421 0.636700
vt 0.910176 0.710405
vt 0.858661 0.811580
vt 0.713906 0.737875
vt 0.268818 0.714014
vt 0.378809 0.704751
vt 0.400782 0.012217
vt 0.288746 0.006913
vt 0.279136 0.209535
vt 0.391233 0.214943
vt 0.541107 0.289713
vt 0.676873 0.422875
vt 0.535717 0.491152
vt 0.534706 0.418077
vt 0.266987 0.506058
vt 0.498137 0.416718
vt 0.499543 0.491080
vt 0.379324 0.506656
vt 0.499914 0.705998
vt 0.517781 0.018008
vt 0.508006 0.221593
vt 0.504690 0.287954
vt 0.536687 0.701939
vt 0.554207 0.019731
vt 0.379826 0.619152
vt 0.500245 0.609243
vt 0.614820 0.139219
vt 0.726589 0.097557
vt 0.758553 0.183305
vt 0.646784 0.224968
vt 0.284149 0.105245
vt 0.267507 0.621472
vt 0.396173 0.110587
vt 0.513131 0.116546
vt 0.722591 0.517440
vt 0.536264 0.608888
vt 0.977843 0.879059
vt 0.847875 0.474760
vt 0.794418 0.937753
vt 0.577145 0.774530
vt 0.823129 0.103717
vt 0.581032 0.048575
vt 0.792342 0.273953
vt 0.577722 0.292711
vt 0.544427 0.223366
vt 0.648178 0.363520
vt 0.094181 0.425507
vt 0.275828 0.274947
vt 0.549553 0.118288
vt 0.049540 0.520452
vt 0.538014 0.954867
vt 0.766101 0.605972
vt 0.573941 0.949562
vt 0.423081 0.974522
vt 0.310335 0.991696
vt 0.007903 0.609921
vt 0.276262 0.705702
vt 0.680574 0.315616
vt 0.371239 0.698180
vt 0.855107 0.189313
vt 0.275367 0.631526
vt 0.545868 0.207069
vt 0.371853 0.628917
vt 0.692800 0.006913
vt 0.274768 0.496190
vt 0.649662 0.864049
vt 0.371461 0.496971
vt 0.909468 0.943737
vt 0.371140 0.442840
vt 0.992631 0.548465
vt 0.274955 0.440279
vt 0.589228 0.681189
vn 0.000000 0.000000 1.000000
vn -0.000000 0.000000 1.000000
vn -0.000000 0.000000 1.000000
vn 0.000000 0.000000 1.000000
vn 0.000000 0.975218 0.221245
vn 0.000000 0.975218 0.221245
vn 0.000000 0.975218 0.221245
vn 0.000000 0.975218 0.221245
vn 0.000000 0.239114 -0.970991
vn 0.005174 0.245538 -0.969373
vn 0.005738 0.246238 -0.969192
vn 0.000000 0.239114 -0.970991
vn 0.000000 -1.000000 0.000000
vn 0.000000 -1.000000 0.000000
vn 0.000000 -1.000000 0.000000
vn 0.000000 -1.000000 0.000000
vn 1.000000 -0.000000 -0.000000
vn 1.000000 -0.000000 0.000000
vn 1.000000 -0.000000 0.000000
vn 1.000000 -0.000000 -0.000000
vn -1.000000 -0.000000 0.000000
vn -1.000000 -0.000000 0.000000
vn -1.000000 -0.000000 0.000000
vn -1.000000 -0.000000 0.000000
vn 0.084546 0.990401 0.109348
vn 0.067680 0.991676 0.109537
vn 0.068682 0.991530 0.110236
vn 0.055973 0.992257 0.110876
vn 0.009260 0.256667 -0.966456
vn 0.008943 0.257110 -0.966341
vn 0.000000 -1.000000 0.000000
vn 0.000000 -1.000000 0.000000
vn -0.000000 0.000000 1.000000
vn -0.000000 0.000000 1.000000
vn 0.000000 0.993955 0.109789
vn 0.000000 0.993873 0.110530
vn 0.000000 0.269575 -0.962979
vn 0.000000 0.269575 -0.962979
vn 0.000000 -1.000000 0.000000
vn 0.000000 -1.000000 0.000000
vn 0.000000 0.000000 1.000000
vn 0.000000 0.000000 1.000000
vn 0.057438 0.992202 0.110616
vn 0.069117 0.991465 0.110542
vn 0.070143 0.991423 0.110274
vn 0.084205 0.990348 0.110088
vn 0.000000 0.993825 0.110959
vn 0.000000 0.993825 0.110959
vn 0.000000 0.993825 0.110959
vn 0.000000 0.993825 0.110959
vn -1.000000 -0.000000 -0.000000
vn -1.000000 -0.000000 0.000000
vn -1.000000 -0.000000 0.000000
vn -1.000000 -0.000000 -0.000000
vn 0.000000 -1.000000 0.000000
vn 0.000000 -1.000000 0.000000
vn 0.000000 -1.000000 0.000000
vn 0.000000 -1.000000 0.000000
vn 0.000000 -1.000000 0.000000
vn 0.000000 -1.000000 0.000000
vn 0.000000 -1.000000 0.000000
vn 0.000000 -1.000000 0.000000
vn 1.000000 -0.000000 0.000000
vn 1.000000 -0.000000 0.000000
vn 1.000000 -0.000000 0.000000
vn 1.000000 -0.000000 0.000000
vn 0.000000 0.993843 0.110795
vn 0.000000 0.993871 0.110546
vn 0.000267 0.993727 0.111829
vn 0.000024 0.993839 0.110834
vn 0.008631 0.994008 0.108965
vn -0.007117 0.994004 0.109110
vn 0.007117 0.994004 0.109110
vn -0.006174 0.992334 0.123431
vn 0.006174 0.992334 0.123431
vn -0.000513 0.994054 0.108889
vn 0.000513 0.994054 0.108889
vn -0.000566 0.993979 0.109571
vn 0.000574 0.993977 0.109584
vn 0.000566 0.993979 0.109571
vn 0.000000 0.212698 -0.977118
vn 0.000000 0.212698 -0.977118
vn 0.000000 0.212698 -0.977118
vn 0.000000 0.212698 -0.977118
vn -1.000000 -0.000000 0.000000
vn -1.000000 -0.000000 0.000000
vn -1.000000 -0.000000 0.000000
vn -1.000000 -0.000000 0.000000
vn 0.000000 -0.153697 0.988118
vn 0.000000 -0.153697 0.988118
vn 0.000000 -0.153697 0.988118
vn 0.000000 -0.153697 0.988118
vn 1.000000 -0.000000 0.000000
vn 1.000000 -0.000000 0.000000
vn 1.000000 -0.000000 0.000000
vn 1.000000 -0.000000 0.000000
vn 0.000000 0.102435 -0.994740
vn 0.000000 0.102435 -0.994740
vn 0.000000 0.102435 -0.994740
vn 0.000000 0.102435 -0.994740
vn -1.000000 0.000000 0.000000
vn -1.000000 0.000000 0.000000
vn -1.000000 0.000000 0.000000
vn -1.000000 0.000000 0.000000
vn 0.000000 -0.109089 0.994032
vn 0.000000 -0.109089 0.994032
vn 0.000000 -0.109089 0.994032
vn 0.000000 -0.109089 0.994032
vn 1.000000 -0.000000 0.000000
vn 1.000000 -0.000000 0.000000
vn 1.000000 -0.000000 0.000000
vn 1.000000 -0.000000 0.000000
s 1
g pCube3
usemtl texturedFacets1
f 1/52/1 12/2/2 9/3/3 3/4/4
s off
f 41/5/5 42/6/6 43/7/7 44/8/8
s 2
f 5/9/9 10/10/10 11/58/11 7/59/12
s 3
f 28/13/13 29/14/14 12/2/15 1/52/16
s 4
f 2/50/17 31/16/18 32/17/19 4/18/20
s 5
f 28/51/21 1/1/22 3/4/23 27/19/24
s 6
f 9/3/25 13/20/26 25/21/27 26/22/28
s 2
f 11/58/11 10/10/10 14/23/29 15/55/30
s 3
f 12/2/15 29/14/14 30/25/31 16/26/32
s 1
f 9/3/3 12/2/2 16/26/33 13/20/34
s 6
f 13/20/26 4/18/35 32/17/36 25/21/27
s 2
f 15/55/30 14/23/29 6/27/37 8/57/38
s 3
f 16/26/32 30/25/31 31/49/39 2/15/40
s 1
f 13/20/34 16/26/33 2/15/41 4/18/42
s 6
f 18/29/43 17/30/44 14/23/45 10/10/46
s off
f 46/31/47 45/32/48 47/33/49 48/34/50
s 5
f 7/60/51 20/54/52 19/36/53 5/9/54
s 3
f 7/12/55 11/11/56 21/37/57 20/35/58
f 22/38/59 21/37/57 11/11/56 15/24/60
f 23/53/61 22/38/59 15/24/60 8/28/62
s 4
f 24/40/63 23/39/64 8/56/65 6/27/66
s 6
f 17/30/44 24/40/67 6/27/68 14/23/45
f 26/22/28 25/21/27 17/30/44 18/29/43
f 27/19/69 26/22/28 18/29/43 19/36/70
s 5
f 20/54/52 28/51/21 27/19/24 19/36/53
s 3
f 20/35/58 21/37/57 29/14/14 28/13/13
f 30/25/31 29/14/14 21/37/57 22/38/59
f 31/49/39 30/25/31 22/38/59 23/53/61
s 4
f 32/17/19 31/16/18 23/39/64 24/40/63
s 6
f 25/21/27 32/17/36 24/40/67 17/30/44
f 3/4/71 9/3/25 34/73/72 33/75/73
f 9/3/25 26/22/28 35/71/74 34/73/72
f 26/22/28 27/19/69 36/69/75 35/71/74
f 27/19/69 3/4/71 33/75/73 36/69/75
f 19/36/70 18/29/43 37/67/76 38/65/77
f 18/29/43 10/10/46 39/63/78 37/67/76
f 10/10/46 5/9/79 40/61/80 39/63/78
f 5/9/79 19/36/70 38/65/77 40/61/80
s off
f 33/42/81 34/74/82 42/6/83 41/5/84
f 34/41/85 35/72/86 43/7/87 42/6/88
f 35/43/89 36/70/90 44/8/91 43/7/92
f 36/44/93 33/76/94 41/5/95 44/8/96
f 38/46/97 37/68/98 45/32/99 46/31/100
f 37/45/101 39/64/102 47/33/103 45/32/104
f 39/47/105 40/62/106 48/34/107 47/33/108
f 40/48/109 38/66/110 46/31/111 48/34/112
