# This file uses centimeters as units for non-parametric coordinates.

mtllib PinLP.mtl
g default
v 0.169115 5.091598 0.043061
v 0.169106 5.061700 0.064392
v 0.169094 5.024975 0.064074
v 0.169085 4.995450 0.042231
v 0.169082 4.984402 0.007205
v 0.169085 4.996053 -0.027625
v 0.169095 5.025950 -0.048955
v 0.169106 5.062676 -0.048638
v 0.169115 5.097149 -0.025475
v 0.169119 5.108071 0.008231
v 0.193743 5.109370 0.056215
v 0.193730 5.068345 0.085484
v 0.193714 5.017951 0.085049
v 0.193702 4.977437 0.055076
v 0.193697 4.962278 0.007014
v 0.193702 4.978265 -0.040779
v 0.193715 5.019290 -0.070048
v 0.193731 5.069685 -0.069613
v 0.193743 5.110198 -0.039640
v 0.193748 5.130180 0.008422
v 0.230981 5.052917 0.007718
v -0.004743 5.105612 0.046648
v -0.004753 5.072680 0.070143
v -0.004766 5.032227 0.069794
v -0.004776 4.999705 0.045734
v -0.004780 4.987537 0.007153
v -0.004776 5.000370 -0.031212
v -0.004765 5.033302 -0.054707
v -0.004753 5.073755 -0.054357
v -0.004743 5.106276 -0.030297
v -0.004739 5.114156 0.008283
v -0.059721 5.136860 0.069754
v -0.059737 5.084383 0.107193
v -0.059757 5.019920 0.106637
v -0.059773 4.968097 0.068297
v -0.059779 4.948707 0.006818
v -0.059773 4.969156 -0.054317
v -0.059757 5.021634 -0.091757
v -0.059737 5.086095 -0.091200
v -0.059720 5.137919 -0.052860
v -0.059714 5.157310 0.008619
v -0.060676 5.064040 0.015879
v -0.060678 5.057136 0.020805
v -0.060681 5.048656 0.020732
v -0.060683 5.041838 0.015688
v -0.060683 5.039287 0.007600
v -0.060683 5.041977 -0.000443
v -0.060680 5.048881 -0.005368
v -0.060678 5.057361 -0.005295
v -0.060676 5.064179 -0.000251
v -0.060675 5.066730 0.007837
v -0.257586 5.056704 0.010406
v -0.257587 5.054429 0.012029
v -0.271167 5.053074 0.007718
v -0.257588 5.051636 0.012005
v -0.257588 5.049391 0.010343
v -0.257589 5.048550 0.007679
v -0.257588 5.049437 0.005030
v -0.257588 5.051711 0.003408
v -0.257587 5.054503 0.003432
v -0.257586 5.056749 0.005093
v -0.257586 5.057590 0.007757
vt 0.504504 0.726686
vt 0.504714 0.662657
vt 0.504925 0.598630
vt 0.505135 0.534605
vt 0.505345 0.470580
vt 0.505555 0.406560
vt 0.505765 0.342542
vt 0.505975 0.278529
vt 0.506185 0.214519
vt 0.504294 0.790716
vt 0.924110 0.589747
vt 0.921925 0.668740
vt 0.919734 0.747893
vt 0.917552 0.826780
vt 0.915389 0.904976
vt 0.913256 0.982058
vt 0.932933 0.270850
vt 0.930880 0.345047
vt 0.928777 0.421069
vt 0.926470 0.504448
vt 0.807769 0.588162
vt 0.805584 0.667154
vt 0.803394 0.746307
vt 0.801211 0.825194
vt 0.799048 0.903390
vt 0.818584 0.197292
vt 0.816592 0.269265
vt 0.814539 0.343462
vt 0.812436 0.419483
vt 0.810130 0.502861
vt 0.761902 0.432464
vt 0.681506 0.403859
vt 0.599651 0.427973
vt 0.547602 0.495595
vt 0.545241 0.580895
vt 0.593469 0.651292
vt 0.673865 0.679897
vt 0.755720 0.655783
vt 0.234096 0.148596
vt 0.677685 0.541878
vt 0.747553 0.024625
vt 0.819219 0.024625
vt 0.675379 0.024625
vt 0.602942 0.024625
vt 0.530485 0.024625
vt 0.458251 0.024625
vt 0.386481 0.024625
vt 0.315417 0.024625
vt 0.245298 0.024625
vt 0.890139 0.024625
vt 0.734064 0.217740
vt 0.756714 0.286545
vt 0.675379 0.175275
vt 0.602942 0.175275
vt 0.544258 0.217740
vt 0.521608 0.286544
vt 0.543593 0.355564
vt 0.601866 0.398592
vt 0.675378 0.398942
vt 0.734729 0.355564
vt 0.053799 0.113490
vt 0.052270 0.179432
vt 0.052784 0.120768
vt 0.051979 0.128074
vt 0.051385 0.135399
vt 0.051003 0.142738
vt 0.050832 0.150085
vt 0.050874 0.157435
vt 0.051127 0.164779
vt 0.051593 0.172114
vt 0.224906 0.140268
vt 0.222124 0.161249
vt 0.223463 0.142211
vt 0.222425 0.144398
vt 0.221832 0.146745
vt 0.221706 0.149163
vt 0.222052 0.151559
vt 0.222857 0.153841
vt 0.224090 0.155925
vt 0.225704 0.157729
vt 0.651734 0.296117
vt 0.654626 0.287037
vt 0.643926 0.301823
vt 0.634254 0.301777
vt 0.626588 0.296117
vt 0.623696 0.287037
vt 0.626676 0.277985
vt 0.634396 0.272399
vt 0.643926 0.272398
vt 0.651646 0.277985
vt 0.890139 0.175275
vt 0.819219 0.175275
vt 0.245298 0.175275
vt 0.315417 0.175275
vt 0.386481 0.175275
vt 0.458251 0.175275
vt 0.530485 0.175275
vt 0.747553 0.175275
vt 0.042312 0.789200
vt 0.042522 0.725169
vt 0.044203 0.213003
vt 0.043993 0.277012
vt 0.043783 0.341026
vt 0.043573 0.405044
vt 0.043363 0.469064
vt 0.043153 0.533089
vt 0.042942 0.597113
vt 0.042732 0.661141
vt 0.221901 0.158838
vt 0.226699 0.138641
vt 0.221747 0.156423
vt 0.221664 0.154003
vt 0.221650 0.151583
vt 0.222028 0.144332
vt 0.222293 0.141926
vt 0.222627 0.139529
vt 0.960075 0.175275
vt 0.042102 0.853228
vt 0.960075 0.024625
vt 0.504084 0.854744
vt 0.934924 0.198878
vt 0.796915 0.980472
vt 0.055024 0.106243
vt 0.223031 0.137142
vt 0.227638 0.159185
vn -0.661541 0.579298 0.476211
vn -0.668174 0.223984 0.709489
vn -0.668174 0.223982 0.709490
vn -0.661476 0.584835 0.469486
vn -0.668319 -0.235781 0.705519
vn -0.668319 -0.235784 0.705518
vn -0.668434 -0.605404 0.432067
vn -0.668434 -0.605404 0.432067
vn -0.668480 -0.743703 -0.006422
vn -0.668480 -0.743703 -0.006423
vn -0.668434 -0.597853 -0.442457
vn -0.668434 -0.597854 -0.442456
vn -0.668316 -0.223565 -0.709487
vn -0.668316 -0.223562 -0.709488
vn -0.658797 0.235631 -0.714468
vn -0.658722 0.237524 -0.713910
vn -0.637731 0.614603 -0.464287
vn -0.639124 0.594923 -0.487430
vn -0.659282 0.751070 0.035224
vn -0.658953 0.751617 0.029203
vn -0.315702 0.285480 0.904894
vn -0.315582 0.762863 0.564312
vn -1.000000 0.000358 -0.000096
vn -0.315874 -0.300914 0.899819
vn -0.316082 -0.772425 0.550865
vn -0.316112 -0.948688 -0.008035
vn -0.316076 -0.762748 -0.564191
vn -0.315805 -0.285254 -0.904930
vn -0.315690 0.301071 -0.899831
vn -0.315545 0.772430 -0.551165
vn -0.315516 0.948886 0.008024
vn 0.894231 0.347504 0.282122
vn 0.904490 0.117889 0.409879
vn 0.999762 0.021825 0.000038
vn 0.915165 -0.137032 0.379072
vn 0.922378 -0.317621 0.219853
vn 0.924816 -0.380400 -0.003203
vn 0.922241 -0.314121 -0.225386
vn 0.914906 -0.130718 -0.381916
vn 0.904176 0.125189 -0.408404
vn 0.893997 0.352652 -0.276417
vn 0.900860 0.434093 0.003859
vn 0.049990 0.291134 0.955375
vn 0.063835 0.796365 0.601438
vn 0.063725 0.803662 0.591664
vn 0.050972 0.309810 0.949431
vn 0.017474 -0.326387 0.945075
vn 0.018450 -0.307861 0.951253
vn -0.008411 -0.817499 0.575869
vn -0.008044 -0.810550 0.585615
vn -0.018026 -0.999801 -0.008540
vn -0.018025 -0.999800 -0.008718
vn -0.007885 -0.807523 -0.589783
vn -0.007501 -0.800236 -0.599639
vn 0.018334 -0.310067 -0.950538
vn 0.019321 -0.291331 -0.956427
vn 0.047970 0.305759 -0.950900
vn 0.048751 0.323787 -0.944873
vn 0.055654 0.809898 -0.583925
vn 0.055602 0.811672 -0.581461
vn 0.054269 0.997602 0.042951
vn 0.054262 0.997617 0.042607
vn 0.577104 0.245484 0.778902
vn 0.590294 0.659743 0.465071
vn 0.590130 0.657242 0.468807
vn 0.577104 0.245485 0.778902
vn 0.576946 -0.259258 0.774544
vn 0.576946 -0.259259 0.774544
vn 0.576819 -0.665046 0.474336
vn 0.576819 -0.665045 0.474337
vn 0.576771 -0.816876 -0.007054
vn 0.576771 -0.816876 -0.007053
vn 0.576823 -0.656759 -0.485740
vn 0.576823 -0.656758 -0.485741
vn 0.576953 -0.245848 -0.778900
vn 0.576953 -0.245846 -0.778900
vn 0.577107 0.258899 -0.774544
vn 0.577107 0.258898 -0.774545
vn 0.590366 0.667743 -0.453417
vn 0.590201 0.665299 -0.457210
vn 0.593311 0.804943 0.007043
vn 0.593311 0.804944 0.006873
vn -0.999946 0.003409 0.009815
vn -0.999944 0.008586 0.006121
vn -0.999944 0.008586 0.006121
vn -0.999946 0.003409 0.009815
vn -0.999948 -0.002952 0.009760
vn -0.999948 -0.002952 0.009760
vn -0.999950 -0.008066 0.005977
vn -0.999950 -0.008066 0.005977
vn -0.999950 -0.009979 -0.000089
vn -0.999950 -0.009979 -0.000089
vn -0.999950 -0.007962 -0.006121
vn -0.999950 -0.007962 -0.006121
vn -0.999948 -0.002784 -0.009814
vn -0.999948 -0.002784 -0.009814
vn -0.999946 0.003578 -0.009759
vn -0.999946 0.003578 -0.009759
vn -0.999944 0.008691 -0.005976
vn -0.999944 0.008691 -0.005976
vn -0.999944 0.010604 0.000089
vn -0.999944 0.010604 0.000089
vn -0.046589 0.300488 0.952647
vn -0.046432 0.803028 0.594130
vn -0.046432 0.803027 0.594131
vn -0.046589 0.300498 0.952644
vn -0.046781 -0.316861 0.947318
vn -0.046781 -0.316857 0.947319
vn -0.046937 -0.813154 0.580153
vn -0.046937 -0.813154 0.580154
vn -0.046997 -0.998858 -0.008629
vn -0.046997 -0.998858 -0.008630
vn -0.046935 -0.803022 -0.594098
vn -0.046935 -0.803020 -0.594100
vn -0.046777 -0.300454 -0.952648
vn -0.046777 -0.300455 -0.952648
vn -0.046583 0.316876 -0.947323
vn -0.046583 0.316875 -0.947323
vn -0.046428 0.813165 -0.580178
vn -0.046428 0.813168 -0.580175
vn -0.046370 0.998887 0.008630
vn -0.046370 0.998887 0.008640
s 1
g pin_LP_pCylinder1
usemtl initialShadingGroup
f 1/11/1 2/12/2 12/22/3 11/21/4
f 2/12/2 3/13/5 13/23/6 12/22/3
f 3/13/5 4/14/7 14/24/8 13/23/6
f 4/14/7 5/15/9 15/25/10 14/24/8
f 5/15/9 6/16/11 16/122/12 15/25/10
f 6/121/11 7/17/13 17/27/14 16/26/12
f 7/17/13 8/18/15 18/28/16 17/27/14
f 8/18/15 9/19/17 19/29/18 18/28/16
f 9/19/17 10/20/19 20/30/20 19/29/18
f 10/20/19 1/11/1 11/21/4 20/30/20
s 2
f 53/71/21 52/110/22 54/39/23
f 55/73/24 53/71/21 54/39/23
f 56/74/25 55/73/24 54/39/23
f 57/75/26 56/74/25 54/39/23
f 58/76/27 57/75/26 54/39/23
f 59/77/28 58/76/27 54/39/23
f 60/78/29 59/77/28 54/39/23
f 61/79/30 60/78/29 54/39/23
f 62/80/31 61/79/30 54/39/23
f 52/125/22 62/80/31 54/39/23
s 3
f 11/21/32 12/38/33 21/40/34
f 12/38/33 13/37/35 21/40/34
f 13/37/35 14/36/36 21/40/34
f 14/36/36 15/35/37 21/40/34
f 15/35/37 16/34/38 21/40/34
f 16/34/38 17/33/39 21/40/34
f 17/33/39 18/32/40 21/40/34
f 18/32/40 19/31/41 21/40/34
f 19/31/41 20/30/42 21/40/34
f 20/30/42 11/21/32 21/40/34
s 4
f 2/2/43 1/1/44 22/100/45 23/108/46
f 3/3/47 2/2/43 23/108/46 24/107/48
f 4/4/49 3/3/47 24/107/48 25/106/50
f 5/5/51 4/4/49 25/106/50 26/105/52
f 6/6/53 5/5/51 26/105/52 27/104/54
f 7/7/55 6/6/53 27/104/54 28/103/56
f 8/8/57 7/7/55 28/103/56 29/102/58
f 9/9/59 8/8/57 29/102/58 30/101/60
f 10/10/61 9/120/59 30/118/60 31/99/62
f 1/1/44 10/10/61 31/99/62 22/100/45
s 5
f 23/41/63 22/42/64 32/92/65 33/98/66
f 24/43/67 23/41/63 33/98/66 34/53/68
f 25/44/69 24/43/67 34/53/68 35/54/70
f 26/45/71 25/44/69 35/54/70 36/97/72
f 27/46/73 26/45/71 36/97/72 37/96/74
f 28/47/75 27/46/73 37/96/74 38/95/76
f 29/48/77 28/47/75 38/95/76 39/94/78
f 30/49/79 29/48/77 39/94/78 40/93/80
f 31/50/81 30/119/79 40/117/80 41/91/82
f 22/42/64 31/50/81 41/91/82 32/92/65
s 6
f 33/51/83 32/52/84 42/82/85 43/90/86
f 34/53/87 33/51/83 43/90/86 44/89/88
f 35/54/89 34/53/87 44/89/88 45/88/90
f 36/55/91 35/54/89 45/88/90 46/87/92
f 37/56/93 36/55/91 46/87/92 47/86/94
f 38/57/95 37/56/93 47/86/94 48/85/96
f 39/58/97 38/57/95 48/85/96 49/84/98
f 40/59/99 39/58/97 49/84/98 50/83/100
f 41/60/101 40/59/99 50/83/100 51/81/102
f 32/52/84 41/60/101 51/81/102 42/82/85
s 7
f 43/61/103 42/123/104 52/124/105 53/116/106
f 44/63/107 43/61/103 53/116/106 55/115/108
f 45/64/109 44/63/107 55/115/108 56/114/110
f 46/65/111 45/64/109 56/114/110 57/75/112
f 47/66/113 46/65/111 57/75/112 58/76/114
f 48/67/115 47/66/113 58/76/114 59/113/116
f 49/68/117 48/67/115 59/113/116 60/112/118
f 50/69/119 49/68/117 60/112/118 61/111/120
f 51/70/121 50/69/119 61/111/120 62/109/122
f 42/62/104 51/70/121 62/109/122 52/72/105
