# This file uses meters as units for non-parametric coordinates.

mtllib 1.mtl
g default
v -622.749084 -0.450409 21.037518
v -585.398499 -0.450409 21.037518
v -622.749084 105.921967 21.037518
v -585.398499 105.921967 21.037518
v -622.749084 105.921967 -21.037518
v -585.398499 105.921967 -21.037518
v -622.749084 -0.450409 -21.037518
v -585.398499 -0.450409 -21.037518
v -622.749084 98.256882 21.037518
v -585.398499 98.256882 21.037518
v -585.398499 98.256912 -21.037518
v -622.749084 98.256912 -21.037518
v -622.749084 -0.450409 8.716433
v -622.749084 98.256897 8.716433
v -622.749084 105.921967 8.716433
v -585.398499 105.921967 8.716433
v -585.398499 98.256897 8.716433
v -585.398499 -0.450409 8.716433
v -585.398499 98.256912 -25.067518
v -626.779114 98.256912 -25.067518
v -585.398499 -0.450409 -25.067518
v -626.779114 -0.450409 -25.067518
v -626.779114 -0.450409 8.716433
v -626.779114 98.256897 8.716433
v -622.749084 94.755356 21.037518
v -585.398499 94.755356 21.037518
v -585.398499 94.755325 8.716433
v -585.398499 94.755356 -21.037518
v -585.398499 94.755356 -25.067522
v -626.779114 94.755356 -25.067522
v -626.779114 94.755356 8.716433
v -622.749084 94.755356 8.716433
v -624.339111 94.755356 22.627518
v -583.808411 94.755356 22.627518
v -583.808411 98.256882 22.627518
v -624.339111 98.256882 22.627518
v -583.808411 98.256897 8.716433
v -583.808411 94.755325 8.716433
v -583.808411 94.755356 -21.037518
v -583.808411 98.256912 -21.037518
v -583.808411 98.256912 -26.657520
v -628.369141 98.256897 -26.657520
v -583.808411 94.755356 -26.657520
v -628.369141 94.755356 -26.657520
v -628.369141 94.755356 10.306434
v -628.369141 98.256882 10.306434
v -624.339111 94.755356 10.306434
v -624.339111 98.256897 10.306434
vt 0.375000 0.000000
vt 0.625000 0.000000
vt 0.375000 0.250000
vt 0.625000 0.250000
vt 0.375000 0.500000
vt 0.625000 0.500000
vt 0.375000 0.750000
vt 0.625000 0.750000
vt 0.875000 0.000000
vt 0.875000 0.250000
vt 0.125000 0.000000
vt 0.125000 0.250000
vt 0.375000 0.231985
vt 0.625000 0.231985
vt 0.625000 0.518015
vt 0.875000 0.231985
vt 0.125000 0.231985
vt 0.375000 0.518015
vt 0.301791 0.000000
vt 0.301791 0.231985
vt 0.301791 0.250000
vt 0.375000 0.323209
vt 0.625000 0.323209
vt 0.698209 0.250000
vt 0.698209 0.231985
vt 0.698209 0.000000
vt 0.375000 0.518015
vt 0.625000 0.518015
vt 0.625000 0.750000
vt 0.375000 0.750000
vt 0.125000 0.000000
vt 0.301791 0.000000
vt 0.301791 0.231985
vt 0.125000 0.231985
vt 0.375000 0.223756
vt 0.625000 0.223756
vt 0.698209 0.223756
vt 0.625000 0.526244
vt 0.875000 0.223756
vt 0.625000 0.526244
vt 0.125000 0.223756
vt 0.375000 0.526244
vt 0.301791 0.223756
vt 0.301791 0.223756
vt 0.375000 0.223756
vt 0.625000 0.223756
vt 0.625000 0.231985
vt 0.375000 0.231985
vt 0.698209 0.223756
vt 0.875000 0.223756
vt 0.875000 0.231985
vt 0.698209 0.231985
vt 0.375000 0.518015
vt 0.625000 0.518015
vt 0.625000 0.526244
vt 0.375000 0.526244
vt 0.125000 0.223756
vt 0.301791 0.223756
vt 0.301791 0.231985
vt 0.125000 0.231985
vt 0.301791 0.223756
vt 0.301791 0.231985
vt 0.625000 0.526244
vt 0.625000 0.518015
vn 0.000000 0.000000 1.000000
vn 0.000000 0.000000 1.000000
vn 0.000000 0.000000 1.000000
vn 0.000000 0.000000 1.000000
vn 0.000000 1.000000 0.000000
vn 0.000000 1.000000 0.000000
vn 0.000000 1.000000 0.000000
vn 0.000000 1.000000 0.000000
vn 0.000000 0.000000 -1.000000
vn 0.000000 0.000000 -1.000000
vn 0.000000 0.000000 -1.000000
vn 0.000000 0.000000 -1.000000
vn 1.000000 0.000000 0.000000
vn 1.000000 0.000000 0.000000
vn 1.000000 0.000000 0.000000
vn 1.000000 0.000000 0.000000
vn -1.000000 0.000000 0.000000
vn -1.000000 0.000000 0.000000
vn -1.000000 0.000000 0.000000
vn -1.000000 0.000000 0.000000
vn 0.000000 0.000000 1.000000
vn 0.000000 0.000000 1.000000
vn 0.000000 0.000000 1.000000
vn 0.000000 0.000000 1.000000
vn 1.000000 0.000000 0.000000
vn 1.000000 0.000000 0.000000
vn 1.000000 0.000000 0.000000
vn 1.000000 0.000000 0.000000
vn 0.000000 0.000000 -1.000000
vn 0.000000 0.000000 -1.000000
vn 0.000000 0.000000 -1.000000
vn 0.000000 0.000000 -1.000000
vn -1.000000 0.000000 0.000000
vn -1.000000 0.000000 0.000000
vn -1.000000 0.000000 0.000000
vn -1.000000 0.000000 0.000000
vn -1.000000 0.000000 0.000000
vn -1.000000 0.000000 0.000000
vn -1.000000 0.000000 0.000000
vn -1.000000 0.000000 0.000000
vn -1.000000 0.000000 0.000000
vn -1.000000 0.000000 0.000000
vn 0.000000 1.000000 0.000000
vn 0.000000 1.000000 0.000000
vn 1.000000 0.000000 0.000000
vn 1.000000 0.000000 0.000000
vn 1.000000 0.000000 0.000000
vn 1.000000 0.000000 0.000000
vn -0.000000 1.000000 0.000000
vn 0.000000 1.000000 0.000000
vn -0.000000 1.000000 -0.000001
vn -0.000003 1.000000 -0.000000
vn 1.000000 0.000000 0.000000
vn 1.000000 0.000000 0.000000
vn 0.000000 -1.000000 0.000000
vn 0.000000 -1.000000 0.000000
vn 0.000000 -1.000000 0.000000
vn 0.000000 -1.000000 0.000000
vn 0.000000 -1.000000 0.000000
vn 0.000000 -1.000000 0.000000
vn 0.000000 0.000000 1.000000
vn 0.000000 0.000000 1.000000
vn 0.000000 0.000000 1.000000
vn 0.000000 0.000000 1.000000
vn -0.000000 1.000000 0.000001
vn -0.000004 1.000000 0.000001
vn 0.000000 0.000000 1.000000
vn 0.000000 0.000000 1.000000
vn 0.000000 0.000000 1.000000
vn 0.000000 0.000000 1.000000
vn 1.000000 0.000000 0.000000
vn 1.000000 0.000000 0.000000
vn 1.000000 0.000000 0.000000
vn 1.000000 0.000000 0.000000
vn 1.000000 0.000000 0.000000
vn 1.000000 0.000000 0.000000
vn 1.000000 0.000001 0.000000
vn 1.000000 0.000001 0.000000
vn 0.000000 -0.000000 -1.000000
vn 0.000000 -0.000000 -1.000000
vn 0.000000 -0.000000 -1.000000
vn 0.000000 -0.000000 -1.000000
vn -1.000000 0.000000 0.000000
vn -1.000000 0.000000 0.000000
vn -1.000000 0.000000 0.000000
vn -1.000000 0.000000 0.000000
vn 0.000000 0.000000 1.000000
vn 0.000000 0.000000 1.000000
vn 0.000000 0.000000 1.000000
vn 0.000000 0.000000 1.000000
vn -1.000000 0.000000 0.000000
vn -1.000000 0.000000 0.000000
vn -1.000000 0.000000 0.000000
vn -1.000000 0.000000 0.000000
vn 0.000000 -1.000000 0.000000
vn -0.000000 -1.000000 0.000001
vn -0.000000 -1.000000 0.000001
vn 0.000000 -1.000000 0.000000
vn -0.000000 1.000000 0.000001
vn 0.000000 1.000000 0.000001
vn 0.000000 1.000000 0.000001
vn -0.000000 1.000000 0.000001
vn -0.000000 -1.000000 -0.000000
vn 0.000000 -1.000000 -0.000001
vn 0.000000 -1.000000 -0.000001
vn -0.000000 -1.000000 -0.000000
vn -0.000000 1.000000 0.000001
vn -0.000000 1.000000 0.000001
vn 0.000000 1.000000 0.000000
vn -0.000000 1.000000 -0.000002
vn -0.000004 1.000000 -0.000001
vn 0.000000 -1.000000 0.000002
vn 0.000000 -1.000000 0.000001
vn 0.000000 -1.000000 0.000001
vn 0.000000 -1.000000 0.000002
vn 0.000000 -1.000000 0.000000
vn 0.000000 -1.000000 0.000000
vn -0.000009 1.000000 0.000001
vn 0.000000 -1.000000 0.000000
vn 0.000000 -1.000000 0.000000
vn 0.000000 1.000000 0.000002
s off
g pCube24
usemtl initialShadingGroup
f 9/13/1 10/14/2 4/4/3 3/3/4
s 1
f 15/22/5 16/23/6 6/6/7 5/5/8
s off
f 5/5/9 6/6/10 11/15/11 12/18/12
s 2
f 16/24/13 17/25/14 11/16/15 6/10/16
s 3
f 12/17/17 14/20/18 15/21/19 5/12/20
s off
f 33/45/21 34/46/22 35/47/23 36/48/24
s 4
f 37/52/25 38/49/26 39/50/27 40/51/28
s off
f 42/53/29 41/54/30 43/55/31 44/56/32
f 44/57/33 45/58/34 46/59/35 42/60/36
f 48/62/37 47/61/38 33/45/39 36/48/40
s 3
f 15/21/19 14/20/18 9/13/41 3/3/42
s 1
f 3/3/43 4/4/44 16/23/6 15/22/5
s 2
f 10/14/45 17/25/14 16/24/13 4/4/46
s 4
f 34/46/47 38/49/26 37/52/25 35/47/48
s 5
f 12/18/49 11/15/50 19/28/51 20/27/52
s 4
f 40/64/28 39/63/27 43/55/53 41/54/54
s 6
f 8/8/55 7/7/56 22/30/57 21/29/58
f 7/11/56 13/19/59 23/32/60 22/31/57
s off
f 45/58/61 47/61/62 48/62/63 46/59/64
s 5
f 14/20/65 12/17/49 20/34/52 24/33/66
s off
f 1/1/67 2/2/68 26/36/69 25/35/70
s 7
f 2/2/71 18/26/72 27/37/73 26/36/74
f 28/39/75 27/37/73 18/26/72 8/9/76
f 29/40/77 28/38/75 8/8/76 21/29/78
s off
f 30/42/79 29/40/80 21/29/81 22/30/82
f 22/31/83 23/32/84 31/43/85 30/41/86
f 13/19/87 32/44/88 31/43/89 23/32/90
f 25/35/91 32/44/92 13/19/93 1/1/94
s 8
f 25/35/95 26/36/96 34/46/97 33/45/98
s 5
f 10/14/99 9/13/100 36/48/101 35/47/102
s 8
f 27/37/103 28/39/104 39/50/105 38/49/106
s 5
f 11/16/50 17/25/107 37/52/108 40/51/109
f 20/27/52 19/28/51 41/54/110 42/53/111
s 8
f 29/40/112 30/42/113 44/56/114 43/55/115
f 30/41/113 31/43/116 45/58/117 44/57/114
s 5
f 24/33/66 20/34/52 42/60/111 46/59/118
s 8
f 32/44/119 25/35/95 33/45/98 47/61/120
s 5
f 9/13/100 14/20/65 48/62/121 36/48/101
s 8
f 26/36/96 27/37/103 38/49/106 34/46/97
s 5
f 17/25/107 10/14/99 35/47/102 37/52/108
s 8
f 28/38/104 29/40/112 43/55/115 39/63/105
s 5
f 19/28/51 11/15/50 40/64/109 41/54/110
s 8
f 31/43/116 32/44/119 47/61/120 45/58/117
s 5
f 14/20/65 24/33/66 46/59/118 48/62/121
