# This file uses meters as units for non-parametric coordinates.

mtllib 11.mtl
g default
v -86.293251 0.410379 20.143904
v -72.715256 0.410379 20.143906
v -86.293251 74.294754 20.143904
v -72.715256 74.294754 20.143906
v -86.293251 74.294754 -20.143904
v -72.715256 74.294754 -20.143906
v -86.293251 0.410379 -20.143904
v -72.715256 0.410379 -20.143906
v -101.410927 0.410379 20.143904
v -101.410927 74.294754 20.143904
v -101.410927 74.294754 -5.857943
v -86.293251 99.962952 20.143904
v -86.293251 99.962952 -20.143904
v -101.410927 99.962952 -5.857943
v -101.410927 99.962952 20.143904
v -86.293251 49.459705 20.143904
v -72.715256 49.459705 20.143906
v -72.715256 49.459709 -20.143908
v -86.293251 49.459709 -20.143904
v -101.410927 49.459709 -5.857943
v -101.410927 49.459705 20.143904
v -97.812912 49.459709 -20.143904
v -110.811676 49.459709 -5.857943
v -97.812912 0.410379 -20.143904
v -110.811676 0.410379 -5.857943
v -110.811676 0.410379 20.143904
v -110.811676 49.459705 20.143904
v -86.293251 71.494904 -20.143904
v -72.715256 71.494904 -20.143906
v -72.715256 71.494904 20.143906
v -86.293251 71.494904 20.143904
v -101.410927 71.494904 20.143904
v -101.410927 71.494904 -5.857943
v -86.754639 74.294754 -21.303904
v -71.555252 74.294754 -21.303905
v -71.555252 71.494904 -21.303905
v -86.754631 71.494904 -21.303904
v -71.555252 71.494904 21.303905
v -71.555252 74.294754 21.303905
v -86.293251 71.494904 21.303904
v -86.293251 74.294754 21.303904
v -102.570930 71.494904 21.303904
v -102.570930 74.294754 21.303904
v -102.570930 71.494904 -6.357763
v -102.570930 74.294754 -6.357757
v -86.293251 46.879318 20.143904
v -72.715256 46.879318 20.143906
v -72.715256 46.879318 -20.143908
v -86.293251 46.879318 -20.143904
v -97.812912 46.879318 -20.143904
v -110.811676 46.879318 -5.857943
v -110.811676 46.879318 20.143904
v -101.410927 46.879318 20.143904
v -86.293251 46.879318 20.993904
v -71.865257 46.879318 20.993906
v -71.865257 49.459705 20.993906
v -86.293251 49.459705 20.993904
v -71.865257 46.879318 -20.993908
v -71.865257 49.459709 -20.993908
v -86.293251 49.459709 -20.993904
v -86.293251 46.879318 -20.993904
v -98.188705 49.459709 -20.993904
v -111.661674 49.459709 -6.186780
v -98.188705 46.879318 -20.993904
v -111.661674 46.879318 -6.186786
v -111.661674 46.879318 20.993904
v -111.661674 49.459705 20.993904
v -101.410927 46.879318 20.993904
v -101.410927 49.459705 20.993904
vt 0.375000 0.000000
vt 0.625000 0.000000
vt 0.375000 0.250000
vt 0.625000 0.250000
vt 0.375000 0.500000
vt 0.625000 0.500000
vt 0.375000 0.750000
vt 0.625000 0.750000
vt 0.875000 0.000000
vt 0.875000 0.250000
vt 0.125000 0.000000
vt 0.125000 0.250000
vt 0.375000 0.000000
vt 0.375000 0.250000
vt 0.125000 0.250000
vt 0.375000 0.250000
vt 0.125000 0.250000
vt 0.125000 0.250000
vt 0.375000 0.250000
vt 0.375000 0.165966
vt 0.625000 0.165966
vt 0.625000 0.584033
vt 0.875000 0.165967
vt 0.125000 0.165967
vt 0.375000 0.584033
vt 0.125000 0.165967
vt 0.375000 0.165966
vt 0.125000 0.165967
vt 0.125000 0.165967
vt 0.125000 0.000000
vt 0.125000 0.000000
vt 0.375000 0.000000
vt 0.375000 0.165966
vt 0.125000 0.240526
vt 0.375000 0.509474
vt 0.625000 0.509474
vt 0.875000 0.240526
vt 0.625000 0.240526
vt 0.375000 0.240526
vt 0.375000 0.240526
vt 0.125000 0.240526
vt 0.375000 0.500000
vt 0.625000 0.500000
vt 0.625000 0.509474
vt 0.375000 0.509474
vt 0.625000 0.240526
vt 0.875000 0.240526
vt 0.875000 0.250000
vt 0.625000 0.250000
vt 0.375000 0.240526
vt 0.375000 0.250000
vt 0.375000 0.240526
vt 0.375000 0.250000
vt 0.125000 0.240526
vt 0.125000 0.250000
vt 0.125000 0.240526
vt 0.125000 0.250000
vt 0.375000 0.157235
vt 0.625000 0.157235
vt 0.625000 0.592765
vt 0.875000 0.157235
vt 0.125000 0.157235
vt 0.375000 0.592765
vt 0.125000 0.157235
vt 0.125000 0.157235
vt 0.375000 0.157235
vt 0.375000 0.157235
vt 0.375000 0.157235
vt 0.625000 0.157235
vt 0.625000 0.165966
vt 0.375000 0.165966
vt 0.875000 0.157235
vt 0.875000 0.165967
vt 0.375000 0.584033
vt 0.625000 0.584033
vt 0.625000 0.592765
vt 0.375000 0.592765
vt 0.125000 0.165967
vt 0.125000 0.165967
vt 0.125000 0.157235
vt 0.125000 0.157235
vt 0.375000 0.157235
vt 0.375000 0.165966
vt 0.375000 0.157235
vt 0.375000 0.165966
vt 0.125000 0.157235
vt 0.125000 0.165967
vn -0.000000 0.000000 1.000000
vn -0.000000 0.000000 1.000000
vn -0.000000 0.000000 1.000000
vn -0.000000 0.000000 1.000000
vn 0.000000 1.000000 -0.000000
vn 0.000000 1.000000 -0.000000
vn 0.000000 1.000000 0.000000
vn 0.000000 1.000000 -0.000000
vn -0.000000 0.000000 -1.000000
vn -0.000000 0.000000 -1.000000
vn -0.000000 0.000000 -1.000000
vn -0.000000 0.000000 -1.000000
vn 1.000000 0.000000 0.000000
vn 1.000000 0.000000 0.000000
vn 1.000000 0.000000 0.000000
vn 1.000000 0.000000 0.000000
vn -1.000000 0.000000 0.000000
vn -1.000000 0.000000 0.000000
vn -1.000000 0.000000 0.000000
vn -1.000000 0.000000 0.000000
vn 0.000000 0.000000 1.000000
vn 0.000000 0.000000 1.000000
vn 0.000000 0.000000 1.000000
vn 0.000000 0.000000 1.000000
vn 0.000000 1.000000 0.000000
vn 0.000000 1.000000 0.000000
vn 0.000000 1.000000 0.000000
vn 0.000000 1.000000 0.000000
vn -0.686831 0.000000 -0.726817
vn -0.686831 0.000000 -0.726817
vn -0.686831 0.000000 -0.726817
vn -0.686831 0.000000 -0.726817
vn 1.000000 0.000000 0.000000
vn 1.000000 0.000000 0.000000
vn 1.000000 0.000000 0.000000
vn 1.000000 0.000000 0.000000
vn -0.686831 0.000000 -0.726817
vn -0.686831 0.000000 -0.726817
vn -0.686831 0.000000 -0.726817
vn -0.686831 0.000000 -0.726817
vn -1.000000 0.000000 0.000000
vn -1.000000 0.000000 0.000000
vn -1.000000 0.000000 0.000000
vn -1.000000 0.000000 0.000000
vn 0.000000 0.000000 1.000000
vn 0.000000 0.000000 1.000000
vn 0.000000 0.000000 1.000000
vn 0.000000 0.000000 1.000000
vn -0.000000 0.000000 1.000000
vn -0.000000 0.000000 1.000000
vn -0.000000 0.000000 1.000000
vn -0.000000 0.000000 1.000000
vn 1.000000 0.000000 0.000000
vn 1.000000 0.000000 0.000000
vn 1.000000 0.000000 0.000000
vn 1.000000 0.000000 0.000000
vn -0.000000 0.000000 -1.000000
vn -0.000000 0.000000 -1.000000
vn -0.000000 0.000000 -1.000000
vn -0.000000 0.000000 -1.000000
vn -0.739643 0.000001 -0.673000
vn -0.739643 0.000001 -0.673000
vn -0.739643 0.000001 -0.673000
vn -0.739643 0.000001 -0.673000
vn -1.000000 0.000001 0.000000
vn -1.000000 0.000001 0.000000
vn -1.000000 0.000001 0.000000
vn -1.000000 0.000001 0.000000
vn 0.000000 0.000000 1.000000
vn 0.000000 0.000000 1.000000
vn 0.000000 0.000000 1.000000
vn 0.000000 0.000000 1.000000
vn 0.000000 1.000000 0.000000
vn 0.000000 1.000000 0.000000
vn 0.000000 1.000000 0.000000
vn 0.000000 1.000000 0.000000
vn 0.000000 0.000000 -1.000000
vn 0.000000 0.000000 -1.000000
vn 0.000000 0.000000 -1.000000
vn 0.000000 0.000000 -1.000000
vn 0.000000 0.000000 1.000000
vn 0.000000 0.000000 1.000000
vn 0.000000 0.000000 1.000000
vn 0.000000 0.000000 1.000000
vn 0.000000 1.000000 0.000000
vn 0.000000 1.000000 0.000000
vn 0.000000 1.000000 0.000000
vn -0.000000 -0.000000 -1.000000
vn -0.000000 -0.000000 -1.000000
vn -0.000000 -0.000000 -1.000000
vn -0.000000 -0.000000 -1.000000
vn 1.000000 0.000000 0.000000
vn 1.000000 0.000000 0.000000
vn 1.000000 0.000000 0.000000
vn 1.000000 0.000000 0.000000
vn -0.000000 0.000000 1.000000
vn -0.000000 0.000000 1.000000
vn -0.000000 0.000000 1.000000
vn -0.000000 0.000000 1.000000
vn 0.000000 0.000000 1.000000
vn 0.000000 0.000000 1.000000
vn 0.000000 0.000000 1.000000
vn 0.000000 0.000000 1.000000
vn -1.000000 0.000001 0.000000
vn -1.000000 0.000001 0.000000
vn -1.000000 0.000001 0.000000
vn -1.000000 0.000001 0.000000
vn -0.686830 0.000002 -0.726818
vn -0.686830 0.000002 -0.726818
vn -0.686830 0.000002 -0.726818
vn -0.686830 0.000002 -0.726818
vn 0.000000 1.000000 0.000000
vn 0.000000 1.000000 -0.000001
vn 0.000000 -1.000000 0.000000
vn 0.000000 -1.000000 0.000001
vn 0.000000 -1.000000 0.000001
vn 0.000000 -1.000000 0.000000
vn 0.000000 -1.000000 0.000000
vn 0.000000 -1.000000 0.000000
vn 0.000000 1.000000 -0.000001
vn 0.000000 -1.000000 -0.000001
vn 0.000000 -1.000000 -0.000001
vn 0.000000 1.000000 -0.000002
vn 0.000000 -1.000000 -0.000000
vn 0.000000 -1.000000 -0.000000
vn 0.000000 1.000000 0.000000
vn 0.000000 1.000000 0.000000
vn 0.000000 -1.000000 0.000000
vn 0.000000 -1.000000 0.000000
vn 0.000000 1.000000 -0.000001
vn 0.000000 1.000000 -0.000001
vn -0.000000 0.000000 1.000000
vn -0.000000 0.000000 1.000000
vn -0.000000 0.000000 1.000000
vn -0.000000 0.000000 1.000000
vn 1.000000 -0.000000 0.000000
vn 1.000000 -0.000000 0.000000
vn 1.000000 -0.000000 0.000000
vn 1.000000 -0.000000 0.000000
vn -0.000000 -0.000000 -1.000000
vn -0.000000 -0.000000 -1.000000
vn -0.000000 -0.000000 -1.000000
vn -0.000000 -0.000000 -1.000000
vn 0.000000 0.000000 -1.000000
vn 0.000000 0.000000 -1.000000
vn 0.000000 0.000000 -1.000000
vn 0.000000 0.000000 -1.000000
vn -0.739643 0.000000 -0.673000
vn -0.739643 0.000000 -0.673000
vn -0.739643 0.000000 -0.673000
vn -0.739643 0.000000 -0.673000
vn -1.000000 0.000000 0.000000
vn -1.000000 0.000000 0.000000
vn -1.000000 0.000000 0.000000
vn -1.000000 0.000000 0.000000
vn 0.000000 0.000000 1.000000
vn 0.000000 0.000000 1.000000
vn 0.000000 0.000000 1.000000
vn 0.000000 0.000000 1.000000
vn 0.000000 0.000000 1.000000
vn 0.000000 0.000000 1.000000
vn 0.000000 0.000000 1.000000
vn 0.000000 0.000000 1.000000
vn 0.000000 -1.000000 0.000000
vn 0.000000 -1.000000 0.000000
vn 0.000000 -1.000000 0.000000
vn 0.000000 -1.000000 0.000000
vn 0.000000 1.000000 0.000001
vn 0.000000 1.000000 0.000001
vn 0.000000 1.000000 0.000001
vn 0.000000 1.000000 0.000001
vn 0.000000 -1.000000 -0.000000
vn 0.000000 -1.000000 -0.000000
vn 0.000000 1.000000 0.000000
vn 0.000000 1.000000 0.000000
vn 0.000000 1.000000 -0.000001
vn 0.000000 -1.000000 -0.000000
vn 0.000000 -1.000000 -0.000000
vn 0.000000 1.000000 -0.000002
vn 0.000000 1.000000 -0.000001
vn 0.000000 -1.000000 0.000000
vn 0.000000 -1.000000 0.000000
vn 0.000000 -1.000000 0.000000
vn 0.000000 -1.000000 0.000000
vn 0.000000 -1.000000 0.000000
vn 0.000000 -1.000000 0.000000
vn 0.000000 1.000000 0.000000
vn 0.000000 -1.000000 0.000000
vn 0.000000 -1.000000 0.000000
vn 0.000000 1.000000 0.000000
s off
g pCube13
usemtl initialShadingGroup
f 16/20/1 17/21/2 30/38/3 31/39/4
s 1
f 3/3/5 4/4/6 6/6/7 5/5/8
s off
f 28/35/9 29/36/10 18/22/11 19/25/12
f 17/21/13 18/23/14 29/37/15 30/38/16
f 20/26/17 21/27/18 32/40/19 33/41/20
f 21/27/21 16/20/22 31/39/23 32/40/24
f 12/16/25 13/17/26 14/18/27 15/19/28
f 33/41/29 28/34/30 19/24/31 20/26/32
f 3/3/33 5/12/34 13/17/35 12/16/36
f 5/12/37 11/15/38 14/18/39 13/17/40
f 11/15/41 10/14/42 15/19/43 14/18/44
f 10/14/45 3/3/46 12/16/47 15/19/48
f 54/68/49 55/69/50 56/70/51 57/71/52
f 55/69/53 58/72/54 59/73/55 56/70/56
f 60/74/57 59/75/58 58/76/59 61/77/60
f 63/78/61 62/79/62 64/80/63 65/81/64
f 65/81/65 66/82/66 67/83/67 63/78/68
f 68/84/69 54/68/70 57/71/71 69/85/72
s 2
f 20/26/73 19/24/74 22/29/75 23/28/76
s off
f 60/87/77 61/86/78 64/80/79 62/79/80
f 66/82/81 68/84/82 69/85/83 67/83/84
s 2
f 21/27/85 20/26/86 23/28/76 27/33/87
s off
f 34/42/88 35/43/89 36/44/90 37/45/91
f 38/46/92 36/47/93 35/48/94 39/49/95
f 40/50/96 38/46/97 39/49/98 41/51/99
f 42/52/100 40/50/101 41/51/102 43/53/103
f 44/54/104 42/52/105 43/53/106 45/55/107
f 34/57/108 37/56/109 44/54/110 45/55/111
s 1
f 5/5/8 6/6/7 35/43/112 34/42/113
s 4
f 29/36/114 28/35/115 37/45/116 36/44/117
f 30/38/118 29/37/114 36/47/117 38/46/119
s 1
f 6/10/7 4/4/6 39/49/120 35/48/112
s 4
f 31/39/121 30/38/118 38/46/119 40/50/122
s 1
f 4/4/6 3/3/5 41/51/123 39/49/120
s 4
f 32/40/124 31/39/121 40/50/122 42/52/125
s 1
f 3/3/5 10/14/126 43/53/127 41/51/123
s 4
f 33/41/128 32/40/124 42/52/125 44/54/129
s 1
f 10/14/126 11/15/130 45/55/131 43/53/127
s 4
f 28/34/115 33/41/128 44/54/129 37/56/116
s 1
f 11/15/130 5/12/8 34/57/113 45/55/131
s off
f 1/1/132 2/2/133 47/59/134 46/58/135
f 2/2/136 8/9/137 48/61/138 47/59/139
f 49/63/140 48/60/141 8/8/142 7/7/143
f 50/64/144 49/62/145 7/11/146 24/30/147
f 51/65/148 50/64/149 24/30/150 25/31/151
f 25/31/152 26/32/153 52/66/154 51/65/155
f 9/13/156 53/67/157 52/66/158 26/32/159
f 1/1/160 46/58/161 53/67/162 9/13/163
s 5
f 46/58/164 47/59/165 55/69/166 54/68/167
s 2
f 17/21/168 16/20/169 57/71/170 56/70/171
s 5
f 47/59/165 48/61/172 58/72/173 55/69/166
s 2
f 18/23/174 17/21/168 56/70/171 59/73/175
f 19/25/74 18/22/174 59/75/175 60/74/176
s 5
f 48/60/172 49/63/177 61/77/178 58/76/173
s 2
f 23/28/76 22/29/75 62/79/179 63/78/180
s 5
f 50/64/181 51/65/182 65/81/183 64/80/184
f 51/65/182 52/66/185 66/82/186 65/81/183
s 2
f 27/33/87 23/28/76 63/78/180 67/83/187
s 5
f 53/67/188 46/58/164 54/68/167 68/84/189
s 2
f 16/20/169 21/27/85 69/85/190 57/71/170
s 5
f 49/62/177 50/64/181 64/80/184 61/86/178
s 2
f 22/29/75 19/24/74 60/87/176 62/79/179
s 5
f 52/66/185 53/67/188 68/84/189 66/82/186
s 2
f 21/27/85 27/33/87 67/83/187 69/85/190
