# This file uses meters as units for non-parametric coordinates.

mtllib 15.mtl
g default
v 106.956482 0.410376 20.143904
v 106.956482 81.263779 20.143904
v 66.668671 81.263779 -20.143904
v 106.956482 81.263779 -20.143904
v 66.668671 0.410376 -20.143904
v 106.956482 0.410376 -20.143904
v 66.668671 0.410376 2.016215
v 84.796364 0.410376 20.143904
v 66.668671 81.263779 2.016215
v 84.796364 81.263779 20.143904
v 84.796364 81.263779 -20.143904
v 106.956482 81.263779 2.016204
v 106.956482 0.410376 2.016204
v 84.796364 0.410376 -20.143904
v 106.956482 79.010559 20.143904
v 106.956482 79.010551 2.016204
v 106.956482 79.010551 -20.143904
v 84.796364 79.010551 -20.143904
v 66.668671 79.010551 -20.143904
v 66.668671 79.010559 2.016215
v 84.796364 79.010551 20.143904
v 84.286888 81.263779 21.373903
v 84.286888 79.010551 21.373903
v 108.186485 79.010559 21.373903
v 108.186485 81.263779 21.373903
v 65.438690 81.263779 -21.373903
v 84.796364 81.263779 -21.373903
v 84.796364 79.010551 -21.373903
v 65.438690 79.010551 -21.373903
v 108.186485 81.263779 2.016204
v 108.186485 79.010551 2.016204
v 108.186485 79.010551 -21.373903
v 108.186485 81.263779 -21.373903
v 65.438690 79.010559 2.525697
v 65.438690 81.263779 2.525692
v 69.898705 81.263779 0.678306
v 84.796364 81.263779 -16.913904
v 69.898705 81.263779 -16.913904
v 103.726494 81.263779 2.016204
v 103.726494 81.263779 -16.913904
v 86.134293 81.263779 16.913904
v 103.726494 81.263779 16.913904
v 69.898705 102.045242 0.678306
v 84.796364 102.045242 2.016204
v 84.796364 102.045242 -16.913904
v 69.898705 102.045242 -16.913904
v 103.726494 102.045242 2.016204
v 103.726494 102.045242 -16.913904
v 86.134293 102.045242 16.913904
v 103.726494 102.045242 16.913904
v 69.898705 100.173874 0.678306
v 86.134293 100.173874 16.913904
v 103.726494 100.173874 16.913904
v 103.726494 100.173874 2.016204
v 103.726494 100.173874 -16.913904
v 84.796364 100.173874 -16.913904
v 69.898705 100.173874 -16.913904
v 84.796364 100.173874 -17.373903
v 69.438705 100.173874 -17.373903
v 69.438705 102.045242 -17.373903
v 84.796364 102.045242 -17.373903
v 69.438705 100.173874 0.868839
v 69.438705 102.045242 0.868823
v 104.186470 100.173874 2.016204
v 104.186470 100.173874 -17.373903
v 104.186470 102.045242 -17.373903
v 104.186470 102.045242 2.016204
v 85.943748 100.173874 17.373903
v 85.943771 102.045242 17.373903
v 104.186470 100.173874 17.373903
v 104.186470 102.045242 17.373903
vt 0.625000 0.000000
vt 0.625000 0.500000
vt 0.375000 0.750000
vt 0.875000 0.000000
vt 0.875000 0.250000
vt 0.625000 0.750000
vt 0.375000 0.362489
vt 0.375000 0.500000
vt 0.125000 0.000000
vt 0.262511 0.000000
vt 0.125000 0.250000
vt 0.487489 0.250000
vt 0.625000 0.250000
vt 0.487489 0.000000
vt 0.262511 0.250000
vt 0.487489 0.500000
vt 0.487489 0.362489
vt 0.625000 0.362489
vt 0.737489 0.250000
vt 0.737489 0.000000
vt 0.487489 0.750000
vt 0.625000 0.243033
vt 0.737489 0.243033
vt 0.625000 0.506967
vt 0.875000 0.243033
vt 0.487489 0.506967
vt 0.125000 0.243033
vt 0.375000 0.506967
vt 0.262511 0.243033
vt 0.487489 0.243033
vt 0.487489 0.243033
vt 0.625000 0.243033
vt 0.625000 0.250000
vt 0.487489 0.250000
vt 0.375000 0.500000
vt 0.487489 0.500000
vt 0.487489 0.506967
vt 0.375000 0.506967
vt 0.737489 0.243033
vt 0.875000 0.243033
vt 0.875000 0.250000
vt 0.737489 0.250000
vt 0.125000 0.243033
vt 0.262511 0.243033
vt 0.262511 0.250000
vt 0.125000 0.250000
vt 0.625000 0.506967
vt 0.625000 0.500000
vt 0.487489 0.500000
vt 0.375000 0.500000
vt 0.375000 0.362489
vt 0.625000 0.362489
vt 0.625000 0.500000
vt 0.487489 0.250000
vt 0.625000 0.250000
vt 0.487489 0.500000
vt 0.375000 0.500000
vt 0.375000 0.362489
vt 0.625000 0.362489
vt 0.625000 0.500000
vt 0.487489 0.250000
vt 0.625000 0.250000
vt 0.375000 0.362489
vt 0.487489 0.250000
vt 0.625000 0.250000
vt 0.625000 0.362489
vt 0.625000 0.500000
vt 0.487489 0.500000
vt 0.375000 0.500000
vt 0.487489 0.500000
vt 0.375000 0.500000
vt 0.375000 0.500000
vt 0.487489 0.500000
vt 0.375000 0.362489
vt 0.375000 0.362489
vt 0.625000 0.362489
vt 0.625000 0.500000
vt 0.625000 0.500000
vt 0.625000 0.362489
vt 0.487489 0.250000
vt 0.487489 0.250000
vt 0.625000 0.250000
vt 0.625000 0.250000
vn -0.000000 0.000000 1.000000
vn -0.000000 0.000000 1.000000
vn -0.000000 0.000000 1.000000
vn -0.000000 0.000000 1.000000
vn 0.000000 0.000000 -1.000000
vn 0.000000 0.000000 -1.000000
vn 0.000000 0.000000 -1.000000
vn 0.000000 0.000000 -1.000000
vn 1.000000 0.000000 0.000000
vn 1.000000 0.000000 0.000000
vn 1.000000 0.000000 0.000000
vn 1.000000 0.000000 0.000000
vn -1.000000 0.000000 0.000000
vn -1.000000 0.000000 0.000000
vn -1.000000 0.000000 0.000000
vn -1.000000 0.000000 0.000000
vn 0.000000 1.000000 -0.000000
vn 0.000000 1.000000 0.000000
vn 0.000000 1.000000 0.000000
vn 0.000000 1.000000 0.000000
vn -0.707108 0.000002 0.707106
vn -0.707108 0.000002 0.707106
vn -0.707108 0.000002 0.707106
vn -0.707108 0.000002 0.707106
vn 0.000000 1.000000 0.000000
vn 0.000000 1.000000 0.000000
vn 0.000000 1.000000 0.000000
vn 0.000000 1.000000 0.000000
vn 1.000000 0.000000 0.000000
vn 1.000000 0.000000 0.000000
vn 0.000000 0.000000 -1.000000
vn 0.000000 0.000000 -1.000000
vn 1.000000 0.000000 0.000000
vn 1.000000 0.000000 0.000000
vn 1.000000 0.000000 0.000000
vn 1.000000 0.000000 0.000000
vn 1.000000 0.000000 0.000000
vn 1.000000 0.000000 0.000000
vn 0.000000 0.000000 -1.000000
vn 0.000000 0.000000 -1.000000
vn 0.000000 0.000000 -1.000000
vn 0.000000 0.000000 -1.000000
vn 0.000000 0.000000 -1.000000
vn 0.000000 0.000000 -1.000000
vn -1.000000 0.000000 0.000000
vn -1.000000 0.000000 0.000000
vn -1.000000 0.000000 0.000000
vn -1.000000 0.000000 0.000000
vn -0.707107 0.000000 0.707107
vn -0.707107 0.000000 0.707107
vn -0.707107 0.000000 0.707107
vn -0.707107 0.000000 0.707107
vn 0.000000 0.000000 1.000000
vn 0.000000 0.000000 1.000000
vn 0.000000 0.000000 1.000000
vn 0.000000 0.000000 1.000000
vn 0.000000 -1.000000 0.000000
vn 0.000000 -1.000000 0.000002
vn 0.000000 -1.000000 0.000002
vn 0.000000 -1.000000 0.000000
vn 0.000000 1.000000 0.000000
vn 0.000000 1.000000 0.000001
vn 0.000000 1.000000 0.000001
vn 0.000000 1.000000 0.000000
vn 0.000000 1.000000 0.000000
vn 0.000000 1.000000 0.000000
vn 0.000000 1.000000 0.000000
vn 0.000000 1.000000 0.000000
vn 0.000000 -1.000000 0.000000
vn -0.000000 -1.000000 0.000000
vn -0.000000 -1.000000 0.000000
vn 0.000000 -1.000000 0.000000
vn -0.000000 -1.000000 0.000000
vn 0.000000 -1.000000 0.000000
vn 0.000000 -1.000000 0.000000
vn -0.000000 -1.000000 0.000000
vn 0.000000 1.000000 0.000000
vn 0.000000 1.000000 0.000000
vn 0.000000 1.000000 0.000000
vn 0.000000 1.000000 0.000000
vn -0.000000 -1.000000 -0.000001
vn -0.000000 -1.000000 -0.000001
vn 0.000000 1.000000 0.000001
vn 0.000000 1.000000 0.000001
vn 0.000000 1.000000 0.000000
vn 0.000000 1.000000 0.000000
vn 0.000000 1.000000 0.000000
vn 0.000000 1.000000 0.000000
vn 0.000000 1.000000 0.000000
vn 0.000000 1.000000 0.000001
vn 0.000000 1.000000 0.000000
vn 0.000000 0.000000 -1.000000
vn 0.000000 0.000000 -1.000000
vn 0.000000 0.000000 -1.000000
vn 0.000000 0.000000 -1.000000
vn -1.000000 -0.000004 0.000000
vn -1.000000 -0.000004 0.000000
vn -1.000000 -0.000004 0.000000
vn -1.000000 -0.000004 0.000000
vn 1.000000 0.000000 0.000000
vn 1.000000 0.000000 0.000000
vn 1.000000 0.000000 0.000000
vn 1.000000 0.000000 0.000000
vn 0.000000 0.000000 -1.000000
vn 0.000000 0.000000 -1.000000
vn 0.000000 0.000000 -1.000000
vn 0.000000 0.000000 -1.000000
vn -0.707108 0.000010 0.707106
vn -0.707108 0.000010 0.707106
vn -0.707108 0.000010 0.707106
vn -0.707108 0.000010 0.707106
vn 0.000000 0.000000 1.000000
vn 0.000000 0.000000 1.000000
vn 0.000000 0.000000 1.000000
vn 0.000000 0.000000 1.000000
vn 1.000000 0.000000 0.000000
vn 1.000000 0.000000 0.000000
vn 1.000000 0.000000 0.000000
vn 1.000000 0.000000 0.000000
vn -0.707107 0.000000 0.707107
vn -0.707107 0.000000 0.707107
vn -0.707107 0.000000 0.707107
vn -0.707107 0.000000 0.707107
vn 0.000000 0.000000 1.000000
vn 0.000000 0.000000 1.000000
vn 0.000000 0.000000 1.000000
vn 0.000000 0.000000 1.000000
vn 1.000000 0.000000 0.000000
vn 1.000000 0.000000 0.000000
vn 1.000000 0.000000 0.000000
vn 1.000000 0.000000 0.000000
vn 1.000000 0.000000 0.000000
vn 1.000000 0.000000 0.000000
vn 1.000000 0.000000 0.000000
vn 1.000000 0.000000 0.000000
vn 0.000000 0.000000 -1.000000
vn 0.000000 0.000000 -1.000000
vn 0.000000 0.000000 -1.000000
vn 0.000000 0.000000 -1.000000
vn 0.000000 0.000000 -1.000000
vn 0.000000 0.000000 -1.000000
vn 0.000000 0.000000 -1.000000
vn 0.000000 0.000000 -1.000000
vn -1.000000 0.000000 0.000000
vn -1.000000 0.000000 0.000000
vn -1.000000 0.000000 0.000000
vn -1.000000 0.000000 0.000000
vn 0.000000 -1.000000 -0.000010
vn 0.000000 -1.000000 -0.000008
vn 0.000000 -1.000000 -0.000008
vn 0.000000 -1.000000 -0.000010
vn 0.000000 1.000000 0.000005
vn 0.000000 1.000000 0.000005
vn 0.000000 -1.000000 0.000003
vn 0.000000 -1.000000 0.000003
vn 0.000000 1.000000 -0.000001
vn 0.000000 -1.000000 0.000000
vn 0.000000 -1.000000 -0.000002
vn 0.000000 -1.000000 -0.000002
vn 0.000000 -1.000000 0.000000
vn 0.000000 1.000000 0.000000
vn 0.000000 1.000000 0.000000
vn 0.000000 -1.000000 0.000002
vn 0.000000 -1.000000 0.000002
vn 0.000000 1.000000 0.000001
vn 0.000000 -1.000000 -0.000001
vn 0.000000 -1.000000 -0.000001
vn 0.000000 1.000000 0.000002
s off
g pCube20
usemtl initialShadingGroup
f 22/34/1 23/31/2 24/32/3 25/33/4
s 1
f 26/35/5 27/36/6 28/37/7 29/38/8
s 2
f 30/42/9 31/39/10 32/40/11 33/41/12
s off
f 29/43/13 34/44/14 35/45/15 26/46/16
s 3
f 43/58/17 44/17/18 45/56/19 46/57/20
s off
f 34/44/21 23/31/22 22/34/23 35/45/24
s 3
f 45/56/19 44/17/18 47/59/25 48/60/26
f 43/58/17 49/61/27 44/17/18
f 47/59/25 44/17/18 49/61/27 50/62/28
s 2
f 24/32/29 31/39/10 30/42/9 25/33/30
s 1
f 32/47/31 28/37/7 27/36/6 33/48/32
s 4
f 1/1/33 13/20/34 16/23/35 15/22/36
f 17/25/37 16/23/35 13/20/34 6/4/38
s 5
f 14/21/39 18/26/40 17/24/41 6/6/42
f 19/28/43 18/26/40 14/21/39 5/3/44
s off
f 5/9/45 7/10/46 20/29/47 19/27/48
f 7/10/49 8/14/50 21/30/51 20/29/52
f 15/22/53 21/30/54 8/14/55 1/1/56
s 6
f 21/30/57 15/22/58 24/32/59 23/31/60
s 7
f 2/13/61 10/12/62 22/34/63 25/33/64
f 3/8/65 11/16/66 27/36/67 26/35/68
s 6
f 18/26/69 19/28/70 29/38/71 28/37/72
f 16/23/73 17/25/74 32/40/75 31/39/76
s 7
f 4/5/77 12/19/78 30/42/79 33/41/80
s 6
f 19/27/70 20/29/81 34/44/82 29/43/71
s 7
f 9/15/83 3/11/65 26/46/68 35/45/84
s 6
f 20/29/81 21/30/57 23/31/60 34/44/82
s 7
f 10/12/62 9/15/83 35/45/84 22/34/63
s 6
f 15/22/58 16/23/73 31/39/76 24/32/59
s 7
f 12/19/78 2/13/61 25/33/64 30/42/79
s 6
f 17/24/74 18/26/69 28/37/72 32/47/75
s 7
f 11/16/66 4/2/77 33/48/80 27/36/67
f 11/16/66 3/8/65 38/50/85 37/49/86
f 3/8/65 9/7/83 36/51/87 38/50/85
f 12/18/78 4/2/77 40/53/88 39/52/89
f 4/2/77 11/16/66 37/49/86 40/53/88
f 9/7/83 10/12/62 41/54/90 36/51/87
f 10/12/62 2/13/61 42/55/91 41/54/90
f 2/13/61 12/18/78 39/52/89 42/55/91
s off
f 58/70/92 59/71/93 60/72/94 61/73/95
f 59/71/96 62/74/97 63/75/98 60/72/99
f 64/76/100 65/77/101 66/78/102 67/79/103
f 65/77/104 58/70/105 61/73/106 66/78/107
f 62/74/108 68/80/109 69/81/110 63/75/111
f 68/80/112 70/82/113 71/83/114 69/81/115
f 70/82/116 64/76/117 67/79/118 71/83/119
f 36/51/120 41/54/121 52/64/122 51/63/123
f 41/54/124 42/55/125 53/65/126 52/64/127
f 42/55/128 39/52/129 54/66/130 53/65/131
f 39/52/132 40/53/133 55/67/134 54/66/135
f 40/53/136 37/49/137 56/68/138 55/67/139
f 37/49/140 38/50/141 57/69/142 56/68/143
f 38/50/144 36/51/145 51/63/146 57/69/147
s 11
f 56/68/148 57/69/149 59/71/150 58/70/151
s 3
f 46/57/20 45/56/19 61/73/152 60/72/153
s 11
f 57/69/149 51/63/154 62/74/155 59/71/150
s 3
f 43/58/17 46/57/20 60/72/153 63/75/156
s 11
f 54/66/157 55/67/158 65/77/159 64/76/160
s 3
f 48/60/26 47/59/25 67/79/161 66/78/162
s 11
f 55/67/158 56/68/148 58/70/151 65/77/159
s 3
f 45/56/19 48/60/26 66/78/162 61/73/152
s 11
f 51/63/154 52/64/163 68/80/164 62/74/155
s 3
f 49/61/27 43/58/17 63/75/156 69/81/165
s 11
f 52/64/163 53/65/166 70/82/167 68/80/164
s 3
f 50/62/28 49/61/27 69/81/165 71/83/168
s 11
f 53/65/166 54/66/157 64/76/160 70/82/167
s 3
f 47/59/25 50/62/28 71/83/168 67/79/161
