# This file uses meters as units for non-parametric coordinates.

mtllib 2.mtl
g default
v -563.386108 -0.450409 21.037518
v -536.958008 -0.450409 21.037518
v -563.386108 41.624626 21.037518
v -536.958008 41.624626 21.037518
v -563.386108 41.624626 -21.037518
v -536.958008 41.624626 -21.037518
v -563.386108 -0.450409 -21.037518
v -536.958008 -0.450409 -21.037518
v -571.245483 -0.450409 -21.037518
v -571.245483 -0.450409 21.037518
v -571.245483 41.624626 21.037518
v -571.245483 41.624626 -21.037518
v -563.386108 89.457245 21.037518
v -536.958008 89.457245 21.037518
v -536.958008 89.457245 -21.037518
v -563.386108 89.457245 -21.037518
v -563.386108 75.286591 21.037518
v -536.958008 75.286591 21.037518
v -536.958008 75.286591 -21.037518
v -563.386108 75.286591 -21.037518
v -527.082336 -0.450409 -21.037518
v -527.082336 -0.450409 21.037518
v -527.082336 41.624626 -21.037518
v -527.082336 41.624626 21.037518
v -527.082336 75.286591 -21.037518
v -527.082336 75.286591 21.037518
v -563.386108 73.443741 21.037518
v -536.958008 73.443741 21.037518
v -527.082336 73.443741 21.037518
v -527.082336 73.443741 -21.037518
v -536.958008 73.443741 -21.037518
v -563.386108 73.443741 -21.037518
v -563.386108 87.513626 21.037518
v -563.386108 87.513626 -21.037518
v -536.958008 87.513626 -21.037518
v -536.958008 87.513626 21.037518
v -563.386108 39.370201 21.037518
v -536.958008 39.370201 21.037518
v -527.082336 39.370201 21.037518
v -527.082336 39.370186 -21.037518
v -536.958008 39.370186 -21.037518
v -563.386108 39.370186 -21.037518
v -571.245483 39.370186 -21.037518
v -571.245483 39.370201 21.037518
v -563.386108 39.370201 21.787518
v -536.958008 39.370201 21.787518
v -536.958008 41.624626 21.787518
v -563.386108 41.624626 21.787518
v -563.386108 41.624626 -21.787518
v -536.958008 41.624626 -21.787518
v -536.958008 39.370186 -21.787518
v -563.386108 39.370186 -21.787518
v -526.332336 39.370201 21.787518
v -526.332336 39.370186 -21.787518
v -526.332336 41.624626 -21.787518
v -526.332336 41.624626 21.787518
v -571.995483 39.370186 -21.787518
v -571.995483 39.370201 21.787518
v -571.995483 41.624626 21.787518
v -571.995483 41.624626 -21.787518
v -564.136108 73.443741 21.787518
v -536.958008 73.443741 21.787518
v -536.958008 75.286591 21.787518
v -564.136108 75.286591 21.787518
v -526.332336 73.443741 21.787518
v -526.332336 73.443741 -21.787518
v -526.332336 75.286591 -21.787518
v -526.332336 75.286591 21.787518
v -536.958008 73.443741 -21.787518
v -564.136108 73.443741 -21.787518
v -564.136108 75.286591 -21.787518
v -536.958008 75.286591 -21.787518
v -564.136108 87.513626 21.787518
v -564.136108 87.513626 -21.787518
v -564.136108 89.457245 21.787518
v -564.136108 89.457245 -21.787518
v -536.208008 87.513626 -21.787518
v -536.208008 89.457245 -21.787518
v -536.208008 87.513626 21.787518
v -536.208008 89.457245 21.787518
vt 0.375000 0.000000
vt 0.625000 0.000000
vt 0.375000 0.250000
vt 0.625000 0.250000
vt 0.375000 0.500000
vt 0.625000 0.500000
vt 0.375000 0.750000
vt 0.625000 0.750000
vt 0.875000 0.000000
vt 0.875000 0.250000
vt 0.125000 0.000000
vt 0.125000 0.250000
vt 0.125000 0.000000
vt 0.375000 0.000000
vt 0.375000 0.250000
vt 0.125000 0.250000
vt 0.375000 0.250000
vt 0.625000 0.250000
vt 0.625000 0.500000
vt 0.375000 0.500000
vt 0.375000 0.250000
vt 0.625000 0.250000
vt 0.625000 0.500000
vt 0.375000 0.500000
vt 0.625000 0.000000
vt 0.875000 0.000000
vt 0.875000 0.250000
vt 0.625000 0.250000
vt 0.625000 0.500000
vt 0.625000 0.500000
vt 0.625000 0.250000
vt 0.375000 0.250000
vt 0.625000 0.250000
vt 0.625000 0.250000
vt 0.625000 0.500000
vt 0.625000 0.500000
vt 0.375000 0.500000
vt 0.375000 0.250000
vt 0.375000 0.500000
vt 0.625000 0.500000
vt 0.625000 0.250000
vt 0.375000 0.236605
vt 0.625000 0.236605
vt 0.625000 0.236605
vt 0.875000 0.236605
vt 0.625000 0.513395
vt 0.875000 0.236605
vt 0.125000 0.236605
vt 0.375000 0.513395
vt 0.125000 0.236605
vt 0.375000 0.236605
vt 0.375000 0.236605
vt 0.625000 0.236605
vt 0.625000 0.250000
vt 0.375000 0.250000
vt 0.375000 0.500000
vt 0.625000 0.500000
vt 0.625000 0.513395
vt 0.375000 0.513395
vt 0.625000 0.236605
vt 0.875000 0.236605
vt 0.875000 0.250000
vt 0.625000 0.250000
vt 0.125000 0.236605
vt 0.375000 0.236605
vt 0.375000 0.250000
vt 0.125000 0.250000
vt 0.125000 0.236605
vt 0.125000 0.250000
vt 0.375000 0.250000
vt 0.625000 0.250000
vt 0.625000 0.250000
vt 0.375000 0.250000
vt 0.625000 0.250000
vt 0.625000 0.500000
vt 0.625000 0.500000
vt 0.625000 0.250000
vt 0.625000 0.500000
vt 0.375000 0.500000
vt 0.375000 0.500000
vt 0.625000 0.500000
vt 0.875000 0.236605
vt 0.875000 0.250000
vt 0.375000 0.500000
vt 0.375000 0.250000
vt 0.375000 0.250000
vt 0.375000 0.500000
vt 0.625000 0.500000
vt 0.625000 0.500000
vt 0.625000 0.250000
vt 0.625000 0.250000
vn 0.000000 0.000000 1.000000
vn 0.000000 0.000000 1.000000
vn 0.000000 0.000000 1.000000
vn 0.000000 0.000000 1.000000
vn 0.000000 1.000000 0.000000
vn 0.000000 1.000000 0.000000
vn 0.000000 1.000000 -0.000000
vn 0.000000 1.000000 -0.000000
vn 0.000000 0.000000 -1.000000
vn 0.000000 0.000000 -1.000000
vn 0.000000 0.000000 -1.000000
vn 0.000000 0.000000 -1.000000
vn 1.000000 0.000000 0.000000
vn 1.000000 0.000000 0.000000
vn 1.000000 0.000000 0.000000
vn 1.000000 0.000000 0.000000
vn -1.000000 0.000000 0.000000
vn -1.000000 0.000000 0.000000
vn -1.000000 0.000000 0.000000
vn -1.000000 0.000000 0.000000
vn 0.000000 -1.000000 0.000000
vn 0.000000 -1.000000 0.000000
vn 0.000000 -1.000000 0.000000
vn 0.000000 -1.000000 0.000000
vn 0.000000 0.000000 1.000000
vn 0.000000 0.000000 1.000000
vn 0.000000 0.000000 1.000000
vn 0.000000 0.000000 1.000000
vn 0.000000 1.000000 0.000000
vn 0.000000 1.000000 0.000000
vn 0.000000 1.000000 0.000000
vn 0.000000 1.000000 0.000000
vn 0.000000 0.000000 -1.000000
vn 0.000000 0.000000 -1.000000
vn 0.000000 0.000000 -1.000000
vn 0.000000 0.000000 -1.000000
vn 0.000000 0.000000 1.000000
vn 0.000000 0.000000 1.000000
vn 0.000000 0.000000 1.000000
vn 0.000000 0.000000 1.000000
vn 1.000000 0.000000 0.000000
vn 1.000000 0.000000 0.000000
vn 1.000000 0.000000 0.000000
vn 1.000000 0.000000 0.000000
vn 0.000000 0.000000 -1.000000
vn 0.000000 0.000000 -1.000000
vn 0.000000 0.000000 -1.000000
vn 0.000000 0.000000 -1.000000
vn -1.000000 0.000000 0.000000
vn -1.000000 0.000000 0.000000
vn -1.000000 0.000000 0.000000
vn -1.000000 0.000000 0.000000
vn 0.000000 0.000000 1.000000
vn 0.000000 0.000000 1.000000
vn 0.000000 0.000000 1.000000
vn 0.000000 0.000000 1.000000
vn 1.000000 0.000000 0.000000
vn 1.000000 0.000000 0.000000
vn 1.000000 0.000000 0.000000
vn 1.000000 0.000000 0.000000
vn 0.000000 0.000000 -1.000000
vn 0.000000 0.000000 -1.000000
vn 0.000000 0.000000 -1.000000
vn 0.000000 0.000000 -1.000000
vn -1.000000 0.000000 0.000000
vn -1.000000 0.000000 0.000000
vn -1.000000 0.000000 0.000000
vn -1.000000 0.000000 0.000000
vn 0.000000 -1.000000 0.000000
vn 0.000000 -1.000000 0.000000
vn 0.000000 -1.000000 0.000000
vn 0.000000 -1.000000 0.000000
vn 0.000000 0.000000 -1.000000
vn 0.000000 0.000000 -1.000000
vn 0.000000 0.000000 -1.000000
vn 0.000000 0.000000 -1.000000
vn 0.000000 0.000000 1.000000
vn 0.000000 0.000000 1.000000
vn 0.000000 0.000000 1.000000
vn 0.000000 0.000000 1.000000
vn 0.000000 0.000000 -1.000000
vn 0.000000 0.000000 -1.000000
vn 0.000000 0.000000 -1.000000
vn 0.000000 0.000000 -1.000000
vn 0.000000 1.000000 -0.000000
vn 0.000000 1.000000 0.000000
vn 0.000000 1.000000 -0.000000
vn 0.000000 1.000000 0.000000
vn 0.000000 0.000000 1.000000
vn 0.000000 0.000000 1.000000
vn 0.000000 0.000000 1.000000
vn 0.000000 0.000000 1.000000
vn 0.000000 0.000000 1.000000
vn 0.000000 0.000000 1.000000
vn 0.000000 0.000000 1.000000
vn 0.000000 0.000000 1.000000
vn 0.000000 0.000000 1.000000
vn 0.000000 0.000000 1.000000
vn 0.000000 0.000000 1.000000
vn 0.000000 0.000000 1.000000
vn 1.000000 0.000000 0.000000
vn 1.000000 0.000000 0.000000
vn 1.000000 0.000000 0.000000
vn 1.000000 0.000000 0.000000
vn 0.000000 0.000000 -1.000000
vn 0.000000 0.000000 -1.000000
vn 0.000000 0.000000 -1.000000
vn 0.000000 0.000000 -1.000000
vn 0.000000 0.000000 -1.000000
vn 0.000000 0.000000 -1.000000
vn 0.000000 0.000000 -1.000000
vn 0.000000 0.000000 -1.000000
vn -1.000000 0.000000 0.000000
vn -1.000000 0.000000 0.000000
vn -1.000000 0.000000 0.000000
vn -1.000000 0.000000 0.000000
vn -1.000000 0.000000 0.000000
vn -1.000000 0.000000 0.000000
vn -1.000000 0.000000 0.000000
vn -1.000000 0.000000 0.000000
vn 0.000000 0.000000 -1.000000
vn 0.000000 0.000000 -1.000000
vn 0.000000 0.000000 -1.000000
vn 0.000000 0.000000 -1.000000
vn 1.000000 0.000000 0.000000
vn 1.000000 0.000000 0.000000
vn 1.000000 0.000000 0.000000
vn 1.000000 0.000000 0.000000
vn 0.000000 0.000000 1.000000
vn 0.000000 0.000000 1.000000
vn 0.000000 0.000000 1.000000
vn 0.000000 0.000000 1.000000
vn 0.000000 0.000000 1.000000
vn 0.000000 0.000000 1.000000
vn 0.000000 0.000000 1.000000
vn 0.000000 0.000000 1.000000
vn 0.000000 0.000000 1.000000
vn 0.000000 0.000000 1.000000
vn 0.000000 0.000000 1.000000
vn 0.000000 0.000000 1.000000
vn 1.000000 0.000000 0.000000
vn 1.000000 0.000000 0.000000
vn 1.000000 0.000000 0.000000
vn 1.000000 0.000000 0.000000
vn 0.000000 0.000000 -1.000000
vn 0.000000 0.000000 -1.000000
vn 0.000000 0.000000 -1.000000
vn 0.000000 0.000000 -1.000000
vn 0.000000 0.000000 -1.000000
vn 0.000000 0.000000 -1.000000
vn 0.000000 0.000000 -1.000000
vn 0.000000 0.000000 -1.000000
vn 0.000000 0.000000 -1.000000
vn 0.000000 0.000000 -1.000000
vn 0.000000 0.000000 -1.000000
vn 0.000000 0.000000 -1.000000
vn -1.000000 0.000000 0.000000
vn -1.000000 0.000000 0.000000
vn -1.000000 0.000000 0.000000
vn -1.000000 0.000000 0.000000
vn 0.000000 0.000000 1.000000
vn 0.000000 0.000000 1.000000
vn 0.000000 0.000000 1.000000
vn 0.000000 0.000000 1.000000
vn 0.000000 -1.000000 -0.000000
vn 0.000000 -1.000000 0.000000
vn 0.000000 -1.000000 0.000000
vn 0.000000 -1.000000 -0.000000
vn 0.000000 1.000000 -0.000000
vn 0.000000 1.000000 0.000000
vn 0.000000 1.000000 -0.000000
vn 0.000000 1.000000 0.000000
vn 0.000000 1.000000 0.000000
vn 0.000000 1.000000 0.000000
vn 0.000000 -1.000000 -0.000000
vn 0.000000 -1.000000 0.000000
vn 0.000000 -1.000000 0.000000
vn 0.000000 -1.000000 -0.000000
vn 0.000000 -1.000000 0.000000
vn 0.000000 -1.000000 0.000000
vn 0.000000 -1.000000 0.000000
vn 0.000000 -1.000000 0.000000
vn 0.000000 1.000000 0.000000
vn 0.000000 1.000000 -0.000000
vn 0.000000 1.000000 -0.000000
vn 0.000000 1.000000 0.000000
vn 0.000000 -1.000000 0.000000
vn 0.000000 -1.000000 0.000000
vn 0.000000 -1.000000 0.000000
vn 0.000000 -1.000000 0.000000
vn 0.000000 1.000000 0.000000
vn 0.000000 1.000000 0.000000
vn 0.000000 -1.000000 0.000002
vn 0.000000 -1.000000 0.000001
vn 0.000000 -1.000000 0.000001
vn 0.000000 -1.000000 0.000002
vn 0.000000 1.000000 0.000002
vn 0.000000 1.000000 0.000002
vn 0.000000 1.000000 0.000004
vn 0.000000 -1.000000 -0.000002
vn 0.000000 -1.000000 0.000001
vn 0.000000 -1.000000 0.000001
vn 0.000000 -1.000000 -0.000002
vn 0.000000 1.000000 -0.000001
vn 0.000000 1.000000 0.000000
vn 0.000000 -1.000000 -0.000003
vn 0.000000 -1.000000 -0.000002
vn 0.000000 -1.000000 -0.000002
vn 0.000000 -1.000000 -0.000003
vn 0.000000 1.000000 -0.000002
vn 0.000000 1.000000 -0.000004
vn 0.000000 1.000000 -0.000002
vn 0.000000 -1.000000 -0.000001
vn 0.000000 -1.000000 0.000001
vn 0.000000 -1.000000 0.000001
vn 0.000000 -1.000000 -0.000001
vn 0.000000 1.000000 -0.000003
vn 0.000000 1.000000 0.000003
vn 0.000000 -1.000000 -0.000001
vn 0.000000 -1.000000 -0.000001
vn 0.000000 1.000000 -0.000003
vn 0.000000 -1.000000 0.000001
vn 0.000000 -1.000000 0.000001
vn 0.000000 1.000000 0.000003
s off
g pCube23
usemtl initialShadingGroup
f 45/52/1 46/53/2 47/54/3 48/55/4
s 1
f 13/17/5 14/18/6 15/19/7 16/20/8
s off
f 49/56/9 50/57/10 51/58/11 52/59/12
f 53/60/13 54/61/14 55/62/15 56/63/16
f 57/64/17 58/65/18 59/66/19 60/67/20
f 7/11/21 1/1/22 10/14/23 9/13/24
f 58/65/25 45/52/26 48/55/27 59/66/28
s 2
f 3/3/29 5/12/30 12/16/31 11/15/32
s off
f 49/69/33 52/68/34 57/64/35 60/67/36
f 17/21/37 18/22/38 36/41/39 33/38/40
f 18/22/41 19/23/42 35/40/43 36/41/44
f 19/23/45 20/24/46 34/39/47 35/40/48
f 20/24/49 17/21/50 33/38/51 34/39/52
f 61/70/53 62/71/54 63/72/55 64/73/56
f 65/74/57 66/75/58 67/76/59 68/77/60
f 69/78/61 70/79/62 71/80/63 72/81/64
f 70/79/65 61/70/66 64/73/67 71/80/68
f 2/2/69 8/9/70 21/26/71 22/25/72
f 54/61/73 51/82/74 50/83/75 55/62/76
f 47/54/77 46/53/78 53/60/79 56/63/80
f 66/75/81 69/78/82 72/81/83 67/76/84
s 3
f 19/23/85 18/22/86 26/31/87 25/30/88
s off
f 63/72/89 62/71/90 65/74/91 68/77/92
f 3/3/93 4/4/94 28/33/95 27/32/96
f 29/34/97 28/33/98 4/4/99 24/28/100
f 24/28/101 23/29/102 30/35/103 29/34/104
f 6/6/105 31/36/106 30/35/107 23/29/108
f 6/6/109 5/5/110 32/37/111 31/36/112
f 5/5/113 3/3/114 27/32/115 32/37/116
f 74/84/117 73/85/118 75/86/119 76/87/120
f 77/88/121 74/84/122 76/87/123 78/89/124
f 79/90/125 77/88/126 78/89/127 80/91/128
f 73/85/129 79/90/130 80/91/131 75/86/132
f 1/1/133 2/2/134 38/43/135 37/42/136
f 39/44/137 38/43/138 2/2/139 22/25/140
f 22/25/141 21/26/142 40/45/143 39/44/144
f 8/9/145 41/47/146 40/45/147 21/26/148
f 42/49/149 41/46/150 8/8/151 7/7/152
f 43/50/153 42/48/154 7/11/155 9/13/156
f 9/13/157 10/14/158 44/51/159 43/50/160
f 1/1/161 37/42/162 44/51/163 10/14/164
s 4
f 37/42/165 38/43/166 46/53/167 45/52/168
s 2
f 4/4/169 3/3/29 48/55/170 47/54/171
f 5/5/30 6/6/172 50/57/173 49/56/174
s 4
f 41/46/175 42/49/176 52/59/177 51/58/178
f 39/44/179 40/45/180 54/61/181 53/60/182
s 2
f 23/27/183 24/28/184 56/63/185 55/62/186
s 4
f 43/50/187 44/51/188 58/65/189 57/64/190
s 2
f 11/15/32 12/16/31 60/67/191 59/66/192
s 4
f 44/51/188 37/42/165 45/52/168 58/65/189
s 2
f 3/3/29 11/15/32 59/66/192 48/55/170
s 4
f 42/48/176 43/50/187 57/64/190 52/68/177
s 2
f 12/16/31 5/12/30 49/69/174 60/67/191
s 4
f 40/32/180 41/33/175 51/71/178 54/70/181
s 2
f 6/22/172 23/21/183 55/73/186 50/72/173
s 4
f 38/34/166 39/35/179 53/75/182 46/74/167
s 2
f 24/30/184 4/31/169 47/77/171 56/76/185
s 7
f 27/36/193 28/37/194 62/79/195 61/78/196
s 3
f 18/24/86 17/23/197 64/81/198 63/80/199
s 7
f 29/37/200 30/32/201 66/70/202 65/79/203
s 3
f 25/21/88 26/24/87 68/80/204 67/73/205
s 7
f 31/45/206 32/47/207 70/82/208 69/61/209
s 3
f 20/10/210 19/27/85 72/62/211 71/83/212
s 7
f 32/43/207 27/44/193 61/60/196 70/53/208
s 3
f 17/28/197 20/4/210 71/54/212 64/63/198
s 7
f 30/35/201 31/36/206 69/78/209 66/75/202
s 3
f 19/23/85 25/30/88 67/76/205 72/81/211
s 7
f 28/33/194 29/34/200 65/74/203 62/71/195
s 3
f 26/31/87 18/22/86 63/72/199 68/77/204
s 10
f 34/39/213 33/38/214 73/85/215 74/84/216
s 1
f 13/17/5 16/20/8 76/87/217 75/86/218
s 10
f 35/40/219 34/39/213 74/84/216 77/88/220
s 1
f 16/20/8 15/19/7 78/89/221 76/87/217
s 10
f 36/41/222 35/40/219 77/88/220 79/90/223
s 1
f 15/19/7 14/18/6 80/91/224 78/89/221
s 10
f 33/38/214 36/41/222 79/90/223 73/85/215
s 1
f 14/18/6 13/17/5 75/86/218 80/91/224
