# This file uses meters as units for non-parametric coordinates.

mtllib 3.mtl
g default
v -500.381073 -0.450409 21.037518
v -458.306091 -0.450409 21.037518
v -500.381073 89.645370 21.037518
v -458.306091 89.645370 21.037518
v -500.381073 89.645370 -21.037518
v -458.306091 89.645370 -21.037518
v -500.381073 -0.450409 -21.037518
v -458.306091 -0.450409 -21.037518
v -500.381073 -0.450409 0.513316
v -500.381073 89.645370 0.513316
v -458.306091 89.645370 0.513316
v -458.306091 -0.450409 0.513316
v -509.171051 -0.450409 -21.037518
v -509.171051 -0.450409 0.513316
v -509.171051 89.645370 0.513316
v -509.171051 89.645370 -21.037518
v -497.111053 89.645370 -2.756684
v -461.576050 89.645370 0.513316
v -461.576050 89.645370 -17.767519
v -500.381073 89.645370 -17.767519
v -497.111053 89.645370 17.767519
v -461.576050 89.645370 17.767519
v -505.900940 89.645370 -17.767519
v -505.900940 89.645370 -2.756684
v -497.111053 116.833359 -2.756684
v -461.576050 116.833359 0.513316
v -461.576050 116.833359 -17.767519
v -500.381073 116.833359 -17.767519
v -497.111053 116.833359 17.767519
v -461.576050 116.833359 17.767519
v -505.900940 116.833359 -17.767519
v -505.900940 116.833359 -2.756684
v -500.381073 86.970596 21.037518
v -458.306091 86.970596 21.037518
v -458.306091 86.970642 0.513316
v -458.306091 86.970642 -21.037518
v -500.381073 86.970642 -21.037518
v -509.171051 86.970642 -21.037518
v -509.171051 86.970596 0.513316
v -500.381073 86.970596 0.513316
v -501.171051 86.970596 21.827518
v -457.516052 86.970596 21.827518
v -457.516052 89.645370 21.827518
v -501.171051 89.645370 21.827518
v -500.381073 89.645370 -21.827518
v -457.516052 89.645370 -21.827518
v -457.516052 86.970642 -21.827518
v -500.381073 86.970642 -21.827518
v -457.516052 89.645370 0.513316
v -457.516052 86.970642 0.513316
v -509.960938 86.970642 -21.827518
v -509.960938 86.970596 1.303316
v -509.960938 89.645370 1.303316
v -509.960938 89.645370 -21.827518
v -501.171051 86.970596 1.303316
v -501.171051 89.645370 1.303316
v -497.111053 114.107300 -2.756684
v -497.111053 114.107300 17.767519
v -461.576050 114.107300 17.767519
v -461.576050 114.107300 0.513316
v -461.576050 114.107300 -17.767519
v -500.381073 114.107300 -17.767519
v -505.900940 114.107300 -17.767519
v -505.900940 114.107300 -2.756684
v -460.706024 114.107300 0.513316
v -460.706024 114.107300 -18.637522
v -460.706024 116.833359 -18.637522
v -460.706024 116.833359 0.513316
v -500.381073 114.107300 -18.637522
v -500.381073 116.833359 -18.637522
v -497.981018 114.107300 18.637522
v -460.706024 114.107300 18.637522
v -460.706024 116.833359 18.637522
v -497.981018 116.833359 18.637522
v -497.981018 114.107300 -1.886684
v -497.981018 116.833359 -1.886684
v -506.770966 114.107300 -18.637522
v -506.770966 116.833359 -18.637522
v -506.770966 114.107300 -1.886684
v -506.770966 116.833359 -1.886684
vt 0.375000 0.000000
vt 0.625000 0.000000
vt 0.375000 0.250000
vt 0.625000 0.250000
vt 0.375000 0.500000
vt 0.625000 0.500000
vt 0.375000 0.750000
vt 0.625000 0.750000
vt 0.875000 0.000000
vt 0.875000 0.250000
vt 0.125000 0.000000
vt 0.125000 0.250000
vt 0.253050 0.000000
vt 0.253050 0.250000
vt 0.375000 0.371950
vt 0.625000 0.371950
vt 0.746950 0.250000
vt 0.746950 0.000000
vt 0.125000 0.000000
vt 0.253050 0.000000
vt 0.253050 0.250000
vt 0.125000 0.250000
vt 0.625000 0.371950
vt 0.625000 0.500000
vt 0.375000 0.500000
vt 0.375000 0.250000
vt 0.625000 0.250000
vt 0.375000 0.371950
vt 0.125000 0.250000
vt 0.125000 0.250000
vt 0.253050 0.250000
vt 0.253050 0.250000
vt 0.625000 0.371950
vt 0.625000 0.500000
vt 0.375000 0.500000
vt 0.375000 0.250000
vt 0.625000 0.250000
vt 0.375000 0.371950
vt 0.125000 0.250000
vt 0.125000 0.250000
vt 0.253050 0.250000
vt 0.253050 0.250000
vt 0.375000 0.242578
vt 0.625000 0.242578
vt 0.746950 0.242578
vt 0.625000 0.507422
vt 0.875000 0.242578
vt 0.125000 0.242578
vt 0.375000 0.507422
vt 0.125000 0.242578
vt 0.253050 0.242578
vt 0.253050 0.242578
vt 0.375000 0.242578
vt 0.625000 0.242578
vt 0.625000 0.250000
vt 0.375000 0.250000
vt 0.375000 0.500000
vt 0.625000 0.500000
vt 0.625000 0.507422
vt 0.375000 0.507422
vt 0.746950 0.242578
vt 0.875000 0.242578
vt 0.875000 0.250000
vt 0.746950 0.250000
vt 0.125000 0.242578
vt 0.253050 0.242578
vt 0.253050 0.250000
vt 0.125000 0.250000
vt 0.253050 0.242578
vt 0.253050 0.250000
vt 0.125000 0.242578
vt 0.125000 0.250000
vt 0.253050 0.250000
vt 0.375000 0.371950
vt 0.375000 0.250000
vt 0.625000 0.250000
vt 0.625000 0.371950
vt 0.625000 0.500000
vt 0.375000 0.500000
vt 0.125000 0.250000
vt 0.125000 0.250000
vt 0.253050 0.250000
vt 0.625000 0.371950
vt 0.625000 0.500000
vt 0.625000 0.500000
vt 0.625000 0.371950
vt 0.375000 0.500000
vt 0.375000 0.500000
vt 0.375000 0.250000
vt 0.625000 0.250000
vt 0.625000 0.250000
vt 0.375000 0.250000
vt 0.375000 0.371950
vt 0.375000 0.371950
vt 0.125000 0.250000
vt 0.125000 0.250000
vt 0.125000 0.250000
vt 0.125000 0.250000
vt 0.253050 0.250000
vt 0.253050 0.250000
vt 0.253050 0.250000
vt 0.253050 0.250000
vn 0.000000 0.000000 1.000000
vn 0.000000 0.000000 1.000000
vn 0.000000 0.000000 1.000000
vn 0.000000 0.000000 1.000000
vn 0.000000 1.000000 -0.000000
vn 0.000000 1.000000 0.000000
vn 0.000000 1.000000 0.000000
vn 0.000000 1.000000 -0.000000
vn 0.000000 0.000000 -1.000000
vn 0.000000 0.000000 -1.000000
vn 0.000000 0.000000 -1.000000
vn 0.000000 0.000000 -1.000000
vn 1.000000 0.000000 0.000000
vn 1.000000 0.000000 0.000000
vn 1.000000 0.000000 0.000000
vn 1.000000 0.000000 0.000000
vn -1.000000 0.000000 0.000000
vn -1.000000 0.000000 0.000000
vn -1.000000 0.000000 0.000000
vn -1.000000 0.000000 0.000000
vn -1.000000 0.000000 0.000000
vn -1.000000 0.000000 0.000000
vn -1.000000 0.000000 0.000000
vn -1.000000 0.000000 0.000000
vn 0.000000 1.000000 0.000000
vn 0.000000 1.000000 0.000000
vn 1.000000 0.000000 0.000000
vn 1.000000 0.000000 0.000000
vn 0.000000 -1.000000 0.000000
vn 0.000000 -1.000000 0.000000
vn 0.000000 -1.000000 0.000000
vn 0.000000 -1.000000 0.000000
vn 0.000000 0.000000 1.000000
vn 0.000000 0.000000 1.000000
vn 0.000000 0.000000 1.000000
vn 0.000000 0.000000 1.000000
vn 0.000000 1.000000 -0.000000
vn 0.000000 1.000000 -0.000000
vn 0.000000 0.000000 -1.000000
vn 0.000000 0.000000 -1.000000
vn 0.000000 0.000000 -1.000000
vn 0.000000 0.000000 -1.000000
vn 0.000000 1.000000 0.000000
vn 0.000000 1.000000 0.000000
vn 0.000000 1.000000 0.000000
vn 0.000000 1.000000 0.000000
vn 0.000000 1.000000 0.000001
vn 0.000000 1.000000 0.000001
vn 0.000000 1.000000 0.000001
vn 0.000000 1.000000 0.000001
vn 0.000000 1.000000 0.000000
vn 0.000000 1.000000 0.000000
vn 0.000000 1.000000 0.000001
vn 0.000000 1.000000 0.000001
vn 0.000000 1.000000 0.000001
vn 0.000000 1.000000 0.000000
vn 0.000000 1.000000 0.000000
vn 0.000000 1.000000 0.000001
vn 1.000000 0.000000 0.000000
vn 1.000000 0.000000 0.000000
vn 1.000000 0.000000 0.000000
vn 1.000000 0.000000 0.000000
vn 0.000000 0.000000 -1.000000
vn 0.000000 0.000000 -1.000000
vn 0.000000 0.000000 -1.000000
vn 0.000000 0.000000 -1.000000
vn 0.000000 0.000000 1.000000
vn 0.000000 0.000000 1.000000
vn 0.000000 0.000000 1.000000
vn 0.000000 0.000000 1.000000
vn 1.000000 0.000000 0.000000
vn 1.000000 0.000000 0.000000
vn 1.000000 0.000000 0.000000
vn 1.000000 0.000000 0.000000
vn -1.000000 0.000000 0.000000
vn -1.000000 0.000000 0.000000
vn -1.000000 0.000000 0.000000
vn -1.000000 0.000000 0.000000
vn 0.000000 0.000000 -1.000000
vn 0.000000 0.000000 -1.000000
vn 0.000000 0.000000 -1.000000
vn 0.000000 0.000000 -1.000000
vn -1.000000 0.000000 0.000000
vn -1.000000 0.000000 0.000000
vn -1.000000 0.000000 0.000000
vn -1.000000 0.000000 0.000000
vn 0.000000 0.000000 1.000000
vn 0.000000 0.000000 1.000000
vn 0.000000 0.000000 1.000000
vn 0.000000 0.000000 1.000000
vn 0.000000 0.000000 1.000000
vn 0.000000 0.000000 1.000000
vn 0.000000 0.000000 1.000000
vn 0.000000 0.000000 1.000000
vn 1.000000 0.000000 0.000000
vn 1.000000 0.000000 0.000000
vn 1.000000 0.000000 0.000000
vn 1.000000 0.000000 0.000000
vn 1.000000 0.000000 0.000000
vn 1.000000 0.000000 0.000000
vn 0.000000 0.000000 -1.000000
vn 0.000000 0.000000 -1.000000
vn 0.000000 0.000000 -1.000000
vn 0.000000 0.000000 -1.000000
vn 0.000000 0.000000 -1.000000
vn 0.000000 0.000000 -1.000000
vn 0.000000 0.000000 -1.000000
vn 0.000000 0.000000 -1.000000
vn -1.000000 0.000000 0.000000
vn -1.000000 0.000000 0.000000
vn -1.000000 0.000000 0.000000
vn -1.000000 0.000000 0.000000
vn 0.000000 0.000000 1.000000
vn 0.000000 0.000000 1.000000
vn 0.000000 0.000000 1.000000
vn 0.000000 0.000000 1.000000
vn -1.000000 0.000000 0.000000
vn -1.000000 0.000000 0.000000
vn -1.000000 0.000000 0.000000
vn -1.000000 0.000000 0.000000
vn 0.000000 -1.000000 -0.000000
vn 0.000000 -1.000000 -0.000001
vn 0.000000 -1.000000 -0.000001
vn 0.000000 -1.000000 -0.000000
vn 0.000000 1.000000 0.000002
vn 0.000000 1.000000 0.000002
vn 0.000000 1.000000 0.000000
vn 0.000000 1.000000 0.000001
vn 0.000000 -1.000000 0.000000
vn 0.000000 -1.000000 0.000000
vn 0.000000 -1.000000 0.000000
vn 0.000000 -1.000000 0.000000
vn 0.000001 -1.000000 -0.000001
vn 0.000001 -1.000000 -0.000001
vn 0.000000 1.000000 0.000000
vn 0.000000 -1.000000 -0.000002
vn 0.000000 -1.000000 -0.000002
vn 0.000000 -1.000000 -0.000002
vn 0.000000 -1.000000 -0.000002
vn 0.000000 1.000000 0.000001
vn 0.000000 1.000000 0.000000
vn 0.000000 -1.000000 0.000000
vn 0.000000 -1.000000 0.000000
vn 0.000000 1.000000 0.000000
vn -1.000000 0.000000 0.000000
vn -1.000000 0.000000 0.000000
vn -1.000000 0.000000 0.000000
vn -1.000000 0.000000 0.000000
vn 0.000000 0.000000 1.000000
vn 0.000000 0.000000 1.000000
vn 0.000000 0.000000 1.000000
vn 0.000000 0.000000 1.000000
vn 1.000000 0.000000 0.000000
vn 1.000000 0.000000 0.000000
vn 1.000000 0.000000 0.000000
vn 1.000000 0.000000 0.000000
vn 1.000000 0.000000 0.000000
vn 1.000000 0.000000 0.000000
vn 1.000000 0.000000 0.000000
vn 1.000000 0.000000 0.000000
vn 0.000000 0.000000 -1.000000
vn 0.000000 0.000000 -1.000000
vn 0.000000 0.000000 -1.000000
vn 0.000000 0.000000 -1.000000
vn 0.000000 0.000000 -1.000000
vn 0.000000 0.000000 -1.000000
vn 0.000000 0.000000 -1.000000
vn 0.000000 0.000000 -1.000000
vn -1.000000 0.000000 0.000000
vn -1.000000 0.000000 0.000000
vn -1.000000 0.000000 0.000000
vn -1.000000 0.000000 0.000000
vn 0.000000 0.000000 1.000000
vn 0.000000 0.000000 1.000000
vn 0.000000 0.000000 1.000000
vn 0.000000 0.000000 1.000000
vn 0.000000 -1.000000 0.000000
vn 0.000000 -1.000000 -0.000002
vn 0.000000 -1.000000 -0.000002
vn 0.000000 -1.000000 0.000000
vn 0.000000 1.000000 0.000000
vn 0.000000 1.000000 0.000000
vn 0.000000 -1.000000 -0.000001
vn 0.000000 -1.000000 -0.000001
vn 0.000000 1.000000 -0.000000
vn 0.000000 -1.000000 0.000004
vn 0.000000 -1.000000 0.000005
vn 0.000000 -1.000000 0.000005
vn 0.000000 -1.000000 0.000004
vn 0.000000 1.000000 0.000001
vn 0.000000 1.000000 0.000001
vn 0.000000 -1.000000 -0.000001
vn 0.000000 -1.000000 -0.000001
vn 0.000000 1.000000 -0.000001
vn 0.000000 -1.000000 0.000003
vn 0.000000 -1.000000 0.000003
vn 0.000000 1.000000 -0.000000
vn 0.000000 -1.000000 -0.000001
vn 0.000000 -1.000000 -0.000001
vn 0.000000 1.000000 -0.000001
s off
g pCube22
usemtl initialShadingGroup
f 41/53/1 42/54/2 43/55/3 44/56/4
s 1
f 25/38/5 26/33/6 27/34/7 28/35/8
s off
f 45/57/9 46/58/10 47/59/11 48/60/12
s 2
f 49/64/13 50/61/14 47/62/15 46/63/16
s off
f 51/65/17 52/66/18 53/67/19 54/68/20
f 56/70/21 55/69/22 41/53/23 44/56/24
s 1
f 29/36/25 30/37/26 26/33/6 25/38/5
s 2
f 42/54/27 50/61/14 49/64/13 43/55/28
s off
f 7/11/29 9/13/30 14/20/31 13/19/32
f 52/66/33 55/69/34 56/70/35 53/67/36
s 1
f 25/42/5 28/39/8 31/40/37 32/41/38
s off
f 45/72/39 48/71/40 51/65/41 54/68/42
s 4
f 11/16/43 6/6/44 19/24/45 18/23/46
f 6/6/44 5/5/47 20/25/48 19/24/45
f 3/3/49 4/4/50 22/27/51 21/26/52
f 4/4/50 11/16/43 18/23/46 22/27/51
f 10/15/53 3/3/49 21/26/52 17/28/54
f 5/12/47 16/22/55 23/30/56 20/29/48
f 16/22/55 15/21/57 24/31/58 23/30/56
f 15/21/57 10/14/53 17/32/54 24/31/58
s off
f 65/83/59 66/84/60 67/85/61 68/86/62
f 66/84/63 69/87/64 70/88/65 67/85/66
f 71/89/67 72/90/68 73/91/69 74/92/70
f 72/90/71 65/83/72 68/86/73 73/91/74
f 75/93/75 71/89/76 74/92/77 76/94/78
f 69/95/79 77/96/80 78/97/81 70/98/82
f 77/96/83 79/99/84 80/100/85 78/97/86
f 79/99/87 75/101/88 76/102/89 80/100/90
f 1/1/91 2/2/92 34/44/93 33/43/94
s 6
f 2/2/95 12/18/96 35/45/97 34/44/98
f 36/47/99 35/45/97 12/18/96 8/9/100
s off
f 37/49/101 36/46/102 8/8/103 7/7/104
f 38/50/105 37/48/106 7/11/107 13/19/108
f 13/19/109 14/20/110 39/51/111 38/50/112
f 9/13/113 40/52/114 39/51/115 14/20/116
f 33/43/117 40/52/118 9/13/119 1/1/120
s 7
f 33/43/121 34/44/122 42/54/123 41/53/124
s 4
f 4/4/50 3/3/49 44/56/125 43/55/126
f 5/5/47 6/6/44 46/58/127 45/57/128
s 7
f 36/46/129 37/49/130 48/60/131 47/59/132
f 35/45/133 36/47/129 47/62/132 50/61/134
s 4
f 6/10/44 11/17/43 49/64/135 46/63/127
s 7
f 38/50/136 39/51/137 52/66/138 51/65/139
s 4
f 15/21/57 16/22/55 54/68/140 53/67/141
s 7
f 40/52/142 33/43/121 41/53/124 55/69/143
s 4
f 3/3/49 10/14/53 56/70/144 44/56/125
s 7
f 34/44/122 35/45/133 50/61/134 42/54/123
s 4
f 11/17/43 4/4/50 43/55/126 49/64/135
s 7
f 39/51/137 40/52/142 55/69/143 52/66/138
s 4
f 10/14/53 15/21/57 53/67/141 56/70/144
s 7
f 37/48/130 38/50/136 51/65/139 48/71/131
s 4
f 16/22/55 5/12/47 45/72/128 54/68/140
s off
f 17/28/145 21/26/146 58/75/147 57/74/148
f 21/26/149 22/27/150 59/76/151 58/75/152
f 22/27/153 18/23/154 60/77/155 59/76/156
f 18/23/157 19/24/158 61/78/159 60/77/160
f 19/24/161 20/25/162 62/79/163 61/78/164
f 20/29/165 23/30/166 63/81/167 62/80/168
f 23/30/169 24/31/170 64/82/171 63/81/172
f 24/31/173 17/32/174 57/73/175 64/82/176
s 10
f 60/77/177 61/78/178 66/84/179 65/83/180
s 1
f 27/34/7 26/33/6 68/86/181 67/85/182
s 10
f 61/78/178 62/79/183 69/87/184 66/84/179
s 1
f 28/35/8 27/34/7 67/85/182 70/88/185
s 10
f 58/75/186 59/76/187 72/90/188 71/89/189
s 1
f 30/37/26 29/36/25 74/92/190 73/91/191
s 10
f 59/76/187 60/77/177 65/83/180 72/90/188
s 1
f 26/33/6 30/37/26 73/91/191 68/86/181
s 10
f 57/74/192 58/75/186 71/89/189 75/93/193
s 1
f 29/36/25 25/38/5 76/94/194 74/92/190
s 10
f 62/80/183 63/81/195 77/96/196 69/95/184
s 1
f 31/40/37 28/39/8 70/98/185 78/97/197
s 10
f 63/81/195 64/82/198 79/99/199 77/96/196
s 1
f 32/41/38 31/40/37 78/97/197 80/100/200
s 10
f 64/82/198 57/73/192 75/101/193 79/99/199
s 1
f 25/42/5 32/41/38 80/100/200 76/102/194
