# This file uses meters as units for non-parametric coordinates.

mtllib 4.mtl
g default
v -437.395996 -0.450409 21.037518
v -419.832581 -0.450409 21.037518
v -437.395996 89.513885 21.037518
v -419.832581 89.513885 21.037518
v -449.651733 89.513885 -19.495026
v -407.576721 89.513885 -19.495026
v -449.651733 -0.450409 -19.495026
v -407.576721 -0.450409 -19.495026
v -437.395996 97.175949 16.720673
v -419.832581 97.175949 16.720673
v -407.576721 121.010361 -19.494995
v -449.651733 121.010361 -19.494995
v -437.395996 86.167572 21.037518
v -419.832581 86.167572 21.037518
v -407.576721 86.167557 -19.495026
v -449.651733 86.167557 -19.495026
v -437.893372 86.167572 21.707518
v -419.335205 86.167572 21.707518
v -419.335205 89.513885 21.707518
v -437.893372 89.513885 21.707518
v -450.554260 89.513885 -20.165028
v -406.674194 89.513885 -20.165028
v -406.674225 86.167557 -20.165028
v -450.554321 86.167557 -20.165028
vt 0.375000 0.000000
vt 0.625000 0.000000
vt 0.375000 0.250000
vt 0.625000 0.250000
vt 0.375000 0.500000
vt 0.625000 0.500000
vt 0.375000 0.750000
vt 0.625000 0.750000
vt 0.875000 0.000000
vt 0.875000 0.250000
vt 0.125000 0.000000
vt 0.125000 0.250000
vt 0.375000 0.250000
vt 0.625000 0.250000
vt 0.625000 0.500000
vt 0.375000 0.500000
vt 0.375000 0.240701
vt 0.625000 0.240701
vt 0.625000 0.509299
vt 0.875000 0.240701
vt 0.125000 0.240701
vt 0.375000 0.509299
vt 0.375000 0.240701
vt 0.625000 0.240701
vt 0.625000 0.250000
vt 0.375000 0.250000
vt 0.375000 0.500000
vt 0.625000 0.500000
vt 0.625000 0.509299
vt 0.375000 0.509299
vt 0.875000 0.240701
vt 0.875000 0.250000
vt 0.125000 0.240701
vt 0.125000 0.250000
vn 0.000000 0.000000 1.000000
vn 0.000000 0.000000 1.000000
vn 0.000000 0.000000 1.000000
vn 0.000000 0.000000 1.000000
vn 0.000000 0.835329 0.549750
vn 0.000000 0.835329 0.549750
vn 0.000000 0.835329 0.549750
vn 0.000000 0.835329 0.549750
vn 0.000000 0.000000 -1.000000
vn 0.000000 0.000000 -1.000000
vn 0.000000 0.000000 -1.000000
vn 0.000000 0.000000 -1.000000
vn 0.957200 0.000000 0.289429
vn 0.957200 0.000000 0.289429
vn 0.957200 0.000000 0.289429
vn 0.957200 0.000000 0.289429
vn -0.957200 0.000013 0.289426
vn -0.957200 0.000013 0.289426
vn -0.957200 0.000013 0.289426
vn -0.957200 0.000013 0.289426
vn 0.000000 0.490860 0.871239
vn 0.000000 0.490860 0.871239
vn 0.000000 0.490860 0.871239
vn 0.000000 0.490860 0.871239
vn 0.948862 0.034590 0.313789
vn 0.948863 0.034590 0.313789
vn 0.948863 0.034590 0.313789
vn 0.948863 0.034590 0.313789
vn 0.000000 0.000001 -1.000000
vn 0.000000 0.000001 -1.000000
vn 0.000000 0.000001 -1.000000
vn 0.000000 0.000001 -1.000000
vn -0.948863 0.034592 0.313786
vn -0.948863 0.034592 0.313786
vn -0.948863 0.034592 0.313786
vn -0.948863 0.034592 0.313786
vn 0.000000 0.000000 1.000000
vn 0.000000 0.000000 1.000000
vn 0.000000 0.000000 1.000000
vn 0.000000 0.000000 1.000000
vn 0.957200 0.000000 0.289429
vn 0.957200 0.000000 0.289429
vn 0.957199 0.000000 0.289429
vn 0.957199 0.000000 0.289429
vn 0.000000 0.000000 -1.000000
vn 0.000000 0.000000 -1.000000
vn 0.000000 0.000000 -1.000000
vn 0.000000 0.000000 -1.000000
vn -0.957200 0.000000 0.289427
vn -0.957200 0.000000 0.289427
vn -0.957200 0.000000 0.289427
vn -0.957200 0.000000 0.289427
vn -0.000000 -1.000000 0.000004
vn 0.000000 -1.000000 0.000003
vn 0.000000 -1.000000 0.000003
vn -0.000000 -1.000000 0.000004
vn 0.000000 1.000000 -0.000002
vn 0.000000 1.000000 -0.000000
vn 0.000000 1.000000 -0.000000
vn 0.000000 1.000000 -0.000002
vn 0.000000 1.000000 0.000004
vn 0.000000 1.000000 0.000002
vn 0.000000 1.000000 0.000002
vn 0.000000 1.000000 0.000004
vn 0.000000 -1.000000 -0.000002
vn -0.000000 -1.000000 -0.000001
vn -0.000000 -1.000000 -0.000001
vn 0.000000 -1.000000 -0.000002
s off
g pCube21
usemtl initialShadingGroup
f 17/23/1 18/24/2 19/25/3 20/26/4
f 9/13/5 10/14/6 11/15/7 12/16/8
f 21/27/9 22/28/10 23/29/11 24/30/12
f 18/24/13 23/31/14 22/32/15 19/25/16
f 24/33/17 17/23/18 20/26/19 21/34/20
f 3/3/21 4/4/22 10/14/23 9/13/24
f 4/4/25 6/6/26 11/15/27 10/14/28
f 6/6/29 5/5/30 12/16/31 11/15/32
f 5/5/33 3/3/34 9/13/35 12/16/36
f 1/1/37 2/2/38 14/18/39 13/17/40
f 2/2/41 8/9/42 15/20/43 14/18/44
f 16/22/45 15/19/46 8/8/47 7/7/48
f 7/11/49 1/1/50 13/17/51 16/21/52
s 1
f 13/17/53 14/18/54 18/24/55 17/23/56
s 2
f 4/4/57 3/3/58 20/26/59 19/25/60
f 5/5/61 6/6/62 22/28/63 21/27/64
s 1
f 15/19/65 16/22/66 24/30/67 23/29/68
f 14/18/54 15/20/65 23/31/68 18/24/55
s 2
f 6/10/62 4/4/57 19/25/60 22/32/63
s 1
f 16/21/66 13/17/53 17/23/56 24/33/67
s 2
f 3/3/58 5/12/61 21/34/64 20/26/59
