# This file uses meters as units for non-parametric coordinates.

mtllib 5.mtl
g default
v -398.177856 0.410376 20.143904
v -357.890076 0.410376 20.143904
v -398.177856 73.043762 20.143904
v -357.890076 73.043762 20.143904
v -398.177856 73.043762 -20.143904
v -357.890076 73.043762 -20.143904
v -398.177856 0.410376 -20.143904
v -357.890076 0.410376 -20.143904
v -398.177856 102.984268 20.143904
v -357.890076 80.140228 20.143904
v -357.890076 80.140228 -20.143904
v -398.177856 102.984268 -20.143904
v -398.177856 70.582870 20.143904
v -357.890076 70.582870 20.143904
v -357.890076 70.582840 -20.143906
v -398.177856 70.582840 -20.143906
v -399.227814 70.582886 21.193903
v -356.840088 70.582855 21.193903
v -356.840088 73.043747 21.193903
v -399.227814 73.043777 21.193903
v -399.227814 73.043777 -21.193903
v -356.840088 73.043747 -21.193903
v -356.840088 70.582825 -21.193905
v -399.227814 70.582855 -21.193905
v -395.281067 101.341766 16.813904
v -360.786743 81.782730 16.813904
v -360.786743 81.782730 -16.813904
v -395.281067 101.341766 -16.813904
v -395.281067 105.189667 16.813904
v -360.786743 85.630630 16.813904
v -360.786743 85.630630 -16.813904
v -395.281067 105.189667 -16.813904
vt 0.375000 0.000000
vt 0.625000 0.000000
vt 0.375000 0.250000
vt 0.625000 0.250000
vt 0.375000 0.500000
vt 0.625000 0.500000
vt 0.375000 0.750000
vt 0.625000 0.750000
vt 0.875000 0.000000
vt 0.875000 0.250000
vt 0.125000 0.000000
vt 0.125000 0.250000
vt 0.375000 0.250000
vt 0.625000 0.250000
vt 0.625000 0.500000
vt 0.375000 0.500000
vt 0.375000 0.241530
vt 0.625000 0.241530
vt 0.625000 0.508470
vt 0.875000 0.241530
vt 0.125000 0.241530
vt 0.375000 0.508470
vt 0.375000 0.241530
vt 0.625000 0.241530
vt 0.625000 0.250000
vt 0.375000 0.250000
vt 0.375000 0.500000
vt 0.625000 0.500000
vt 0.625000 0.508470
vt 0.375000 0.508470
vt 0.875000 0.241530
vt 0.875000 0.250000
vt 0.125000 0.241530
vt 0.125000 0.250000
vt 0.375000 0.250000
vt 0.625000 0.250000
vt 0.625000 0.500000
vt 0.375000 0.500000
vt 0.375000 0.250000
vt 0.625000 0.250000
vt 0.625000 0.500000
vt 0.375000 0.500000
vn 0.000000 0.000000 1.000000
vn 0.000000 0.000000 1.000000
vn 0.000000 0.000000 1.000000
vn 0.000000 0.000000 1.000000
vn 0.493246 0.869890 0.000000
vn 0.493246 0.869890 0.000000
vn 0.493246 0.869890 0.000000
vn 0.493246 0.869890 0.000000
vn 0.000000 0.000001 -1.000000
vn 0.000000 0.000001 -1.000000
vn 0.000000 0.000001 -1.000000
vn 0.000000 0.000001 -1.000000
vn 1.000000 -0.000009 0.000000
vn 1.000000 -0.000009 0.000000
vn 1.000000 -0.000009 0.000000
vn 1.000000 -0.000009 0.000000
vn -1.000000 0.000011 0.000000
vn -1.000000 0.000011 0.000000
vn -1.000000 0.000011 0.000000
vn -1.000000 0.000011 0.000000
vn 0.000000 0.000000 1.000000
vn 0.000000 0.000000 1.000000
vn 0.000000 0.000000 1.000000
vn 0.000000 0.000000 1.000000
vn 1.000000 0.000000 0.000000
vn 1.000000 0.000000 0.000000
vn 1.000000 0.000000 0.000000
vn 1.000000 0.000000 0.000000
vn -0.000000 0.000000 -1.000000
vn -0.000000 0.000000 -1.000000
vn -0.000000 0.000000 -1.000000
vn -0.000000 0.000000 -1.000000
vn -1.000000 0.000000 0.000000
vn -1.000000 0.000000 0.000000
vn -1.000000 0.000000 0.000000
vn -1.000000 0.000000 0.000000
vn 0.000000 0.000000 1.000000
vn 0.000000 0.000000 1.000000
vn 0.000000 0.000000 1.000000
vn 0.000000 0.000000 1.000000
vn 1.000000 0.000000 0.000000
vn 1.000000 0.000000 0.000000
vn 1.000000 0.000000 0.000000
vn 1.000000 0.000000 0.000000
vn 0.000000 -0.000000 -1.000000
vn 0.000000 -0.000000 -1.000000
vn 0.000000 -0.000000 -1.000000
vn 0.000000 -0.000000 -1.000000
vn -1.000000 -0.000000 0.000000
vn -1.000000 -0.000000 0.000000
vn -1.000000 -0.000000 0.000000
vn -1.000000 -0.000000 0.000000
vn -0.000007 -1.000000 0.000002
vn -0.000007 -1.000000 0.000002
vn -0.000007 -1.000000 0.000002
vn -0.000007 -1.000000 0.000002
vn 0.000007 1.000000 -0.000000
vn 0.000007 1.000000 -0.000000
vn 0.000007 1.000000 -0.000000
vn 0.000007 1.000000 -0.000000
vn 0.000007 1.000000 0.000000
vn 0.000007 1.000000 0.000000
vn 0.000007 1.000000 0.000000
vn 0.000007 1.000000 0.000000
vn -0.000007 -1.000000 0.000001
vn -0.000007 -1.000000 0.000001
vn -0.000007 -1.000000 0.000001
vn -0.000007 -1.000000 0.000001
vn 0.493242 0.869892 0.000005
vn 0.493250 0.869887 0.000005
vn 0.493250 0.869888 0.000005
vn 0.493242 0.869892 0.000005
vn 0.493250 0.869887 -0.000005
vn 0.493250 0.869888 -0.000005
vn 0.493242 0.869892 -0.000005
vn 0.493242 0.869892 -0.000005
vn 0.000000 0.000000 1.000000
vn 0.000000 0.000000 1.000000
vn 0.000000 0.000000 1.000000
vn 0.000000 0.000000 1.000000
vn 1.000000 0.000000 0.000000
vn 1.000000 0.000000 0.000000
vn 1.000000 0.000000 0.000000
vn 1.000000 0.000000 0.000000
vn -0.000000 0.000000 -1.000000
vn -0.000000 0.000000 -1.000000
vn -0.000000 0.000000 -1.000000
vn -0.000000 0.000000 -1.000000
vn -1.000000 0.000000 0.000000
vn -1.000000 0.000000 0.000000
vn -1.000000 0.000000 0.000000
vn -1.000000 0.000000 0.000000
s off
g pCube19
usemtl initialShadingGroup
f 17/23/1 18/24/2 19/25/3 20/26/4
f 29/39/5 30/40/6 31/41/7 32/42/8
f 21/27/9 22/28/10 23/29/11 24/30/12
f 18/24/13 23/31/14 22/32/15 19/25/16
f 24/33/17 17/23/18 20/26/19 21/34/20
f 3/3/21 4/4/22 10/14/23 9/13/24
f 4/4/25 6/6/26 11/15/27 10/14/28
f 6/6/29 5/5/30 12/16/31 11/15/32
f 5/5/33 3/3/34 9/13/35 12/16/36
f 1/1/37 2/2/38 14/18/39 13/17/40
f 2/2/41 8/9/42 15/20/43 14/18/44
f 16/22/45 15/19/46 8/8/47 7/7/48
f 7/11/49 1/1/50 13/17/51 16/21/52
s 1
f 13/17/53 14/18/54 18/24/55 17/23/56
s 2
f 4/4/57 3/3/58 20/26/59 19/25/60
f 5/5/61 6/6/62 22/28/63 21/27/64
s 1
f 15/19/65 16/22/66 24/30/67 23/29/68
f 14/18/54 15/20/65 23/31/68 18/24/55
s 2
f 6/10/62 4/4/57 19/25/60 22/32/63
s 1
f 16/21/66 13/17/53 17/23/56 24/33/67
s 2
f 3/3/58 5/12/61 21/34/64 20/26/59
s 3
f 9/13/69 10/14/70 26/36/71 25/35/72
f 10/14/70 11/15/73 27/37/74 26/36/71
f 11/15/73 12/16/75 28/38/76 27/37/74
f 12/16/75 9/13/69 25/35/72 28/38/76
s off
f 25/35/77 26/36/78 30/40/79 29/39/80
f 26/36/81 27/37/82 31/41/83 30/40/84
f 27/37/85 28/38/86 32/42/87 31/41/88
f 28/38/89 25/35/90 29/39/91 32/42/92
